<svg xmlns="http://www.w3.org/2000/svg" viewBox="0 0 135.56 70.17"><defs><style>.cls-1{fill:#e1bbbb;}.cls-2{fill:#a6c521;}.cls-3{fill:#fad4d4;}.cls-4{fill:#c5695a;}.cls-5{fill:#9f4334;}.cls-6{fill:#f6b9b9;}.cls-7{fill:#dda0a0;}.cls-8{fill:#862a1b;}.cls-9{fill:#d4aeae;}.cls-10{fill:#d09393;}</style></defs><title>Asset 10</title><g id="Layer_2" data-name="Layer 2"><g id="Ñëîé_1" data-name="Ñëîé 1"><path class="cls-1" d="M35.26,55.16c4.15,1.79,17.68,12.1,17.68,12.1v1.42S39.41,58.36,35.26,56.58C35.26,56.58,34.89,55.44,35.26,55.16Z"/><path class="cls-2" d="M121.38,26.72c-14.37,10.39-24.2,13.55-31,17.09s-6.06,2.54-2.23-.24,3-3.79,12.53-10.47c6.48-4.55,17-11.16,24.24-15.85,2,1.13,4,2.15,5.75,2.88C128.49,21.64,125.48,23.76,121.38,26.72Z"/><path class="cls-3" d="M52.94,67.26S39.41,57,35.26,55.16c0,0,16.46-12.41,31.51-21.21S98.63,18.69,111.92,7.88c0,0,15.9,10.57,21.74,11.85a370.9,370.9,0,0,1-30.9,20.63C88.16,48.79,65.33,60.11,52.94,67.26Z"/><path class="cls-4" d="M102.76,40.36C116,32.75,131,21.72,133.66,19.73a15.09,15.09,0,0,0,1.61.46s-17,12.47-31.58,20.9S66.26,60.84,53.88,68l-.94-.73C65.33,60.11,88.16,48.79,102.76,40.36Z"/><path class="cls-5" d="M135.27,20.19a1,1,0,0,1,0,1.42s-17,12.47-31.58,20.89S66.26,62.26,53.88,69.4V68c12.38-7.15,35.22-18.48,49.81-26.9S135.27,20.19,135.27,20.19Z"/><path class="cls-6" d="M88.29,38.61c-.61,1.62-6.75,4.7-10.37,7.26s-5.64,6.27-11.68,9.76L50,65c-1.5-1.11-3.42-2.52-5.4-3.93,4.07-2,8.19-4,11-5.6,7.68-4.44,15-7.83,23.42-13.76S88.89,37,88.29,38.61Z"/><path class="cls-6" d="M121.38,25.31C107,35.7,97.18,38.86,90.42,42.39s-6.06,2.55-2.23-.24,3-3.78,12.53-10.46c6.48-4.56,17-11.17,24.24-15.85,2,1.12,4,2.14,5.75,2.87C128.49,20.23,125.48,22.35,121.38,25.31Z"/><path class="cls-6" d="M117.9,11.69l3.37,2c-5,3.56-11.27,8-16.66,11.67-7.06,4.84-8.88,7-14.76,8.53s-8.24,2.61-16.28,7.24c-6.27,3.63-21.92,13-32,17.83-1-.65-1.89-1.27-2.76-1.82,4.52-2,9.31-4.32,12.45-6C58,47.5,82.81,31,91,26.1,97.41,22.32,109.87,16.37,117.9,11.69Z"/><path class="cls-7" d="M50,66.44c-1.6-1.18-3.66-2.69-5.77-4.18l.37-1.16c2,1.41,3.9,2.82,5.4,3.93Z"/><path class="cls-7" d="M41.3,60.24c-1-.67-1.94-1.3-2.81-1.85l.31-1.21c.87.55,1.8,1.17,2.76,1.82Z"/><polygon class="cls-8" points="52.94 68.68 53.88 69.4 53.88 67.99 52.94 67.26 52.94 68.68"/><path class="cls-1" d="M3.42,58.54,6,57Z"/><path class="cls-1" d="M61.12,50.56c-15.25,8.69-36.74,18.2-36.74,18.2-3.09-2.4-21-10.22-21-10.22V60s17.87,7.81,21,10.21c0,0,21.49-9.5,36.74-18.19s26.43-18.4,45.15-26.07V24.5C87.55,32.17,76.38,41.87,61.12,50.56Z"/><path class="cls-9" d="M3.42,58.54V60s17.87,7.81,21,10.21V68.76C21.29,66.36,3.42,58.54,3.42,58.54Z"/><path class="cls-2" d="M76.08,20.45c-18,8.3-23.46,14-29.59,17.87s-4.41,3.5.43,1.29S53.47,37.87,65,32.38c7.89-3.75,19.34-9.83,27.45-14a52.81,52.81,0,0,1-5-3.32C84.88,16.34,81.21,18.08,76.08,20.45Z"/><path class="cls-3" d="M3.42,58.54s17.87,7.82,21,10.22c0,0,21.49-9.51,36.74-18.2S87.55,32.17,106.27,24.5c0,0-18.32-9.18-20.53-12.55,0,0-21.14,9.41-35.73,17.84S15.8,51.39,3.42,58.54Z"/><path class="cls-4" d="M84.94,11S63.35,20.82,48.75,29.25,14.54,50.86,2.16,58l1.26.53C15.8,51.39,35.42,38.21,50,29.79,63.2,22.17,82.3,13.49,85.74,12A6.82,6.82,0,0,1,84.94,11Z"/><path class="cls-6" d="M53.06,38.14c-2.82.35-8.16,3.89-12.59,6s-10.87,3.25-16.9,6.74L7.29,60.26c1.92.87,4.36,2,6.8,3.12C17.46,61,21,58.65,23.8,57c7.68-4.44,13.55-8.64,23.82-13.52S55.87,37.79,53.06,38.14Z"/><path class="cls-6" d="M76.08,19c-18,8.3-23.46,14-29.59,17.88s-4.41,3.5.43,1.29S53.47,36.45,65,31c7.89-3.74,19.34-9.82,27.45-14a51,51,0,0,1-5-3.31C84.88,14.93,81.21,16.67,76.08,19Z"/><path class="cls-6" d="M99.67,21c-1.13-.61-2.33-1.27-3.53-1.95C90,22,82.32,25.6,75.92,28.72c-8.37,4.07-12.19,5.12-14.76,8.52S56.64,42,48.61,46.63c-6.28,3.63-22.55,12.66-30.89,18.49,1.14.55,2.21,1.09,3.16,1.59,3.53-2.61,7.49-5.37,10.44-7.19,6.34-3.89,35-18.22,43.4-23C81.26,32.87,91.57,25.68,99.67,21Z"/><polygon class="cls-8" points="3.42 59.96 2.16 59.42 2.16 58.01 3.42 58.55 3.42 59.96"/><path class="cls-10" d="M7.29,60.26v1.42c1.73.78,3.87,1.75,6.06,2.77l.74-1.07h0C11.65,62.24,9.21,61.13,7.29,60.26Z"/><path class="cls-10" d="M17.72,65.12h0l-.3,1.27c1,.49,2,1,2.85,1.42l.61-1.1h0C19.93,66.21,18.86,65.67,17.72,65.12Z"/><path class="cls-1" d="M1.35,38.31,4.1,37.07Z"/><path class="cls-1" d="M59.58,36.7c-16.11,7-38.52,14-38.52,14C18.25,48,1.35,38.31,1.35,38.31l-.16,1.4S18.1,49.44,20.9,52.16c0,0,22.41-7.09,38.53-14s28.28-15.39,47.73-21l.15-1.41C87.87,21.31,75.7,29.73,59.58,36.7Z"/><path class="cls-9" d="M1.35,38.31l-.16,1.4S18.1,49.44,20.9,52.16l.16-1.41C18.25,48,1.35,38.31,1.35,38.31Z"/><path class="cls-2" d="M77.75,8.41C59,14.68,52.89,19.72,46.38,22.93s-4.77,3,.28,1.33,6.7-1,18.8-5.21c8.26-2.85,20.3-7.64,28.82-10.9A54.19,54.19,0,0,1,89.7,4.31C87,5.29,83.11,6.62,77.75,8.41Z"/><path class="cls-3" d="M1.35,38.31S18.25,48,21.06,50.75c0,0,22.41-7.09,38.52-14s28.29-15.39,47.73-21c0,0-17.2-11.13-19-14.73,0,0-22,7-37.47,13.82S14.44,32.56,1.35,38.31Z"/><path class="cls-4" d="M87.59,0s-22.54,7.38-38,14.15S13.25,31.88.15,37.63l1.2.68c13.09-5.75,34-16.71,49.46-23.48C64.76,8.7,84.69,2.18,88.28,1A6.52,6.52,0,0,1,87.59,0Z"/><path class="cls-6" d="M52.92,23.47c-2.84,0-8.53,3-13.16,4.57s-11.16,2-17.55,4.84L5,40.44c1.82,1.07,4.12,2.44,6.42,3.84,3.62-2,7.35-4,10.35-5.27,8.12-3.56,14.42-7.1,25.16-10.83S55.76,23.43,52.92,23.47Z"/><path class="cls-6" d="M77.91,7c-18.8,6.27-24.86,11.31-31.37,14.52s-4.77,3,.27,1.33,6.71-1,18.81-5.21c8.25-2.85,20.3-7.64,28.82-10.9A52.94,52.94,0,0,1,89.85,2.9C87.1,3.88,83.27,5.21,77.91,7Z"/><path class="cls-6" d="M101.13,11.58c-1.06-.73-2.17-1.51-3.29-2.32-6.46,2.21-14.46,5-21.16,7.35-8.77,3.13-12.68,3.75-15.6,6.85s-5,4.23-13.51,8c-6.63,2.91-23.8,10.11-32.73,15,1.07.67,2.08,1.32,3,1.92,3.79-2.2,8-4.52,11.16-6,6.73-3.18,36.77-14.28,45.66-18.08C81.53,21.32,92.57,15.3,101.13,11.58Z"/><polygon class="cls-8" points="1.19 39.71 0 39.04 0.15 37.63 1.35 38.3 1.19 39.71"/><path class="cls-10" d="M5,40.44l-.15,1.4c1.64,1,3.66,2.17,5.72,3.42.48-.54.85-1,.85-1h0C9.12,42.88,6.82,41.51,5,40.44Z"/><path class="cls-10" d="M14.84,46.41h0l-.43,1.23c.94.59,1.85,1.17,2.67,1.72l.73-1h0C16.92,47.73,15.91,47.08,14.84,46.41Z"/></g></g></svg>