<svg xmlns="http://www.w3.org/2000/svg" xmlns:xlink="http://www.w3.org/1999/xlink" viewBox="0 0 105.51 76.37"><defs><style>.cls-1{fill:url(#radial-gradient);}.cls-2{fill:#de8146;}.cls-3{fill:#fffcdc;}.cls-4{fill:#f7e3c3;}</style><radialGradient id="radial-gradient" cx="51.47" cy="5.66" r="71.18" gradientUnits="userSpaceOnUse"><stop offset="0" stop-color="#f7be55"/><stop offset="0.68" stop-color="#e99a3f"/><stop offset="0.88" stop-color="#e28537"/><stop offset="1" stop-color="#c4672c"/></radialGradient></defs><title>Asset 3</title><g id="Layer_2" data-name="Layer 2"><g id="Ñëîé_1" data-name="Ñëîé 1"><path class="cls-1" d="M52.75,76.37h0c13.4,0,26.8-3,37-8.85s14.08-13.47,15.34-21.37a26,26,0,0,0,0-9c-1.45-7.6-4.34-17.92-14.56-25.74C81.17,4.19,69.54,0,52.75,0S24.34,4.19,15,11.36C4.74,19.18,1.85,29.5.4,37.1a26,26,0,0,0,0,9c1.26,7.9,5.12,15.47,15.34,21.37s23.62,8.85,37,8.85Z"/><path class="cls-2" d="M51.42,11.1c.38.22.38.57,0,.78a1.46,1.46,0,0,1-1.35,0c-.37-.21-.37-.56,0-.78A1.53,1.53,0,0,1,51.42,11.1Z"/><path class="cls-3" d="M51.54,11c.37.21.37.56,0,.78a1.53,1.53,0,0,1-1.35,0c-.37-.22-.37-.57,0-.78A1.53,1.53,0,0,1,51.54,11Z"/><path class="cls-4" d="M51.65,11.6a1.53,1.53,0,0,1-1.35,0,.45.45,0,0,1-.27-.43c-.19.21-.14.47.16.65a1.53,1.53,0,0,0,1.35,0,.53.53,0,0,0,.28-.35A1.26,1.26,0,0,1,51.65,11.6Z"/><path class="cls-2" d="M50.27,33a.41.41,0,0,1,0,.77,1.46,1.46,0,0,1-1.35,0,.41.41,0,0,1,0-.77A1.46,1.46,0,0,1,50.27,33Z"/><path class="cls-3" d="M50.39,33c.37.22.37.57,0,.78a1.46,1.46,0,0,1-1.35,0c-.37-.21-.37-.56,0-.78A1.53,1.53,0,0,1,50.39,33Z"/><path class="cls-4" d="M50.5,33.53a1.46,1.46,0,0,1-1.35,0,.44.44,0,0,1-.27-.42c-.19.2-.14.47.16.64a1.46,1.46,0,0,0,1.35,0,.47.47,0,0,0,.27-.35A.75.75,0,0,1,50.5,33.53Z"/><path class="cls-2" d="M49.26,51.32a.41.41,0,0,1,0,.78,1.53,1.53,0,0,1-1.35,0,.41.41,0,0,1,0-.78A1.53,1.53,0,0,1,49.26,51.32Z"/><path class="cls-3" d="M49.38,51.26c.37.21.37.56,0,.78A1.53,1.53,0,0,1,48,52c-.38-.22-.38-.57,0-.78A1.46,1.46,0,0,1,49.38,51.26Z"/><path class="cls-4" d="M49.48,51.82a1.5,1.5,0,0,1-1.34,0,.47.47,0,0,1-.28-.43c-.19.21-.14.47.17.65a1.53,1.53,0,0,0,1.35,0,.51.51,0,0,0,.27-.36A.61.61,0,0,1,49.48,51.82Z"/><path class="cls-2" d="M44.69,22.92c.37.21.37.56,0,.78a1.53,1.53,0,0,1-1.35,0c-.38-.22-.38-.57,0-.78A1.46,1.46,0,0,1,44.69,22.92Z"/><path class="cls-3" d="M44.81,22.85c.37.22.37.57,0,.78a1.46,1.46,0,0,1-1.35,0c-.38-.21-.38-.56,0-.78A1.53,1.53,0,0,1,44.81,22.85Z"/><path class="cls-4" d="M44.91,23.41a1.46,1.46,0,0,1-1.35,0,.44.44,0,0,1-.27-.42c-.19.21-.14.47.17.64a1.46,1.46,0,0,0,1.35,0,.48.48,0,0,0,.27-.35A.59.59,0,0,1,44.91,23.41Z"/><path class="cls-2" d="M67.27,18.4a.33.33,0,0,1,0,.62,1.19,1.19,0,0,1-1.07,0,.33.33,0,0,1,0-.62A1.19,1.19,0,0,1,67.27,18.4Z"/><path class="cls-3" d="M67.37,18.35a.33.33,0,0,1,0,.62,1.19,1.19,0,0,1-1.07,0,.33.33,0,0,1,0-.62A1.19,1.19,0,0,1,67.37,18.35Z"/><path class="cls-4" d="M67.45,18.79a1.19,1.19,0,0,1-1.07,0,.36.36,0,0,1-.22-.33c-.15.16-.11.37.14.51a1.19,1.19,0,0,0,1.07,0,.39.39,0,0,0,.21-.28A.34.34,0,0,1,67.45,18.79Z"/><path class="cls-2" d="M11.56,33.71a.33.33,0,0,1,0,.62,1.19,1.19,0,0,1-1.07,0,.33.33,0,0,1,0-.62A1.19,1.19,0,0,1,11.56,33.71Z"/><path class="cls-3" d="M11.66,33.66a.33.33,0,0,1,0,.62,1.21,1.21,0,0,1-1.08,0,.33.33,0,0,1,0-.62A1.21,1.21,0,0,1,11.66,33.66Z"/><path class="cls-4" d="M11.74,34.1a1.19,1.19,0,0,1-1.07,0,.36.36,0,0,1-.22-.34c-.15.17-.11.38.13.52a1.21,1.21,0,0,0,1.08,0,.39.39,0,0,0,.21-.28A.49.49,0,0,1,11.74,34.1Z"/><path class="cls-2" d="M2.48,31.91c.3-.16.54,0,.53.33a1.18,1.18,0,0,1-.56.91c-.3.16-.54,0-.53-.32A1.18,1.18,0,0,1,2.48,31.91Z"/><path class="cls-3" d="M2.49,31.8c.3-.16.54,0,.53.33a1.16,1.16,0,0,1-.57.91c-.3.17-.53,0-.52-.32A1.21,1.21,0,0,1,2.49,31.8Z"/><path class="cls-4" d="M2.91,32a1.2,1.2,0,0,1-.56.92.36.36,0,0,1-.4,0c.06.21.26.29.5.15A1.16,1.16,0,0,0,3,32.13a.39.39,0,0,0-.13-.33A.78.78,0,0,1,2.91,32Z"/><path class="cls-2" d="M10,38.36c.3.18.3.45,0,.62a1.19,1.19,0,0,1-1.07,0c-.3-.17-.3-.44,0-.62A1.19,1.19,0,0,1,10,38.36Z"/><path class="cls-3" d="M10.05,38.31c.29.18.29.45,0,.62a1.21,1.21,0,0,1-1.08,0c-.29-.17-.29-.44,0-.62A1.21,1.21,0,0,1,10.05,38.31Z"/><path class="cls-4" d="M10.13,38.76a1.19,1.19,0,0,1-1.07,0,.37.37,0,0,1-.22-.34c-.15.17-.11.37.13.51a1.21,1.21,0,0,0,1.08,0,.38.38,0,0,0,.21-.28A.36.36,0,0,1,10.13,38.76Z"/><path class="cls-2" d="M74.68,43.68a.33.33,0,0,1,0,.62,1.19,1.19,0,0,1-1.07,0,.33.33,0,0,1,0-.62A1.19,1.19,0,0,1,74.68,43.68Z"/><path class="cls-3" d="M74.77,43.63a.33.33,0,0,1,0,.62,1.19,1.19,0,0,1-1.07,0,.33.33,0,0,1,0-.62A1.19,1.19,0,0,1,74.77,43.63Z"/><path class="cls-4" d="M74.86,44.07a1.19,1.19,0,0,1-1.07,0,.36.36,0,0,1-.22-.34c-.15.17-.11.38.13.52a1.19,1.19,0,0,0,1.07,0A.38.38,0,0,0,75,44,.49.49,0,0,1,74.86,44.07Z"/><path class="cls-2" d="M83.76,45.22a.33.33,0,0,1,0,.62,1.19,1.19,0,0,1-1.07,0,.33.33,0,0,1,0-.62A1.19,1.19,0,0,1,83.76,45.22Z"/><path class="cls-3" d="M83.85,45.17a.33.33,0,0,1,0,.62,1.19,1.19,0,0,1-1.07,0,.33.33,0,0,1,0-.62A1.19,1.19,0,0,1,83.85,45.17Z"/><path class="cls-4" d="M83.94,45.61a1.19,1.19,0,0,1-1.07,0,.36.36,0,0,1-.22-.33c-.15.16-.11.37.13.51a1.19,1.19,0,0,0,1.07,0,.38.38,0,0,0,.22-.28A.45.45,0,0,1,83.94,45.61Z"/><path class="cls-2" d="M90.07,20.4c.15.31,0,.54-.35.51a1.18,1.18,0,0,1-.88-.61c-.15-.31,0-.54.35-.51A1.19,1.19,0,0,1,90.07,20.4Z"/><path class="cls-3" d="M90.18,20.41c.14.31,0,.54-.36.51a1.19,1.19,0,0,1-.88-.61c-.14-.31,0-.54.35-.51A1.21,1.21,0,0,1,90.18,20.41Z"/><path class="cls-4" d="M90,20.83a1.19,1.19,0,0,1-.88-.61.35.35,0,0,1,0-.4c-.22.05-.31.24-.19.49a1.19,1.19,0,0,0,.88.61.39.39,0,0,0,.34-.11Z"/><path class="cls-2" d="M98.9,34.39c.14.31,0,.54-.35.51a1.19,1.19,0,0,1-.89-.61c-.14-.31,0-.54.35-.51A1.19,1.19,0,0,1,98.9,34.39Z"/><path class="cls-3" d="M99,34.4c.15.31,0,.54-.35.51a1.19,1.19,0,0,1-.88-.61c-.15-.31,0-.54.35-.51A1.18,1.18,0,0,1,99,34.4Z"/><path class="cls-4" d="M98.82,34.82a1.22,1.22,0,0,1-.88-.61.37.37,0,0,1,0-.41c-.22.05-.3.25-.18.5a1.19,1.19,0,0,0,.88.61A.39.39,0,0,0,99,34.8Z"/><path class="cls-2" d="M56.65,19.93c.38.22.38.56,0,.78a1.5,1.5,0,0,1-1.34,0c-.38-.22-.38-.56,0-.78A1.5,1.5,0,0,1,56.65,19.93Z"/><path class="cls-3" d="M56.77,19.87c.38.21.38.56,0,.78a1.53,1.53,0,0,1-1.35,0c-.37-.22-.37-.57,0-.78A1.46,1.46,0,0,1,56.77,19.87Z"/><path class="cls-4" d="M56.88,20.43a1.53,1.53,0,0,1-1.35,0,.46.46,0,0,1-.27-.43c-.19.21-.14.47.16.65a1.53,1.53,0,0,0,1.35,0,.53.53,0,0,0,.28-.36A.79.79,0,0,1,56.88,20.43Z"/><path class="cls-2" d="M49.38,5.48c.37.21.37.56,0,.78a1.53,1.53,0,0,1-1.35,0c-.37-.22-.37-.57,0-.78A1.46,1.46,0,0,1,49.38,5.48Z"/><path class="cls-3" d="M49.5,5.42a.41.41,0,0,1,0,.77,1.46,1.46,0,0,1-1.35,0,.41.41,0,0,1,0-.77A1.46,1.46,0,0,1,49.5,5.42Z"/><path class="cls-4" d="M49.61,6a1.46,1.46,0,0,1-1.35,0A.44.44,0,0,1,48,5.55c-.19.21-.14.47.16.64a1.46,1.46,0,0,0,1.35,0,.45.45,0,0,0,.27-.35A.53.53,0,0,1,49.61,6Z"/><path class="cls-2" d="M40.91,15.23a.57.57,0,0,1,0,1.08,2.12,2.12,0,0,1-1.87,0,.57.57,0,0,1,0-1.08A2.06,2.06,0,0,1,40.91,15.23Z"/><path class="cls-3" d="M41.08,15.14a.57.57,0,0,1,0,1.08,2.06,2.06,0,0,1-1.87,0,.57.57,0,0,1,0-1.08A2.06,2.06,0,0,1,41.08,15.14Z"/><path class="cls-4" d="M41.23,15.91a2.06,2.06,0,0,1-1.87,0,.62.62,0,0,1-.38-.59c-.26.29-.19.66.23.9a2.06,2.06,0,0,0,1.87,0,.68.68,0,0,0,.37-.49A1,1,0,0,1,41.23,15.91Z"/><path class="cls-2" d="M30,25.51a.82.82,0,0,1,0,1.54,2.92,2.92,0,0,1-2.67,0c-.74-.43-.74-1.12,0-1.54A2.92,2.92,0,0,1,30,25.51Z"/><path class="cls-3" d="M30.26,25.38c.74.43.74,1.12,0,1.54a2.92,2.92,0,0,1-2.67,0c-.74-.42-.74-1.11,0-1.54A3,3,0,0,1,30.26,25.38Z"/><path class="cls-4" d="M30.48,26.49a3,3,0,0,1-2.67,0,.88.88,0,0,1-.54-.84c-.38.41-.28.93.32,1.27a2.92,2.92,0,0,0,2.67,0,.92.92,0,0,0,.54-.7A1.09,1.09,0,0,1,30.48,26.49Z"/><path class="cls-2" d="M32.46,18.78c.62.21.73.73.23,1.16a2.24,2.24,0,0,1-2,.41.63.63,0,0,1-.24-1.17A2.29,2.29,0,0,1,32.46,18.78Z"/><path class="cls-3" d="M32.62,18.65a.62.62,0,0,1,.23,1.16,2.24,2.24,0,0,1-2,.41.63.63,0,0,1-.24-1.17A2.29,2.29,0,0,1,32.62,18.65Z"/><path class="cls-4" d="M33,19.45a2.29,2.29,0,0,1-2,.4.68.68,0,0,1-.53-.55c-.23.37-.07.75.44.92a2.24,2.24,0,0,0,2-.41.71.71,0,0,0,.3-.61A.92.92,0,0,1,33,19.45Z"/><path class="cls-2" d="M38.05,37a.63.63,0,0,1,0,1.19,2.27,2.27,0,0,1-2.06,0A.63.63,0,0,1,36,37,2.27,2.27,0,0,1,38.05,37Z"/><path class="cls-3" d="M38.23,37c.57.32.57.85,0,1.18a2.27,2.27,0,0,1-2.06,0,.62.62,0,0,1,0-1.18A2.27,2.27,0,0,1,38.23,37Z"/><path class="cls-4" d="M38.4,37.8a2.33,2.33,0,0,1-2.06,0,.7.7,0,0,1-.42-.65c-.29.32-.21.71.25,1a2.27,2.27,0,0,0,2.06,0,.77.77,0,0,0,.42-.54A1.84,1.84,0,0,1,38.4,37.8Z"/><path class="cls-2" d="M35.55,10.4c.62.21.72.73.23,1.17a2.28,2.28,0,0,1-2,.4c-.62-.21-.72-.73-.23-1.17A2.29,2.29,0,0,1,35.55,10.4Z"/><path class="cls-3" d="M35.71,10.27c.62.21.72.73.23,1.17a2.28,2.28,0,0,1-2,.4c-.62-.21-.72-.73-.23-1.17A2.29,2.29,0,0,1,35.71,10.27Z"/><path class="cls-4" d="M36,11.07a2.23,2.23,0,0,1-2,.4.68.68,0,0,1-.53-.55c-.23.37-.07.75.43.92a2.28,2.28,0,0,0,2-.4.73.73,0,0,0,.3-.61A1.06,1.06,0,0,1,36,11.07Z"/><path class="cls-2" d="M25.51,11.37c.57.32.57.85,0,1.18a2.25,2.25,0,0,1-2.05,0c-.57-.33-.57-.86,0-1.18A2.25,2.25,0,0,1,25.51,11.37Z"/><path class="cls-3" d="M25.69,11.27a.63.63,0,0,1,0,1.19,2.31,2.31,0,0,1-2.05,0,.63.63,0,0,1,0-1.19A2.25,2.25,0,0,1,25.69,11.27Z"/><path class="cls-4" d="M25.86,12.12a2.27,2.27,0,0,1-2.06,0,.69.69,0,0,1-.41-.65c-.29.32-.21.72.25,1a2.31,2.31,0,0,0,2.05,0,.76.76,0,0,0,.42-.54A1.29,1.29,0,0,1,25.86,12.12Z"/><path class="cls-2" d="M13.08,21.15c.64.11.83.6.41,1.11a2.23,2.23,0,0,1-1.92.72c-.65-.11-.83-.6-.42-1.11A2.26,2.26,0,0,1,13.08,21.15Z"/><path class="cls-3" d="M13.21,21c.65.1.84.6.42,1.11a2.28,2.28,0,0,1-1.92.72c-.65-.11-.84-.61-.42-1.11A2.25,2.25,0,0,1,13.21,21Z"/><path class="cls-4" d="M13.67,21.73a2.3,2.3,0,0,1-1.93.73.68.68,0,0,1-.61-.46c-.17.39,0,.74.58.83a2.28,2.28,0,0,0,1.92-.72.74.74,0,0,0,.2-.65A1.28,1.28,0,0,1,13.67,21.73Z"/><path class="cls-2" d="M21.84,31.81c.64.15.8.65.35,1.13a2.27,2.27,0,0,1-2,.6c-.63-.15-.79-.65-.34-1.13A2.26,2.26,0,0,1,21.84,31.81Z"/><path class="cls-3" d="M22,31.66a.63.63,0,0,1,.35,1.14,2.3,2.3,0,0,1-2,.6A.63.63,0,0,1,20,32.26,2.27,2.27,0,0,1,22,31.66Z"/><path class="cls-4" d="M22.4,32.43a2.3,2.3,0,0,1-2,.6.7.7,0,0,1-.59-.5c-.18.39,0,.75.53.87a2.3,2.3,0,0,0,2-.6.78.78,0,0,0,.24-.64A1.41,1.41,0,0,1,22.4,32.43Z"/><path class="cls-2" d="M55.59,26.7c.57.33.57.86,0,1.18a2.25,2.25,0,0,1-2.05,0c-.57-.32-.57-.85,0-1.18A2.25,2.25,0,0,1,55.59,26.7Z"/><path class="cls-3" d="M55.77,26.6a.63.63,0,0,1,0,1.19,2.25,2.25,0,0,1-2.05,0,.63.63,0,0,1,0-1.19A2.25,2.25,0,0,1,55.77,26.6Z"/><path class="cls-4" d="M55.94,27.45a2.27,2.27,0,0,1-2.06,0,.68.68,0,0,1-.41-.65c-.29.32-.21.72.25,1a2.25,2.25,0,0,0,2.05,0,.74.74,0,0,0,.42-.54A1.29,1.29,0,0,1,55.94,27.45Z"/><path class="cls-2" d="M49.35,19.39a.45.45,0,0,1,0,.86,1.65,1.65,0,0,1-1.5,0,.45.45,0,0,1,0-.86A1.65,1.65,0,0,1,49.35,19.39Z"/><path class="cls-3" d="M49.48,19.32a.45.45,0,0,1,0,.86,1.65,1.65,0,0,1-1.5,0,.45.45,0,0,1,0-.86A1.65,1.65,0,0,1,49.48,19.32Z"/><path class="cls-4" d="M49.6,19.94a1.65,1.65,0,0,1-1.5,0,.5.5,0,0,1-.3-.47c-.21.23-.15.52.18.71a1.65,1.65,0,0,0,1.5,0,.52.52,0,0,0,.3-.39A1,1,0,0,1,49.6,19.94Z"/><path class="cls-2" d="M44.69,9.84a.45.45,0,0,1,0,.86,1.65,1.65,0,0,1-1.5,0,.45.45,0,0,1,0-.86A1.65,1.65,0,0,1,44.69,9.84Z"/><path class="cls-3" d="M44.82,9.76a.46.46,0,0,1,0,.87,1.65,1.65,0,0,1-1.5,0,.46.46,0,0,1,0-.87A1.72,1.72,0,0,1,44.82,9.76Z"/><path class="cls-4" d="M44.94,10.38a1.65,1.65,0,0,1-1.5,0,.5.5,0,0,1-.3-.47c-.21.23-.15.53.18.72a1.65,1.65,0,0,0,1.5,0,.52.52,0,0,0,.3-.39A.66.66,0,0,1,44.94,10.38Z"/><path class="cls-2" d="M32.37,15.3a.45.45,0,0,1,.1.85,1.64,1.64,0,0,1-1.49.17.45.45,0,0,1-.1-.85A1.61,1.61,0,0,1,32.37,15.3Z"/><path class="cls-3" d="M32.49,15.21c.44.19.48.57.1.86a1.67,1.67,0,0,1-1.49.17c-.43-.19-.48-.57-.09-.86A1.65,1.65,0,0,1,32.49,15.21Z"/><path class="cls-4" d="M32.68,15.81A1.62,1.62,0,0,1,31.2,16a.49.49,0,0,1-.36-.43c-.18.25-.09.54.26.69a1.67,1.67,0,0,0,1.49-.17.54.54,0,0,0,.26-.43A.69.69,0,0,1,32.68,15.81Z"/><path class="cls-2" d="M35.18,6.66c.46.1.59.46.27.82A1.66,1.66,0,0,1,34,8c-.46-.09-.59-.46-.27-.82A1.66,1.66,0,0,1,35.18,6.66Z"/><path class="cls-3" d="M35.28,6.56c.47.09.59.46.28.81a1.64,1.64,0,0,1-1.42.48c-.47-.09-.59-.46-.28-.82A1.63,1.63,0,0,1,35.28,6.56Z"/><path class="cls-4" d="M35.59,7.1a1.63,1.63,0,0,1-1.42.48c-.25,0-.4-.18-.43-.35-.13.29,0,.54.4.62a1.64,1.64,0,0,0,1.42-.48.54.54,0,0,0,.16-.46A.72.72,0,0,1,35.59,7.1Z"/><path class="cls-2" d="M17.51,26.19c.47.08.61.44.31.81a1.64,1.64,0,0,1-1.4.53c-.47-.07-.61-.44-.31-.81A1.67,1.67,0,0,1,17.51,26.19Z"/><path class="cls-3" d="M17.61,26.08c.47.07.61.44.31.81a1.67,1.67,0,0,1-1.4.53c-.47-.08-.61-.44-.31-.81A1.64,1.64,0,0,1,17.61,26.08Z"/><path class="cls-4" d="M17.94,26.61a1.66,1.66,0,0,1-1.39.54.51.51,0,0,1-.46-.34c-.11.3.05.55.43.61a1.67,1.67,0,0,0,1.4-.53.56.56,0,0,0,.14-.48A.71.71,0,0,1,17.94,26.61Z"/><path class="cls-2" d="M30.5,35.92a.45.45,0,0,1,0,.86,1.65,1.65,0,0,1-1.5,0,.45.45,0,0,1,0-.86A1.65,1.65,0,0,1,30.5,35.92Z"/><path class="cls-3" d="M30.63,35.85a.45.45,0,0,1,0,.86,1.65,1.65,0,0,1-1.5,0,.45.45,0,0,1,0-.86A1.65,1.65,0,0,1,30.63,35.85Z"/><path class="cls-4" d="M30.75,36.47a1.65,1.65,0,0,1-1.5,0A.5.5,0,0,1,29,36c-.21.23-.15.52.18.71a1.65,1.65,0,0,0,1.5,0,.52.52,0,0,0,.3-.39A1,1,0,0,1,30.75,36.47Z"/><path class="cls-2" d="M23.73,22.28c.47.08.6.45.29.81a1.71,1.71,0,0,1-1.42.5c-.47-.09-.59-.46-.28-.82A1.64,1.64,0,0,1,23.73,22.28Z"/><path class="cls-3" d="M23.83,22.17c.47.08.6.45.29.81a1.71,1.71,0,0,1-1.42.5.46.46,0,0,1-.28-.82A1.64,1.64,0,0,1,23.83,22.17Z"/><path class="cls-4" d="M24.15,22.71a1.68,1.68,0,0,1-1.41.5.51.51,0,0,1-.45-.35c-.12.29,0,.54.41.62a1.71,1.71,0,0,0,1.42-.5.52.52,0,0,0,.15-.47A.53.53,0,0,1,24.15,22.71Z"/><path class="cls-2" d="M42.57,31.28a.46.46,0,0,1,0,.87,1.7,1.7,0,0,1-1.49,0,.46.46,0,0,1,0-.87A1.63,1.63,0,0,1,42.57,31.28Z"/><ellipse class="cls-3" cx="41.96" cy="31.64" rx="1.06" ry="0.61"/><path class="cls-4" d="M42.83,31.83a1.65,1.65,0,0,1-1.5,0,.5.5,0,0,1-.3-.47c-.21.23-.16.52.18.72a1.72,1.72,0,0,0,1.5,0,.55.55,0,0,0,.3-.4A.65.65,0,0,1,42.83,31.83Z"/><path class="cls-2" d="M30.43,42.17a.46.46,0,0,1,0,.87,1.63,1.63,0,0,1-1.49,0,.46.46,0,0,1,0-.87A1.7,1.7,0,0,1,30.43,42.17Z"/><path class="cls-3" d="M30.56,42.1a.46.46,0,0,1,0,.87,1.63,1.63,0,0,1-1.49,0,.46.46,0,0,1,0-.87A1.63,1.63,0,0,1,30.56,42.1Z"/><path class="cls-4" d="M30.68,42.72a1.63,1.63,0,0,1-1.49,0,.51.51,0,0,1-.31-.47c-.21.23-.15.52.19.72a1.63,1.63,0,0,0,1.49,0,.57.57,0,0,0,.31-.39A.72.72,0,0,1,30.68,42.72Z"/><path class="cls-2" d="M32.48,48.4a.46.46,0,0,1,0,.87,1.7,1.7,0,0,1-1.49,0,.46.46,0,0,1,0-.87A1.63,1.63,0,0,1,32.48,48.4Z"/><path class="cls-3" d="M32.61,48.33a.46.46,0,0,1,0,.87,1.7,1.7,0,0,1-1.49,0,.46.46,0,0,1,0-.87A1.63,1.63,0,0,1,32.61,48.33Z"/><path class="cls-4" d="M32.73,49a1.63,1.63,0,0,1-1.49,0,.51.51,0,0,1-.31-.47c-.21.23-.15.52.19.72a1.7,1.7,0,0,0,1.49,0,.56.56,0,0,0,.31-.4A.58.58,0,0,1,32.73,49Z"/><path class="cls-2" d="M23.27,44.53a.46.46,0,0,1,0,.87,1.72,1.72,0,0,1-1.5,0,.46.46,0,0,1,0-.87A1.65,1.65,0,0,1,23.27,44.53Z"/><path class="cls-3" d="M23.4,44.46a.46.46,0,0,1,0,.87,1.72,1.72,0,0,1-1.5,0,.46.46,0,0,1,0-.87A1.65,1.65,0,0,1,23.4,44.46Z"/><path class="cls-4" d="M23.52,45.08a1.63,1.63,0,0,1-1.49,0,.49.49,0,0,1-.31-.47c-.21.23-.15.52.18.72a1.72,1.72,0,0,0,1.5,0,.52.52,0,0,0,.3-.4A.45.45,0,0,1,23.52,45.08Z"/><path class="cls-2" d="M18.52,37.22c.47,0,.67.32.44.74a1.64,1.64,0,0,1-1.29.76c-.48,0-.67-.32-.44-.74A1.62,1.62,0,0,1,18.52,37.22Z"/><path class="cls-3" d="M18.59,37.09c.48,0,.68.32.45.74a1.67,1.67,0,0,1-1.29.77c-.48,0-.68-.33-.44-.75A1.64,1.64,0,0,1,18.59,37.09Z"/><path class="cls-4" d="M19,37.56a1.63,1.63,0,0,1-1.28.76.48.48,0,0,1-.5-.25c-.07.31.13.53.52.53A1.67,1.67,0,0,0,19,37.83a.56.56,0,0,0,.06-.49A.79.79,0,0,1,19,37.56Z"/><path class="cls-2" d="M63.15,22.3a.46.46,0,0,1,0,.87,1.72,1.72,0,0,1-1.5,0,.46.46,0,0,1,0-.87A1.65,1.65,0,0,1,63.15,22.3Z"/><path class="cls-3" d="M63.28,22.23a.46.46,0,0,1,0,.87,1.65,1.65,0,0,1-1.5,0,.46.46,0,0,1,0-.87A1.65,1.65,0,0,1,63.28,22.23Z"/><path class="cls-4" d="M63.4,22.85a1.65,1.65,0,0,1-1.5,0,.5.5,0,0,1-.3-.47c-.21.23-.15.52.18.72a1.65,1.65,0,0,0,1.5,0,.52.52,0,0,0,.3-.4A.54.54,0,0,1,63.4,22.85Z"/><path class="cls-2" d="M65.8,9.26a.45.45,0,0,1,0,.86,1.65,1.65,0,0,1-1.5,0,.45.45,0,0,1,0-.86A1.65,1.65,0,0,1,65.8,9.26Z"/><path class="cls-3" d="M65.93,9.19c.42.24.42.62,0,.86a1.63,1.63,0,0,1-1.49,0c-.42-.24-.42-.62,0-.86A1.63,1.63,0,0,1,65.93,9.19Z"/><path class="cls-4" d="M66.05,9.81a1.63,1.63,0,0,1-1.49,0,.49.49,0,0,1-.31-.47c-.21.23-.15.52.19.71a1.63,1.63,0,0,0,1.49,0,.52.52,0,0,0,.3-.39A.71.71,0,0,1,66.05,9.81Z"/><path class="cls-2" d="M81,18.89c.17.45-.07.75-.54.68a1.67,1.67,0,0,1-1.17-.94c-.18-.44.07-.75.54-.67A1.67,1.67,0,0,1,81,18.89Z"/><path class="cls-3" d="M81.15,18.92c.18.44-.06.75-.53.67a1.63,1.63,0,0,1-1.17-.93c-.18-.44.06-.75.54-.68A1.65,1.65,0,0,1,81.15,18.92Z"/><path class="cls-4" d="M80.86,19.48a1.66,1.66,0,0,1-1.17-.94.5.5,0,0,1,.06-.55c-.31,0-.44.31-.3.67a1.63,1.63,0,0,0,1.17.93.53.53,0,0,0,.48-.11Z"/><path class="cls-2" d="M74,29.89a.45.45,0,0,1,0,.86,1.65,1.65,0,0,1-1.5,0,.45.45,0,0,1,0-.86A1.65,1.65,0,0,1,74,29.89Z"/><path class="cls-3" d="M74.08,29.82a.45.45,0,0,1,0,.86,1.65,1.65,0,0,1-1.5,0,.45.45,0,0,1,0-.86A1.65,1.65,0,0,1,74.08,29.82Z"/><path class="cls-4" d="M74.2,30.44a1.65,1.65,0,0,1-1.5,0,.5.5,0,0,1-.3-.47c-.21.23-.15.52.18.71a1.65,1.65,0,0,0,1.5,0,.52.52,0,0,0,.3-.39A1,1,0,0,1,74.2,30.44Z"/><path class="cls-2" d="M83.88,39.36c.42.24.42.63,0,.86a1.63,1.63,0,0,1-1.49,0c-.42-.23-.42-.62,0-.86A1.63,1.63,0,0,1,83.88,39.36Z"/><path class="cls-3" d="M84,39.29a.45.45,0,0,1,0,.86,1.65,1.65,0,0,1-1.5,0,.45.45,0,0,1,0-.86A1.65,1.65,0,0,1,84,39.29Z"/><path class="cls-4" d="M84.14,39.91a1.65,1.65,0,0,1-1.5,0,.5.5,0,0,1-.3-.47c-.21.23-.16.52.18.71a1.65,1.65,0,0,0,1.5,0,.53.53,0,0,0,.3-.39A.9.9,0,0,1,84.14,39.91Z"/><path class="cls-2" d="M75,18.36a.46.46,0,0,1-.34.8,1.66,1.66,0,0,1-1.38-.6c-.28-.38-.13-.74.35-.79A1.64,1.64,0,0,1,75,18.36Z"/><path class="cls-3" d="M75.19,18.35c.28.38.13.74-.34.79a1.66,1.66,0,0,1-1.38-.59c-.28-.38-.13-.74.35-.79A1.65,1.65,0,0,1,75.19,18.35Z"/><path class="cls-4" d="M75.06,19a1.66,1.66,0,0,1-1.38-.6.51.51,0,0,1-.09-.55c-.29.13-.35.42-.12.73a1.66,1.66,0,0,0,1.38.59.52.52,0,0,0,.43-.24A.71.71,0,0,1,75.06,19Z"/><path class="cls-2" d="M75.18,10.66c.24.41.06.75-.42.76a1.65,1.65,0,0,1-1.31-.72c-.25-.41-.06-.75.42-.76A1.66,1.66,0,0,1,75.18,10.66Z"/><path class="cls-3" d="M75.33,10.66c.24.41.06.75-.42.76a1.65,1.65,0,0,1-1.31-.72c-.25-.41-.06-.75.42-.76A1.69,1.69,0,0,1,75.33,10.66Z"/><path class="cls-4" d="M75.13,11.27a1.7,1.7,0,0,1-1.31-.73.52.52,0,0,1,0-.56c-.29.1-.38.39-.18.72a1.65,1.65,0,0,0,1.31.72.54.54,0,0,0,.46-.2A.85.85,0,0,1,75.13,11.27Z"/><path class="cls-2" d="M86.41,32.68c.22.42,0,.75-.47.73a1.66,1.66,0,0,1-1.26-.8c-.22-.42,0-.75.46-.73A1.68,1.68,0,0,1,86.41,32.68Z"/><path class="cls-3" d="M86.56,32.69c.22.42,0,.75-.47.73a1.66,1.66,0,0,1-1.26-.8c-.22-.42,0-.75.46-.73A1.68,1.68,0,0,1,86.56,32.69Z"/><path class="cls-4" d="M86.33,33.28a1.66,1.66,0,0,1-1.27-.8.49.49,0,0,1,0-.56c-.3.08-.41.36-.23.7a1.66,1.66,0,0,0,1.26.8.55.55,0,0,0,.47-.17A.8.8,0,0,1,86.33,33.28Z"/><path class="cls-2" d="M91.91,39.7c.48,0,.69.29.48.72a1.67,1.67,0,0,1-1.26.82c-.47,0-.68-.3-.47-.72A1.61,1.61,0,0,1,91.91,39.7Z"/><path class="cls-3" d="M92,39.57c.48,0,.69.29.48.72a1.7,1.7,0,0,1-1.25.82c-.48,0-.69-.3-.48-.72A1.64,1.64,0,0,1,92,39.57Z"/><path class="cls-4" d="M92.42,40a1.66,1.66,0,0,1-1.25.82.51.51,0,0,1-.51-.23c0,.31.16.52.55.5a1.7,1.7,0,0,0,1.25-.82.6.6,0,0,0,0-.5A1.27,1.27,0,0,1,92.42,40Z"/><path class="cls-2" d="M93.38,25.39c.22.42,0,.75-.47.73a1.66,1.66,0,0,1-1.26-.8c-.22-.42,0-.75.46-.73A1.68,1.68,0,0,1,93.38,25.39Z"/><path class="cls-3" d="M93.52,25.4c.23.43,0,.75-.46.73a1.64,1.64,0,0,1-1.26-.8c-.22-.42,0-.75.46-.73A1.65,1.65,0,0,1,93.52,25.4Z"/><path class="cls-4" d="M93.29,26a1.66,1.66,0,0,1-1.26-.8.49.49,0,0,1,0-.56c-.31.08-.41.36-.23.7a1.64,1.64,0,0,0,1.26.8.53.53,0,0,0,.47-.17A.88.88,0,0,1,93.29,26Z"/><path class="cls-2" d="M59.88,14.77a.63.63,0,0,1,0,1.19,2.33,2.33,0,0,1-2.06,0,.63.63,0,0,1,0-1.19A2.27,2.27,0,0,1,59.88,14.77Z"/><path class="cls-3" d="M60.06,14.67a.63.63,0,0,1,0,1.19,2.25,2.25,0,0,1-2.05,0,.63.63,0,0,1,0-1.19A2.31,2.31,0,0,1,60.06,14.67Z"/><path class="cls-4" d="M60.23,15.52a2.27,2.27,0,0,1-2.06,0,.68.68,0,0,1-.42-.64c-.29.31-.21.71.26,1a2.25,2.25,0,0,0,2.05,0,.74.74,0,0,0,.42-.54A1.29,1.29,0,0,1,60.23,15.52Z"/><path class="cls-2" d="M40.17,25.61c.57.33.57.86,0,1.18a2.27,2.27,0,0,1-2.06,0,.62.62,0,0,1,0-1.18A2.27,2.27,0,0,1,40.17,25.61Z"/><path class="cls-3" d="M40.35,25.51a.63.63,0,0,1,0,1.19,2.25,2.25,0,0,1-2.05,0,.63.63,0,0,1,0-1.19A2.25,2.25,0,0,1,40.35,25.51Z"/><path class="cls-4" d="M40.52,26.36a2.27,2.27,0,0,1-2.06,0,.69.69,0,0,1-.42-.65c-.29.32-.21.72.26,1a2.25,2.25,0,0,0,2.05,0,.74.74,0,0,0,.42-.54A1.29,1.29,0,0,1,40.52,26.36Z"/><path class="cls-2" d="M40.17,46.36a.63.63,0,0,1,0,1.19,2.27,2.27,0,0,1-2.06,0,.63.63,0,0,1,0-1.19A2.27,2.27,0,0,1,40.17,46.36Z"/><path class="cls-3" d="M40.35,46.27c.57.32.57.85,0,1.18a2.25,2.25,0,0,1-2.05,0c-.57-.33-.57-.86,0-1.18A2.25,2.25,0,0,1,40.35,46.27Z"/><path class="cls-4" d="M40.52,47.12a2.33,2.33,0,0,1-2.06,0,.7.7,0,0,1-.42-.65c-.29.32-.21.72.26,1a2.25,2.25,0,0,0,2.05,0,.74.74,0,0,0,.42-.54A1.32,1.32,0,0,1,40.52,47.12Z"/><path class="cls-2" d="M58.33,38.15a.63.63,0,0,1,0,1.19,2.25,2.25,0,0,1-2,0,.63.63,0,0,1,0-1.19A2.25,2.25,0,0,1,58.33,38.15Z"/><path class="cls-3" d="M58.52,38.06a.62.62,0,0,1,0,1.18,2.27,2.27,0,0,1-2.06,0c-.57-.33-.57-.86,0-1.18A2.27,2.27,0,0,1,58.52,38.06Z"/><path class="cls-4" d="M58.68,38.91a2.31,2.31,0,0,1-2,0,.69.69,0,0,1-.42-.65c-.29.32-.21.72.25,1a2.27,2.27,0,0,0,2.06,0,.73.73,0,0,0,.41-.54A.75.75,0,0,1,58.68,38.91Z"/><path class="cls-2" d="M75.75,22.9a.63.63,0,0,1,0,1.19,2.33,2.33,0,0,1-2.06,0,.63.63,0,0,1,0-1.19A2.27,2.27,0,0,1,75.75,22.9Z"/><path class="cls-3" d="M75.93,22.8a.63.63,0,0,1,0,1.19,2.27,2.27,0,0,1-2.06,0,.63.63,0,0,1,0-1.19A2.33,2.33,0,0,1,75.93,22.8Z"/><path class="cls-4" d="M76.09,23.65a2.25,2.25,0,0,1-2,0,.68.68,0,0,1-.42-.64c-.29.31-.21.71.25,1a2.27,2.27,0,0,0,2.06,0,.73.73,0,0,0,.41-.54A.88.88,0,0,1,76.09,23.65Z"/><path class="cls-2" d="M79.62,34.24c.57.33.57.86,0,1.18a2.27,2.27,0,0,1-2.06,0,.62.62,0,0,1,0-1.18A2.27,2.27,0,0,1,79.62,34.24Z"/><path class="cls-3" d="M79.8,34.14a.63.63,0,0,1,0,1.19,2.25,2.25,0,0,1-2,0,.63.63,0,0,1,0-1.19A2.25,2.25,0,0,1,79.8,34.14Z"/><path class="cls-4" d="M80,35a2.27,2.27,0,0,1-2.06,0,.69.69,0,0,1-.42-.65c-.29.32-.21.72.26,1a2.25,2.25,0,0,0,2,0,.74.74,0,0,0,.42-.54A1.29,1.29,0,0,1,80,35Z"/><path class="cls-2" d="M70.4,39.16a.63.63,0,0,1,0,1.19,2.27,2.27,0,0,1-2.06,0,.63.63,0,0,1,0-1.19A2.33,2.33,0,0,1,70.4,39.16Z"/><path class="cls-3" d="M70.58,39.07c.57.33.57.86,0,1.18a2.27,2.27,0,0,1-2.06,0,.62.62,0,0,1,0-1.18A2.27,2.27,0,0,1,70.58,39.07Z"/><path class="cls-4" d="M70.74,39.92a2.25,2.25,0,0,1-2,0,.7.7,0,0,1-.42-.65c-.29.32-.21.72.25,1a2.27,2.27,0,0,0,2.06,0,.77.77,0,0,0,.42-.53A1.11,1.11,0,0,1,70.74,39.92Z"/><path class="cls-2" d="M69,49.27a.63.63,0,0,1,0,1.19,2.33,2.33,0,0,1-2.06,0,.63.63,0,0,1,0-1.19A2.27,2.27,0,0,1,69,49.27Z"/><path class="cls-3" d="M69.22,49.17a.63.63,0,0,1,0,1.19,2.25,2.25,0,0,1-2,0,.63.63,0,0,1,0-1.19A2.31,2.31,0,0,1,69.22,49.17Z"/><path class="cls-4" d="M69.39,50a2.27,2.27,0,0,1-2.06,0,.68.68,0,0,1-.42-.64c-.29.31-.21.71.26,1a2.25,2.25,0,0,0,2,0,.74.74,0,0,0,.42-.54A1.29,1.29,0,0,1,69.39,50Z"/><path class="cls-2" d="M84.2,16.37c.41.52.21,1-.44,1.1a2.24,2.24,0,0,1-1.91-.76c-.4-.52-.2-1,.45-1.1A2.28,2.28,0,0,1,84.2,16.37Z"/><path class="cls-3" d="M84.41,16.35c.4.52.21,1-.44,1.1a2.26,2.26,0,0,1-1.91-.76c-.41-.52-.21-1,.44-1.1A2.27,2.27,0,0,1,84.41,16.35Z"/><path class="cls-4" d="M84.24,17.2a2.28,2.28,0,0,1-1.9-.76.69.69,0,0,1-.15-.76c-.39.19-.46.59-.13,1a2.26,2.26,0,0,0,1.91.76.74.74,0,0,0,.58-.34A1,1,0,0,1,84.24,17.2Z"/><path class="cls-2" d="M59,6.66a.63.63,0,0,1,0,1.19,2.25,2.25,0,0,1-2.05,0,.63.63,0,0,1,0-1.19A2.31,2.31,0,0,1,59,6.66Z"/><path class="cls-3" d="M59.2,6.57c.57.33.57.86,0,1.18a2.25,2.25,0,0,1-2.05,0c-.57-.32-.57-.85,0-1.18A2.25,2.25,0,0,1,59.2,6.57Z"/><path class="cls-4" d="M59.37,7.42a2.27,2.27,0,0,1-2.06,0,.7.7,0,0,1-.42-.65c-.29.32-.21.72.26,1a2.25,2.25,0,0,0,2.05,0,.74.74,0,0,0,.42-.53A1.29,1.29,0,0,1,59.37,7.42Z"/><path class="cls-2" d="M20.15,17.16a.81.81,0,0,1,.35,1.5,2.92,2.92,0,0,1-2.6.61c-.82-.24-1-.92-.35-1.5A3,3,0,0,1,20.15,17.16Z"/><path class="cls-3" d="M20.35,17c.82.24,1,.91.35,1.5a3,3,0,0,1-2.6.61.81.81,0,0,1-.35-1.5A2.92,2.92,0,0,1,20.35,17Z"/><path class="cls-4" d="M20.81,18a2.92,2.92,0,0,1-2.6.61.89.89,0,0,1-.72-.69c-.27.48,0,1,.61,1.17a3,3,0,0,0,2.6-.61,1,1,0,0,0,.37-.81A1.25,1.25,0,0,1,20.81,18Z"/><path class="cls-2" d="M7.29,27.3c.45-.23.79,0,.76.5a1.68,1.68,0,0,1-.85,1.31c-.44.23-.79,0-.76-.49A1.77,1.77,0,0,1,7.29,27.3Z"/><path class="cls-3" d="M7.31,27.15c.44-.23.78,0,.76.49A1.77,1.77,0,0,1,7.22,29c-.45.23-.79,0-.77-.49A1.75,1.75,0,0,1,7.31,27.15Z"/><path class="cls-4" d="M7.92,27.39a1.74,1.74,0,0,1-.85,1.32.52.52,0,0,1-.59,0c.08.32.37.43.74.25a1.77,1.77,0,0,0,.85-1.32.56.56,0,0,0-.18-.49A.61.61,0,0,1,7.92,27.39Z"/><path class="cls-2" d="M65.69,31.54c.74.43.74,1.12,0,1.54a2.92,2.92,0,0,1-2.67,0c-.74-.42-.74-1.11,0-1.54A2.92,2.92,0,0,1,65.69,31.54Z"/><path class="cls-3" d="M65.93,31.42a.82.82,0,0,1,0,1.54,3,3,0,0,1-2.68,0,.82.82,0,0,1,0-1.54A3,3,0,0,1,65.93,31.42Z"/><path class="cls-4" d="M66.14,32.52a2.92,2.92,0,0,1-2.67,0,.88.88,0,0,1-.54-.84c-.38.41-.28.93.32,1.28a3,3,0,0,0,2.68,0,1,1,0,0,0,.54-.7A1.52,1.52,0,0,1,66.14,32.52Z"/><path class="cls-2" d="M70.22,12.36a.82.82,0,0,1,0,1.54,3,3,0,0,1-2.68,0,.82.82,0,0,1,0-1.54A3,3,0,0,1,70.22,12.36Z"/><path class="cls-3" d="M70.45,12.24c.74.42.74,1.11,0,1.54a2.92,2.92,0,0,1-2.67,0c-.74-.43-.74-1.12,0-1.54A2.92,2.92,0,0,1,70.45,12.24Z"/><path class="cls-4" d="M70.67,13.34a2.92,2.92,0,0,1-2.67,0,.91.91,0,0,1-.55-.84c-.37.41-.27.93.33,1.28a2.92,2.92,0,0,0,2.67,0,1,1,0,0,0,.54-.7A1.44,1.44,0,0,1,70.67,13.34Z"/><path class="cls-2" d="M86.54,25.56c.47.71.16,1.33-.69,1.38a3,3,0,0,1-2.39-1.2c-.46-.71-.16-1.33.7-1.38A3,3,0,0,1,86.54,25.56Z"/><path class="cls-3" d="M86.81,25.55c.47.71.16,1.33-.69,1.38a2.94,2.94,0,0,1-2.39-1.2c-.47-.71-.16-1.32.69-1.37A3,3,0,0,1,86.81,25.55Z"/><path class="cls-4" d="M86.51,26.64a3,3,0,0,1-2.39-1.2.9.9,0,0,1-.11-1c-.52.19-.66.71-.28,1.28a2.94,2.94,0,0,0,2.39,1.2,1,1,0,0,0,.8-.38A1.55,1.55,0,0,1,86.51,26.64Z"/><path class="cls-2" d="M95.13,33.5c.28.66-.07,1.12-.78,1a2.48,2.48,0,0,1-1.78-1.35c-.28-.65.07-1.11.78-1A2.45,2.45,0,0,1,95.13,33.5Z"/><path class="cls-3" d="M95.35,33.54c.28.65-.07,1.12-.78,1a2.48,2.48,0,0,1-1.78-1.35c-.28-.66.07-1.12.78-1A2.46,2.46,0,0,1,95.35,33.54Z"/><path class="cls-4" d="M94.94,34.38A2.43,2.43,0,0,1,93.16,33a.77.77,0,0,1,.06-.84c-.46.09-.65.49-.43,1a2.48,2.48,0,0,0,1.78,1.35.81.81,0,0,0,.72-.2A1,1,0,0,1,94.94,34.38Z"/><path class="cls-2" d="M47,40a.82.82,0,0,1,0,1.54,2.92,2.92,0,0,1-2.67,0,.81.81,0,0,1,0-1.54A2.92,2.92,0,0,1,47,40Z"/><path class="cls-3" d="M47.22,39.9a.82.82,0,0,1,0,1.55,3,3,0,0,1-2.67,0,.82.82,0,0,1,0-1.55A3,3,0,0,1,47.22,39.9Z"/><path class="cls-4" d="M47.44,41a3,3,0,0,1-2.67,0,.88.88,0,0,1-.54-.84c-.38.41-.28.93.32,1.28a3,3,0,0,0,2.67,0,1,1,0,0,0,.54-.7A1.24,1.24,0,0,1,47.44,41Z"/><path class="cls-2" d="M60.25,44.28a.82.82,0,0,1,0,1.55,3,3,0,0,1-2.67,0,.82.82,0,0,1,0-1.55A3,3,0,0,1,60.25,44.28Z"/><path class="cls-3" d="M60.49,44.16a.82.82,0,0,1,0,1.54,2.92,2.92,0,0,1-2.67,0c-.74-.43-.74-1.12,0-1.54A2.92,2.92,0,0,1,60.49,44.16Z"/><path class="cls-4" d="M60.7,45.26a2.92,2.92,0,0,1-2.67,0,.9.9,0,0,1-.54-.84c-.38.41-.27.93.33,1.28a2.92,2.92,0,0,0,2.67,0A1,1,0,0,0,61,45,1.52,1.52,0,0,1,60.7,45.26Z"/></g></g></svg>