<svg xmlns="http://www.w3.org/2000/svg" xmlns:xlink="http://www.w3.org/1999/xlink" viewBox="0 0 105.51 69.5"><defs><style>.cls-1{fill:url(#radial-gradient);}.cls-2{fill:#f7be55;}.cls-3{fill:#f5c365;}.cls-4{fill:#f3c775;}.cls-5{fill:#f1cc84;}.cls-6{fill:#efd094;}.cls-7{fill:#f0d299;}.cls-8{fill:#f2d59d;}.cls-9{fill:#f3d7a2;}.cls-10{fill:#f4daa7;}.cls-11{fill:#f5dcab;}.cls-12{fill:#f7dfb0;}.cls-13{fill:#f8e1b4;}.cls-14{fill:#f9e4b9;}.cls-15{fill:#fae6be;}.cls-16{fill:#fce9c2;}.cls-17{fill:#fdebc7;}</style><radialGradient id="radial-gradient" cx="53.08" cy="-5.58" r="75.06" gradientUnits="userSpaceOnUse"><stop offset="0.87" stop-color="#f7be55"/><stop offset="0.93" stop-color="#e99a3f"/><stop offset="0.95" stop-color="#e28537"/><stop offset="1" stop-color="#c4672c"/></radialGradient></defs><title>Asset 6</title><g id="Layer_2" data-name="Layer 2"><g id="Ñëîé_1" data-name="Ñëîé 1"><path class="cls-1" d="M52.75,69.5c13.4,0,26.8-3,37-8.86s14.08-13.47,15.33-21.37a25.51,25.51,0,0,0,0-9.05C103.66,22.63,100,14.75,89.77,8.85S66.15,0,52.75,0,26,3,15.74,8.85,1.85,22.63.4,30.22a26,26,0,0,0,0,9.05c1.26,7.9,5.11,15.47,15.34,21.37s23.62,8.86,37,8.86Z"/><path class="cls-2" d="M52.75,0C39.35,0,26,3,15.74,8.85S.4,22.49.4,30.22,5.51,45.69,15.74,51.6s23.62,8.85,37,8.85,26.8-3,37-8.85S105.1,38,105.1,30.22,100,14.75,89.77,8.85,66.15,0,52.75,0Z"/><path class="cls-3" d="M52.75.43c-13.2,0-26.41,2.91-36.48,8.73S1.16,22.6,1.16,30.22s5,15.25,15.11,21.07S39.55,60,52.75,60s26.41-2.91,36.49-8.73,15.11-13.44,15.11-21.07S99.32,15,89.24,9.16,66,.43,52.75.43Z"/><path class="cls-4" d="M52.75.87c-13,0-26,2.86-35.95,8.6S1.91,22.71,1.91,30.22s5,15,14.89,20.76,22.94,8.6,36,8.6,26-2.86,36-8.6S103.6,37.74,103.6,30.22s-5-15-14.89-20.75S65.77.87,52.75.87Z"/><path class="cls-5" d="M52.75,1.3c-12.82,0-25.64,2.83-35.42,8.47S2.66,22.82,2.66,30.22,7.55,45,17.33,50.68s22.6,8.47,35.42,8.47,25.64-2.83,35.43-8.47,14.67-13,14.67-20.46S98,15.42,88.18,9.77,65.58,1.3,52.75,1.3Z"/><path class="cls-6" d="M52.75,1.74c-12.63,0-25.25,2.78-34.89,8.34S3.41,22.93,3.41,30.22,8.23,44.81,17.86,50.37s22.27,8.34,34.89,8.34S78,55.93,87.65,50.37,102.1,37.52,102.1,30.22,97.28,15.64,87.65,10.08,65.38,1.73,52.75,1.74Z"/><path class="cls-6" d="M52.75,2.05c-12.49,0-25,2.75-34.51,8.25S4,23,4,30.22,8.71,44.65,18.24,50.15s22,8.25,34.51,8.25,25-2.75,34.51-8.25,14.3-12.71,14.3-19.93S96.79,15.8,87.26,10.3,65.24,2.05,52.75,2.05Z"/><path class="cls-7" d="M52.75,3.26c-11.9,0-23.81,2.62-32.89,7.86S6.24,23.24,6.24,30.11s4.54,13.75,13.62,19S40.85,57,52.75,57s23.81-2.62,32.9-7.86S99.27,37,99.27,30.12s-4.54-13.75-13.62-19S64.66,3.26,52.75,3.26Z"/><path class="cls-8" d="M52.75,4.47C41.43,4.47,30.11,7,21.48,12S8.52,23.47,8.52,30s4.32,13.08,13,18.06,20,7.48,31.27,7.48S75.39,53.05,84,48.06,97,36.54,97,30,92.67,16.93,84,12,64.07,4.47,52.75,4.47Z"/><path class="cls-9" d="M52.75,5.68C42,5.68,31.28,8,23.09,12.77S10.81,23.7,10.81,29.89,14.9,42.29,23.09,47,42,54.11,52.75,54.11,74.22,51.75,82.41,47,94.7,36.09,94.7,29.9,90.6,17.5,82.41,12.77,63.49,5.68,52.75,5.68Z"/><path class="cls-10" d="M52.75,6.89c-10.15,0-20.3,2.23-28,6.7S13.1,23.92,13.1,29.78,17,41.5,24.71,46s17.89,6.7,28,6.7S73.05,50.45,80.8,46s11.61-10.33,11.61-16.2S88.54,18.07,80.8,13.59,62.9,6.89,52.75,6.89Z"/><path class="cls-11" d="M52.75,8.1c-9.56,0-19.13,2.1-26.42,6.32S15.38,24.15,15.38,29.67s3.65,11,10.95,15.26,16.86,6.32,26.42,6.32,19.13-2.1,26.43-6.32S90.13,35.2,90.13,29.68s-3.65-11-10.95-15.26S62.32,8.1,52.75,8.1Z"/><path class="cls-12" d="M52.75,9.31c-9,0-18,2-24.8,5.93S17.67,24.38,17.67,29.56,21.09,39.93,28,43.89s15.83,5.93,24.8,5.93,18-2,24.81-5.93,10.28-9.14,10.28-14.33S84.41,19.2,77.56,15.24,61.73,9.31,52.75,9.31Z"/><path class="cls-13" d="M52.75,10.52c-8.39,0-16.78,1.85-23.19,5.54S20,24.61,20,29.45s3.2,9.7,9.6,13.39,14.8,5.55,23.19,5.55S69.54,46.54,76,42.84s9.6-8.54,9.6-13.38-3.2-9.7-9.6-13.4S61.15,10.52,52.75,10.52Z"/><path class="cls-14" d="M52.75,11.73c-7.81,0-15.61,1.72-21.57,5.16s-8.94,8-8.94,12.45,3,9,8.94,12.46S45,47,52.75,47s15.62-1.72,21.58-5.16,8.94-7.95,8.94-12.46-3-9-8.94-12.45S60.56,11.73,52.75,11.73Z"/><path class="cls-15" d="M52.75,12.94c-7.22,0-14.44,1.59-20,4.77s-8.27,7.35-8.27,11.53,2.75,8.34,8.27,11.52,12.73,4.77,20,4.77,14.45-1.59,20-4.77S81,33.41,81,29.24s-2.76-8.35-8.27-11.53S60,12.94,52.75,12.94Z"/><path class="cls-16" d="M52.75,14.15c-6.63,0-13.27,1.46-18.34,4.38s-7.59,6.76-7.59,10.59,2.53,7.67,7.59,10.59S46.12,44.1,52.75,44.1,66,42.64,71.1,39.71,78.69,33,78.69,29.12s-2.53-7.66-7.59-10.59S59.39,14.15,52.75,14.15Z"/><path class="cls-17" d="M52.75,15.36c-6,0-12.1,1.33-16.72,4S29.1,25.52,29.1,29s2.31,7,6.93,9.65,10.67,4,16.72,4,12.11-1.33,16.73-4S76.4,32.51,76.4,29s-2.3-7-6.92-9.66S58.81,15.36,52.75,15.36Z"/></g></g></svg>