<svg xmlns="http://www.w3.org/2000/svg" xmlns:xlink="http://www.w3.org/1999/xlink" viewBox="0 0 111.01 63.02"><defs><style>.cls-1{fill:#4f8810;}.cls-2{fill:url(#linear-gradient);}.cls-3{fill:#6c9d2c;}.cls-4{fill:#88b249;}.cls-5{fill:#a5c665;}.cls-6{fill:#c1db82;}.cls-7{fill:url(#radial-gradient);}.cls-8{fill:url(#radial-gradient-2);}.cls-9{fill:url(#radial-gradient-3);}.cls-10{fill:url(#radial-gradient-4);}.cls-11{fill:url(#radial-gradient-5);}.cls-12{fill:url(#radial-gradient-6);}.cls-13{fill:url(#radial-gradient-7);}.cls-14{fill:url(#radial-gradient-8);}.cls-15{fill:url(#radial-gradient-9);}.cls-16{fill:url(#radial-gradient-10);}.cls-17{fill:#ebfdab;}.cls-18{fill:url(#linear-gradient-2);}.cls-19{fill:url(#radial-gradient-11);}.cls-20{fill:url(#radial-gradient-12);}.cls-21{fill:url(#radial-gradient-13);}.cls-22{fill:url(#radial-gradient-14);}.cls-23{fill:url(#radial-gradient-15);}.cls-24{fill:url(#radial-gradient-16);}.cls-25{fill:url(#radial-gradient-17);}.cls-26{fill:url(#radial-gradient-18);}.cls-27{fill:url(#radial-gradient-19);}.cls-28{fill:url(#radial-gradient-20);}.cls-29{fill:url(#linear-gradient-3);}.cls-30{fill:url(#radial-gradient-21);}.cls-31{fill:url(#radial-gradient-22);}.cls-32{fill:url(#radial-gradient-23);}.cls-33{fill:url(#radial-gradient-24);}.cls-34{fill:url(#radial-gradient-25);}.cls-35{fill:url(#radial-gradient-26);}.cls-36{fill:url(#radial-gradient-27);}.cls-37{fill:url(#radial-gradient-28);}.cls-38{fill:url(#radial-gradient-29);}.cls-39{fill:url(#radial-gradient-30);}</style><linearGradient id="linear-gradient" x1="37" y1="46.06" x2="111.01" y2="46.06" gradientUnits="userSpaceOnUse"><stop offset="0" stop-color="#437c0d"/><stop offset="0.06" stop-color="#457f0e"/><stop offset="0.09" stop-color="#4b8713"/><stop offset="0.12" stop-color="#56961a"/><stop offset="0.15" stop-color="#65ab24"/><stop offset="0.17" stop-color="#79c532"/><stop offset="0.18" stop-color="#7ecc35"/><stop offset="0.19" stop-color="#6ebe2f"/><stop offset="0.2" stop-color="#58ab28"/><stop offset="0.22" stop-color="#479d22"/><stop offset="0.24" stop-color="#3c931e"/><stop offset="0.28" stop-color="#358d1c"/><stop offset="0.36" stop-color="#338b1b"/><stop offset="0.49" stop-color="#68ae26"/><stop offset="1" stop-color="#437c0d"/></linearGradient><radialGradient id="radial-gradient" cx="73.58" cy="35.4" r="27.87" gradientUnits="userSpaceOnUse"><stop offset="0" stop-color="#eeffb3"/><stop offset="1" stop-color="#def09e"/></radialGradient><radialGradient id="radial-gradient-2" cx="73.16" cy="33.56" r="22.1" gradientUnits="userSpaceOnUse"><stop offset="0" stop-color="#c1db82"/><stop offset="1" stop-color="#def09e"/></radialGradient><radialGradient id="radial-gradient-3" cx="73.16" cy="33.56" r="22.09" xlink:href="#radial-gradient-2"/><radialGradient id="radial-gradient-4" cx="73.16" cy="33.56" r="22.1" xlink:href="#radial-gradient-2"/><radialGradient id="radial-gradient-5" cx="73.16" cy="33.56" r="22.1" xlink:href="#radial-gradient-2"/><radialGradient id="radial-gradient-6" cx="73.16" cy="33.56" r="22.1" xlink:href="#radial-gradient-2"/><radialGradient id="radial-gradient-7" cx="73.16" cy="33.56" r="22.1" xlink:href="#radial-gradient-2"/><radialGradient id="radial-gradient-8" cx="73.16" cy="33.56" r="22.1" xlink:href="#radial-gradient-2"/><radialGradient id="radial-gradient-9" cx="73.16" cy="33.56" r="22.1" xlink:href="#radial-gradient-2"/><radialGradient id="radial-gradient-10" cx="73.16" cy="33.56" r="22.1" xlink:href="#radial-gradient-2"/><linearGradient id="linear-gradient-2" x1="0" y1="43.32" x2="74.01" y2="43.32" xlink:href="#linear-gradient"/><radialGradient id="radial-gradient-11" cx="36.58" cy="32.66" r="27.87" xlink:href="#radial-gradient"/><radialGradient id="radial-gradient-12" cx="36.16" cy="30.82" r="22.1" xlink:href="#radial-gradient-2"/><radialGradient id="radial-gradient-13" cx="36.16" cy="30.82" r="22.09" xlink:href="#radial-gradient-2"/><radialGradient id="radial-gradient-14" cx="36.15" cy="30.82" r="22.1" xlink:href="#radial-gradient-2"/><radialGradient id="radial-gradient-15" cx="36.15" cy="30.82" r="22.09" xlink:href="#radial-gradient-2"/><radialGradient id="radial-gradient-16" cx="36.15" cy="30.82" r="22.09" xlink:href="#radial-gradient-2"/><radialGradient id="radial-gradient-17" cx="36.15" cy="30.82" r="22.1" xlink:href="#radial-gradient-2"/><radialGradient id="radial-gradient-18" cx="36.16" cy="30.82" r="22.1" xlink:href="#radial-gradient-2"/><radialGradient id="radial-gradient-19" cx="36.16" cy="30.82" r="22.1" xlink:href="#radial-gradient-2"/><radialGradient id="radial-gradient-20" cx="36.15" cy="30.82" r="22.1" xlink:href="#radial-gradient-2"/><linearGradient id="linear-gradient-3" x1="22.03" y1="32.08" x2="96.04" y2="32.08" xlink:href="#linear-gradient"/><radialGradient id="radial-gradient-21" cx="58.61" cy="21.42" r="27.87" xlink:href="#radial-gradient"/><radialGradient id="radial-gradient-22" cx="58.19" cy="19.58" r="22.09" xlink:href="#radial-gradient-2"/><radialGradient id="radial-gradient-23" cx="58.18" cy="19.58" r="22.1" xlink:href="#radial-gradient-2"/><radialGradient id="radial-gradient-24" cx="58.19" cy="19.58" r="22.09" xlink:href="#radial-gradient-2"/><radialGradient id="radial-gradient-25" cx="58.19" cy="19.58" r="22.1" xlink:href="#radial-gradient-2"/><radialGradient id="radial-gradient-26" cx="58.19" cy="19.58" r="22.1" xlink:href="#radial-gradient-2"/><radialGradient id="radial-gradient-27" cx="58.19" cy="19.58" r="22.1" xlink:href="#radial-gradient-2"/><radialGradient id="radial-gradient-28" cx="58.18" cy="19.58" r="22.1" xlink:href="#radial-gradient-2"/><radialGradient id="radial-gradient-29" cx="58.19" cy="19.58" r="22.1" xlink:href="#radial-gradient-2"/><radialGradient id="radial-gradient-30" cx="58.19" cy="19.58" r="22.1" xlink:href="#radial-gradient-2"/></defs><title>Asset 13</title><g id="Layer_2" data-name="Layer 2"><g id="Ñëîé_1" data-name="Ñëîé 1"><path class="cls-1" d="M46.66,19c-5.8,3.3-9.37,6.81-9.63,9.14s1.54,9.15,1.55,11.33,4.56,9.58,11.7,13,19.87,5.41,28.9,3.87,17.64-6.4,23.66-9.68,9.89-14.36,7.4-18.08-12.56-11.72-22-13.41-27.36-1.2-30.63-.5A49.62,49.62,0,0,0,46.66,19Z"/><path class="cls-2" d="M111,31.43c.15,4.85-3.31,12.55-8.16,15.19-6,3.28-14.62,8.14-23.66,9.68s-21.76-.44-28.9-3.87-11.69-10.83-11.7-13C38.57,37.5,37.17,32,37,29.1h0v5.18c-.26,2.33,1.54,9.15,1.55,11.33s4.56,9.58,11.7,13S70.15,64,79.18,62.49s17.64-6.41,23.66-9.68c4.69-2.56,8.08-9.85,8.17-14.7V31.44Z"/><path class="cls-3" d="M39,38.46c-.12-1.8-1-5.77-1.3-8.41a7.36,7.36,0,0,1,0-2.28c.48-2.19,3.78-5.44,9.28-8.57l.29-.17a48.93,48.93,0,0,1,10.51-4.12c3.16-.67,20.92-1.17,30.29.5,6.51,1.16,13.11,5.57,17.15,9a14.89,14.89,0,0,1,4.36,5.8c1.21,3.45-1.19,11.5-5.64,15.15h0c-.08.05-.14.11-.21.16a11.05,11.05,0,0,1-1.41.93c-6,3.25-14.45,8-23.27,9.52S57.7,55.6,50.61,52.2a24.92,24.92,0,0,1-10.25-9.75A11,11,0,0,1,39,38.46Z"/><path class="cls-4" d="M39.32,37.49c-.21-2-1-5.62-1.18-7.91a5.35,5.35,0,0,1,.22-2.12c.67-2.05,3.71-5.05,8.92-8l.28-.16A48.45,48.45,0,0,1,58,15.19c3-.65,20.68-1.15,30,.51,7,1.24,13.94,6.43,17.6,9.9A11,11,0,0,1,108.9,32c.41,3.5-1.73,10.38-5.65,13.46h0a1.33,1.33,0,0,0-.19.14,12,12,0,0,1-1.28.82c-5.93,3.23-14.27,7.88-22.89,9.35S58,55.35,50.94,52A24,24,0,0,1,40.56,41.69,14.63,14.63,0,0,1,39.32,37.49Z"/><path class="cls-5" d="M39.7,36.53c-.3-2.12-1-5.49-1.08-7.41a4.62,4.62,0,0,1,.4-2c.84-1.9,3.66-4.65,8.57-7.46l.28-.16a48.19,48.19,0,0,1,10.26-4c2.95-.63,20.44-1.13,29.63.51,7.48,1.34,14.79,7.28,18,10.78a9.44,9.44,0,0,1,2.43,6.91c-.26,3.55-2.28,9.26-5.67,11.76h0l-.18.12a12.24,12.24,0,0,1-1.15.71C95.36,49.47,87.16,54,78.75,55.45s-20.5-.36-27.48-3.71C45.49,49,41.51,43.2,40.76,40.94A25.9,25.9,0,0,1,39.7,36.53Z"/><path class="cls-6" d="M40.07,35.56a52.33,52.33,0,0,1-1-6.91,4,4,0,0,1,.57-1.83c1-1.76,3.6-4.25,8.2-6.89l.28-.16a46.82,46.82,0,0,1,10.13-4c2.85-.61,20.21-1.11,29.31.52,8,1.42,15.66,8.12,18.5,11.65a9,9,0,0,1,1.46,7.47c-.85,3.6-2.82,8.13-5.68,10h0l-.16.1c-.1.08-.91.54-1,.6-5.84,3.18-13.9,7.62-22.11,9-8,1.37-20.07-.32-27-3.65C45.45,48.56,41.33,42.17,41,40.18,40.74,39,40.37,37.35,40.07,35.56Z"/><path class="cls-7" d="M101.22,45.45l-.15.08-.89.49c-5.79,3.16-13.72,7.49-21.73,8.85-7.75,1.33-19.65-.29-26.52-3.59-6.52-3.13-10.76-10.14-10.77-11.86a36.16,36.16,0,0,0-.72-4.83,32.88,32.88,0,0,1-.84-6.4c.17-1.51,2.52-4.51,8.6-8l.28-.16a46.57,46.57,0,0,1,10-4c2.74-.58,20-1.09,29,.52,8.45,1.51,16.57,9,19,12.53a9.14,9.14,0,0,1,.49,8c-1.4,3.68-3.35,7-5.68,8.35Z"/><path class="cls-8" d="M65.09,40.43c-2.06,2.51-7.6,5.81-9.25,5.37s1.4-5.34,3.27-7a6.1,6.1,0,0,1,4.9-1C65.66,38.22,65.89,39.47,65.09,40.43Z"/><path class="cls-9" d="M81,38.69C82,41,81.55,45,80,45.26s-4.25-4-4.6-5.7c-.19-.92.71-2.05,2.24-2.29A3.15,3.15,0,0,1,81,38.69Z"/><path class="cls-10" d="M73.88,38.36c-1.13,3.72-5.71,9.24-7.72,9s-.87-7.2.43-9.74a5.37,5.37,0,0,1,4.89-2.47A2.45,2.45,0,0,1,73.88,38.36Z"/><path class="cls-11" d="M67,26.55c-2.56-2.35-4.42-6.82-2.89-7.38s7,3.54,8.45,5.33a1.87,1.87,0,0,1-1.1,2.95A4.76,4.76,0,0,1,67,26.55Z"/><path class="cls-12" d="M61.53,36.22c-4-.73-9.57-3.1-9.11-4s8.14.07,10.81.81c1.44.4,2.61,1.44,2.14,2.32S63.06,36.5,61.53,36.22Z"/><path class="cls-13" d="M64.48,32.62C59.66,30.08,54,24.9,55.4,24s11,3.43,14,5.43c1.64,1.08,2.36,2.83,1,3.71S66.33,33.59,64.48,32.62Z"/><path class="cls-14" d="M84.73,33.15c4.8-.22,12.52.91,12.67,2s-8.7,2-12.1,1.84c-1.84-.06-3.86-.88-4-1.93S82.9,33.23,84.73,33.15Z"/><path class="cls-15" d="M73.92,26.79c3-1.7,9.21-3.46,10.33-2.81S80.36,28.11,78,29.13a6,6,0,0,1-4.55,0C72.32,28.5,72.78,27.44,73.92,26.79Z"/><path class="cls-16" d="M77.25,29.78C83.38,28.5,94,28,94.66,29.13s-10.37,4-14.84,4.65c-2.42.34-5.44-.11-6.15-1.21S74.9,30.28,77.25,29.78Z"/><path class="cls-17" d="M63.93,40.55c-.55.68-3.65,2.74-4.82,2.43s0-2.89.6-3.57a4,4,0,0,1,3.46-.74C64.34,39,64.48,39.87,63.93,40.55Z"/><path class="cls-17" d="M80.31,39.14c.29.63.23,3-.85,3.18s-2.77-1.93-3.07-2.57.5-1.44,1.58-1.61A2.24,2.24,0,0,1,80.31,39.14Z"/><path class="cls-17" d="M72.66,38.78c-.3,1-2.77,4.38-4.19,4.24s-1.25-3.74-1-4.74,2-1.89,3.46-1.75A1.74,1.74,0,0,1,72.66,38.78Z"/><path class="cls-17" d="M67.45,25.93c-.7-.64-2-3.26-1-3.66s4.2,1.57,4.9,2.2.31,1.69-.77,2.09A3.39,3.39,0,0,1,67.45,25.93Z"/><path class="cls-17" d="M61.22,35.66c-1.08-.2-4.53-1.5-4.2-2.12s4.32-.32,5.4-.12,1.85,1,1.51,1.63S62.3,35.85,61.22,35.66Z"/><path class="cls-17" d="M64.53,31.8c-1.31-.68-4.92-3.69-4-4.31s6.14,1.39,7.45,2.07,1.67,2,.7,2.62S65.84,32.49,64.53,31.8Z"/><path class="cls-17" d="M85.48,33.67c1.3-.07,6,.46,6.06,1.2s-4.35,1.42-5.65,1.48-2.73-.62-2.84-1.36S84.19,33.73,85.48,33.67Z"/><path class="cls-17" d="M74.93,26.89c.8-.46,4.4-1.62,5.2-1.16s-1.52,2.35-2.33,2.82a3.91,3.91,0,0,1-3.21,0C73.8,28.1,74.13,27.36,74.93,26.89Z"/><path class="cls-17" d="M78.48,30.19c1.65-.36,8-.81,8.45,0S82,32.66,80.29,33s-3.84-.08-4.34-.86S76.82,30.54,78.48,30.19Z"/><path class="cls-1" d="M9.66,16.21C3.85,19.51.28,23,0,25.35S1.56,34.5,1.57,36.68s4.56,9.58,11.7,13,19.88,5.41,28.91,3.87,17.64-6.41,23.66-9.68,9.89-14.36,7.4-18.08-12.56-11.73-22-13.42-27.35-1.19-30.62-.49A49.14,49.14,0,0,0,9.66,16.21Z"/><path class="cls-18" d="M74,28.69c.14,4.84-3.31,12.54-8.16,15.19-6,3.27-14.63,8.14-23.66,9.68s-21.77-.45-28.91-3.87-11.69-10.83-11.7-13c0-1.92-1.4-7.44-1.56-10.32H0l0,5.18c-.26,2.33,1.53,9.15,1.54,11.33s4.56,9.58,11.7,13,19.88,5.42,28.91,3.88,17.64-6.41,23.66-9.69c4.69-2.55,8.08-9.84,8.16-14.7V28.69Z"/><path class="cls-3" d="M2,35.71c-.12-1.8-1-5.76-1.31-8.4A7.64,7.64,0,0,1,.69,25c.48-2.19,3.77-5.44,9.28-8.58l.29-.16a48.42,48.42,0,0,1,10.51-4.12c3.16-.68,20.92-1.17,30.29.5,6.51,1.16,13.11,5.57,17.15,9a15,15,0,0,1,4.36,5.81C73.78,31,71.37,39,66.93,42.66h0l-.2.17a11.54,11.54,0,0,1-1.42.93c-6,3.25-14.44,8-23.27,9.51s-21.34-.41-28.42-3.81A25.08,25.08,0,0,1,3.35,39.71,10.71,10.71,0,0,1,2,35.71Z"/><path class="cls-4" d="M2.32,34.75c-.21-2-1-5.63-1.19-7.91a5.62,5.62,0,0,1,.22-2.13c.67-2,3.72-5,8.93-8l.28-.16a47.55,47.55,0,0,1,10.38-4.09c3.06-.65,20.69-1.15,30,.5,7,1.25,13.94,6.43,17.59,9.91a11,11,0,0,1,3.4,6.36c.41,3.5-1.73,10.38-5.65,13.45h0l-.2.15a11.56,11.56,0,0,1-1.28.82C58.84,46.87,50.51,51.52,41.89,53s-20.92-.38-28-3.76A24.06,24.06,0,0,1,3.55,39,15,15,0,0,1,2.32,34.75Z"/><path class="cls-5" d="M2.69,33.78c-.29-2.12-1-5.48-1.07-7.41a4.55,4.55,0,0,1,.4-2c.84-1.9,3.66-4.65,8.56-7.46l.28-.16a47.36,47.36,0,0,1,10.26-4.05c2.95-.63,20.44-1.13,29.64.51,7.47,1.33,14.79,7.28,18,10.78a9.4,9.4,0,0,1,2.43,6.91C71,34.47,69,40.19,65.57,42.69h0l-.18.12c-.2.16-.94.59-1.15.71-5.88,3.2-14.08,7.75-22.5,9.18-8.26,1.41-20.49-.35-27.48-3.7C8.49,46.23,4.51,40.46,3.75,38.19A26.64,26.64,0,0,1,2.69,33.78Z"/><path class="cls-6" d="M3.07,32.82a54.29,54.29,0,0,1-1-6.91,4,4,0,0,1,.58-1.83c1-1.76,3.6-4.25,8.2-6.9l.28-.15A46.62,46.62,0,0,1,21.3,13c2.85-.61,20.2-1.11,29.3.51,8,1.42,15.67,8.13,18.5,11.65a9,9,0,0,1,1.47,7.47c-.85,3.6-2.82,8.14-5.68,10.06h0l-.16.1c-.1.08-.92.54-1,.6-5.84,3.18-13.9,7.62-22.11,9-8,1.36-20.08-.32-27-3.65C8.45,45.82,4.33,39.43,4,37.43,3.74,36.29,3.36,34.6,3.07,32.82Z"/><path class="cls-19" d="M64.21,42.71l-.14.08-.9.49c-5.79,3.16-13.72,7.49-21.72,8.85-7.75,1.32-19.65-.29-26.53-3.59C8.41,45.41,4.16,38.4,4.15,36.67a34.12,34.12,0,0,0-.71-4.82,33,33,0,0,1-.84-6.41c.17-1.5,2.52-4.5,8.6-8l.27-.16a46.44,46.44,0,0,1,10-4c2.74-.59,20-1.09,29,.52,8.45,1.51,16.57,9,19,12.52a9.16,9.16,0,0,1,.5,8c-1.4,3.67-3.36,7-5.69,8.35Z"/><path class="cls-20" d="M28.09,37.69C26,40.2,20.48,43.5,18.83,43.05s1.41-5.33,3.28-7A6.1,6.1,0,0,1,27,35C28.66,35.48,28.88,36.73,28.09,37.69Z"/><path class="cls-21" d="M44,35.94c1.07,2.34.59,6.33-.94,6.57s-4.25-4-4.6-5.7c-.19-.92.71-2,2.24-2.28A3.14,3.14,0,0,1,44,35.94Z"/><path class="cls-22" d="M36.87,35.62c-1.13,3.71-5.7,9.23-7.71,9s-.88-7.2.43-9.75a5.41,5.41,0,0,1,4.89-2.47A2.45,2.45,0,0,1,36.87,35.62Z"/><path class="cls-23" d="M30,23.81c-2.57-2.35-4.42-6.82-2.89-7.39s7,3.54,8.44,5.34a1.85,1.85,0,0,1-1.09,2.94A4.73,4.73,0,0,1,30,23.81Z"/><path class="cls-24" d="M24.53,33.48c-4-.74-9.58-3.11-9.11-4s8.13.07,10.8.81c1.45.4,2.62,1.44,2.15,2.31S26.06,33.76,24.53,33.48Z"/><path class="cls-25" d="M27.48,29.88c-4.82-2.54-10.45-7.73-9.09-8.6s11,3.43,14,5.42c1.63,1.09,2.35,2.84,1,3.71S29.33,30.85,27.48,29.88Z"/><path class="cls-26" d="M47.73,30.4c4.8-.21,12.51.91,12.67,2s-8.71,2-12.1,1.84c-1.84-.07-3.86-.88-4-1.93S45.89,30.49,47.73,30.4Z"/><path class="cls-27" d="M36.92,24.05c3-1.7,9.2-3.46,10.33-2.81S43.36,25.36,41,26.39a6,6,0,0,1-4.55,0C35.32,25.76,35.77,24.7,36.92,24.05Z"/><path class="cls-28" d="M40.24,27c6.14-1.29,16.7-1.75,17.41-.65s-10.37,4-14.84,4.65c-2.42.33-5.43-.11-6.14-1.22S37.9,27.53,40.24,27Z"/><path class="cls-17" d="M26.93,37.8c-.55.69-3.66,2.75-4.82,2.44s0-2.89.59-3.57a4,4,0,0,1,3.47-.74C27.33,36.24,27.48,37.12,26.93,37.8Z"/><path class="cls-17" d="M43.3,36.4c.3.63.24,3-.84,3.18S39.68,37.64,39.39,37s.5-1.44,1.58-1.61A2.2,2.2,0,0,1,43.3,36.4Z"/><path class="cls-17" d="M35.65,36c-.29,1-2.76,4.37-4.18,4.24s-1.26-3.74-1-4.75,2-1.88,3.45-1.74A1.74,1.74,0,0,1,35.65,36Z"/><path class="cls-17" d="M30.45,23.18c-.7-.63-2.06-3.25-1-3.65s4.19,1.57,4.9,2.2.31,1.68-.78,2.08A3.34,3.34,0,0,1,30.45,23.18Z"/><path class="cls-17" d="M24.22,32.91c-1.09-.19-4.54-1.49-4.2-2.11s4.31-.32,5.4-.13,1.84,1,1.51,1.64S25.3,33.11,24.22,32.91Z"/><path class="cls-17" d="M27.53,29.06c-1.31-.68-4.93-3.69-4-4.31S29.7,26.14,31,26.82s1.66,2,.7,2.62S28.84,29.74,27.53,29.06Z"/><path class="cls-17" d="M48.48,30.93c1.3-.07,6,.46,6.06,1.2s-4.36,1.41-5.66,1.48-2.72-.62-2.83-1.36S47.18,31,48.48,30.93Z"/><path class="cls-17" d="M37.92,24.15c.8-.46,4.41-1.62,5.2-1.17S41.6,25.34,40.8,25.8a3.91,3.91,0,0,1-3.21,0C36.8,25.36,37.13,24.61,37.92,24.15Z"/><path class="cls-17" d="M41.47,27.44c1.66-.35,8-.8,8.45,0s-5,2.5-6.63,2.85-3.84-.08-4.35-.86S39.82,27.8,41.47,27.44Z"/><path class="cls-1" d="M31.69,5c-5.81,3.3-9.38,6.8-9.63,9.14s1.53,9.15,1.54,11.33,4.56,9.58,11.71,13,19.87,5.42,28.9,3.88,17.64-6.41,23.66-9.69,9.89-14.35,7.4-18.08S82.71,2.83,73.24,1.14,45.89,0,42.62.65A48.66,48.66,0,0,0,31.69,5Z"/><path class="cls-29" d="M96,17.45c.14,4.84-3.31,12.54-8.16,15.18-6,3.28-14.63,8.15-23.66,9.69s-21.76-.45-28.9-3.88-11.7-10.82-11.71-13c0-1.92-1.4-7.44-1.55-10.32h0v5.17c-.26,2.34,1.53,9.16,1.54,11.34s4.56,9.58,11.71,13,19.87,5.42,28.9,3.88,17.64-6.41,23.66-9.69C92.56,36.27,96,29,96,24.12V17.45Z"/><path class="cls-3" d="M24,24.47c-.12-1.8-1-5.76-1.31-8.41a7.58,7.58,0,0,1,0-2.27C23.2,11.6,26.49,8.35,32,5.21l.29-.16A48.42,48.42,0,0,1,42.8.93C46,.25,63.72-.24,73.09,1.43,79.6,2.59,86.2,7,90.24,10.46a14.84,14.84,0,0,1,4.36,5.81c1.21,3.45-1.2,11.5-5.64,15.15h0l-.2.17a11,11,0,0,1-1.41.92c-6,3.26-14.45,8-23.28,9.52s-21.34-.41-28.43-3.81a25.07,25.07,0,0,1-10.24-9.75A10.82,10.82,0,0,1,24,24.47Z"/><path class="cls-4" d="M24.35,23.51c-.21-2-1-5.63-1.19-7.91a5.61,5.61,0,0,1,.23-2.13c.67-2,3.71-5,8.92-8l.28-.16A48.57,48.57,0,0,1,43,1.2C46,.55,63.66.06,72.94,1.71c7,1.25,13.94,6.43,17.6,9.91A10.93,10.93,0,0,1,93.93,18c.41,3.5-1.73,10.38-5.65,13.45h0l-.2.15a10.19,10.19,0,0,1-1.28.81c-5.93,3.24-14.26,7.89-22.88,9.36S43,41.36,36,38A23.94,23.94,0,0,1,25.59,27.71,14.72,14.72,0,0,1,24.35,23.51Z"/><path class="cls-5" d="M24.72,22.54c-.29-2.12-1-5.48-1.07-7.41a4.62,4.62,0,0,1,.4-2c.84-1.89,3.66-4.64,8.56-7.45l.28-.16A47.9,47.9,0,0,1,43.15,1.48C46.1.86,63.6.36,72.79,2c7.47,1.33,14.79,7.28,18,10.78a9.4,9.4,0,0,1,2.43,6.91C93,23.23,91,29,87.6,31.44h0l-.18.13c-.19.16-.94.59-1.15.71-5.88,3.2-14.08,7.75-22.5,9.18-8.26,1.41-20.49-.35-27.47-3.7C30.52,35,26.54,29.21,25.78,27A26.64,26.64,0,0,1,24.72,22.54Z"/><path class="cls-6" d="M25.1,21.58a54.29,54.29,0,0,1-1-6.91,4.18,4.18,0,0,1,.57-1.83c1-1.76,3.61-4.25,8.21-6.9l.28-.16a47.65,47.65,0,0,1,10.13-4c2.85-.6,20.2-1.1,29.3.52,8,1.42,15.67,8.13,18.5,11.65A9,9,0,0,1,92.6,21.4c-.85,3.6-2.82,8.13-5.68,10.06h0l-.16.1c-.1.08-.92.54-1,.6-5.84,3.18-13.91,7.62-22.11,9-8,1.36-20.08-.33-27-3.65-6.14-3-10.26-9.34-10.64-11.34C25.77,25.05,25.39,23.36,25.1,21.58Z"/><path class="cls-30" d="M86.24,31.47l-.14.08-.9.49c-5.79,3.16-13.72,7.49-21.72,8.85C55.73,42.21,43.83,40.6,37,37.3c-6.52-3.13-10.77-10.14-10.77-11.87a36.07,36.07,0,0,0-.72-4.82,33,33,0,0,1-.84-6.41c.17-1.5,2.52-4.5,8.6-8L33.5,6a47,47,0,0,1,10-4c2.74-.58,20-1.08,29,.53,8.45,1.5,16.57,9,19,12.52a9.11,9.11,0,0,1,.5,8c-1.4,3.68-3.36,7-5.69,8.36Z"/><path class="cls-31" d="M50.12,26.45c-2.07,2.51-7.61,5.81-9.26,5.36s1.41-5.33,3.28-7A6.1,6.1,0,0,1,49,23.79C50.69,24.24,50.91,25.49,50.12,26.45Z"/><path class="cls-32" d="M66,24.7c1.07,2.34.59,6.33-.94,6.57s-4.25-4-4.6-5.7c-.19-.92.71-2,2.24-2.28A3.14,3.14,0,0,1,66,24.7Z"/><path class="cls-33" d="M58.9,24.38c-1.12,3.71-5.7,9.23-7.71,9s-.88-7.21.43-9.75a5.39,5.39,0,0,1,4.89-2.47A2.45,2.45,0,0,1,58.9,24.38Z"/><path class="cls-34" d="M52,12.57c-2.56-2.35-4.42-6.82-2.89-7.39s7,3.54,8.44,5.33c.76,1,.45,2.38-1.09,3A4.73,4.73,0,0,1,52,12.57Z"/><path class="cls-35" d="M46.56,22.24c-4-.74-9.58-3.11-9.11-4s8.14.07,10.8.81c1.45.4,2.61,1.44,2.15,2.31S48.09,22.52,46.56,22.24Z"/><path class="cls-36" d="M49.51,18.64c-4.82-2.54-10.45-7.73-9.09-8.6s11,3.42,14,5.42c1.63,1.09,2.36,2.83,1,3.71S51.36,19.61,49.51,18.64Z"/><path class="cls-37" d="M69.76,19.16c4.8-.22,12.51.91,12.67,2s-8.71,2-12.1,1.84c-1.84-.07-3.86-.88-4-1.93S67.92,19.24,69.76,19.16Z"/><path class="cls-38" d="M59,12.8c3-1.7,9.2-3.45,10.33-2.8S65.39,14.12,63,15.14a5.93,5.93,0,0,1-4.55,0C57.35,14.52,57.81,13.46,59,12.8Z"/><path class="cls-39" d="M62.27,15.8c6.14-1.29,16.71-1.75,17.41-.65s-10.37,4-14.84,4.65c-2.42.33-5.43-.11-6.14-1.22S59.93,16.29,62.27,15.8Z"/><path class="cls-17" d="M49,26.56c-.55.68-3.66,2.75-4.82,2.44s0-2.89.59-3.57a4,4,0,0,1,3.47-.74C49.36,25,49.51,25.88,49,26.56Z"/><path class="cls-17" d="M65.33,25.15c.3.64.24,3-.84,3.19s-2.78-1.94-3.07-2.57.5-1.45,1.58-1.62A2.22,2.22,0,0,1,65.33,25.15Z"/><path class="cls-17" d="M57.69,24.79c-.3,1-2.77,4.38-4.19,4.24s-1.25-3.73-1-4.74,2-1.88,3.46-1.74A1.74,1.74,0,0,1,57.69,24.79Z"/><path class="cls-17" d="M52.48,11.94c-.7-.63-2.06-3.25-1-3.65s4.19,1.57,4.9,2.2.31,1.68-.77,2.08A3.38,3.38,0,0,1,52.48,11.94Z"/><path class="cls-17" d="M46.25,21.67c-1.08-.19-4.54-1.5-4.21-2.11s4.32-.32,5.41-.13,1.84,1,1.51,1.64S47.33,21.87,46.25,21.67Z"/><path class="cls-17" d="M49.56,17.82c-1.31-.68-4.93-3.69-4-4.31s6.13,1.39,7.45,2.07,1.66,2,.7,2.62S50.87,18.5,49.56,17.82Z"/><path class="cls-17" d="M70.51,19.69c1.3-.07,5.95.46,6.06,1.2s-4.36,1.41-5.65,1.48-2.73-.63-2.84-1.37S69.21,19.75,70.51,19.69Z"/><path class="cls-17" d="M60,12.91c.8-.47,4.4-1.62,5.19-1.17s-1.52,2.36-2.32,2.82a3.91,3.91,0,0,1-3.21,0C58.83,14.12,59.16,13.37,60,12.91Z"/><path class="cls-17" d="M63.5,16.2c1.66-.35,8-.8,8.45,0S67,18.67,65.32,19,61.48,19,61,18.17,61.85,16.56,63.5,16.2Z"/></g></g></svg>