<svg xmlns="http://www.w3.org/2000/svg" xmlns:xlink="http://www.w3.org/1999/xlink" viewBox="0 0 137.07 82.18"><defs><style>.cls-1{fill:#7b6e06;}.cls-2{fill:url(#linear-gradient);}.cls-3{fill:#8a8014;}.cls-4{fill:#9a9223;}.cls-5{fill:#a9a431;}.cls-6{fill:#b9b640;}.cls-7{fill:#c8c84e;}.cls-8{fill:url(#radial-gradient);}.cls-9{fill:url(#radial-gradient-2);}.cls-10{fill:url(#radial-gradient-3);}.cls-11{fill:url(#radial-gradient-4);}.cls-12{fill:url(#radial-gradient-5);}.cls-13{fill:url(#radial-gradient-6);}.cls-14{fill:url(#radial-gradient-7);}.cls-15{fill:url(#radial-gradient-8);}.cls-16{fill:url(#radial-gradient-9);}.cls-17{fill:url(#linear-gradient-2);}.cls-18{fill:url(#radial-gradient-10);}.cls-19{fill:url(#radial-gradient-11);}.cls-20{fill:url(#radial-gradient-12);}.cls-21{fill:url(#radial-gradient-13);}.cls-22{fill:url(#radial-gradient-14);}.cls-23{fill:url(#radial-gradient-15);}.cls-24{fill:url(#radial-gradient-16);}.cls-25{fill:url(#radial-gradient-17);}.cls-26{fill:url(#radial-gradient-18);}.cls-27{fill:url(#linear-gradient-3);}.cls-28{fill:url(#radial-gradient-19);}.cls-29{fill:url(#radial-gradient-20);}.cls-30{fill:url(#radial-gradient-21);}.cls-31{fill:url(#radial-gradient-22);}.cls-32{fill:url(#radial-gradient-23);}.cls-33{fill:url(#radial-gradient-24);}.cls-34{fill:url(#radial-gradient-25);}.cls-35{fill:url(#radial-gradient-26);}.cls-36{fill:url(#radial-gradient-27);}.cls-37{fill:#94939b;}.cls-38{fill:#cad1c9;}</style><linearGradient id="linear-gradient" x1="11.86" y1="43.39" x2="70.09" y2="43.39" gradientUnits="userSpaceOnUse"><stop offset="0" stop-color="#7b6e06"/><stop offset="0.07" stop-color="#7e7108"/><stop offset="0.12" stop-color="#86790f"/><stop offset="0.16" stop-color="#95871b"/><stop offset="0.19" stop-color="#aa9c2c"/><stop offset="0.2" stop-color="#b0a231"/><stop offset="0.36" stop-color="#7b6e06"/><stop offset="0.54" stop-color="#998907"/><stop offset="1" stop-color="#7b6e06"/></linearGradient><radialGradient id="radial-gradient" cx="42.68" cy="31.8" r="20" gradientUnits="userSpaceOnUse"><stop offset="0" stop-color="#b9b640"/><stop offset="1" stop-color="#c8c84e"/></radialGradient><radialGradient id="radial-gradient-2" cx="42.69" cy="31.8" r="20.02" xlink:href="#radial-gradient"/><radialGradient id="radial-gradient-3" cx="42.69" cy="31.8" r="20.02" xlink:href="#radial-gradient"/><radialGradient id="radial-gradient-4" cx="42.69" cy="31.8" r="20.02" xlink:href="#radial-gradient"/><radialGradient id="radial-gradient-5" cx="42.69" cy="31.8" r="20.02" xlink:href="#radial-gradient"/><radialGradient id="radial-gradient-6" cx="42.69" cy="31.8" r="20.02" xlink:href="#radial-gradient"/><radialGradient id="radial-gradient-7" cx="42.69" cy="31.8" r="20.02" xlink:href="#radial-gradient"/><radialGradient id="radial-gradient-8" cx="42.69" cy="31.8" r="20.02" xlink:href="#radial-gradient"/><radialGradient id="radial-gradient-9" cx="42.69" cy="31.8" r="20.02" xlink:href="#radial-gradient"/><linearGradient id="linear-gradient-2" x1="0" y1="27.19" x2="58.22" y2="27.19" xlink:href="#linear-gradient"/><radialGradient id="radial-gradient-10" cx="30.82" cy="15.61" r="20" xlink:href="#radial-gradient"/><radialGradient id="radial-gradient-11" cx="30.83" cy="15.61" r="20.02" xlink:href="#radial-gradient"/><radialGradient id="radial-gradient-12" cx="30.83" cy="15.61" r="20.02" xlink:href="#radial-gradient"/><radialGradient id="radial-gradient-13" cx="30.83" cy="15.61" r="20.02" xlink:href="#radial-gradient"/><radialGradient id="radial-gradient-14" cx="30.83" cy="15.61" r="20.02" xlink:href="#radial-gradient"/><radialGradient id="radial-gradient-15" cx="30.83" cy="15.61" r="20.02" xlink:href="#radial-gradient"/><radialGradient id="radial-gradient-16" cx="30.83" cy="15.61" r="20.02" xlink:href="#radial-gradient"/><radialGradient id="radial-gradient-17" cx="30.83" cy="15.61" r="20.02" xlink:href="#radial-gradient"/><radialGradient id="radial-gradient-18" cx="30.83" cy="15.61" r="20.02" xlink:href="#radial-gradient"/><linearGradient id="linear-gradient-3" x1="30.24" y1="34.87" x2="88.47" y2="34.87" xlink:href="#linear-gradient"/><radialGradient id="radial-gradient-19" cx="61.06" cy="23.28" r="20" xlink:href="#radial-gradient"/><radialGradient id="radial-gradient-20" cx="61.07" cy="23.28" r="20.02" xlink:href="#radial-gradient"/><radialGradient id="radial-gradient-21" cx="61.07" cy="23.28" r="20.02" xlink:href="#radial-gradient"/><radialGradient id="radial-gradient-22" cx="61.07" cy="23.28" r="20.02" xlink:href="#radial-gradient"/><radialGradient id="radial-gradient-23" cx="61.07" cy="23.28" r="20.02" xlink:href="#radial-gradient"/><radialGradient id="radial-gradient-24" cx="61.07" cy="23.28" r="20.02" xlink:href="#radial-gradient"/><radialGradient id="radial-gradient-25" cx="61.07" cy="23.28" r="20.02" xlink:href="#radial-gradient"/><radialGradient id="radial-gradient-26" cx="61.07" cy="23.28" r="20.02" xlink:href="#radial-gradient"/><radialGradient id="radial-gradient-27" cx="61.07" cy="23.28" r="20.02" xlink:href="#radial-gradient"/></defs><title>Asset 15</title><g id="Layer_2" data-name="Layer 2"><g id="Ñëîé_1" data-name="Ñëîé 1"><path class="cls-1" d="M63.34,20.57c-4.49-2.63-9.25-4.25-12.42-4.36s-12.43.69-15.4.7-13,2.06-17.67,5.3-7.36,9-5.27,13.09,8.71,8,13.16,10.72,19.51,4.48,24.57,3.35,15.93-5.69,18.23-10,1.62-12.39.67-13.87S65.16,21.64,63.34,20.57Z"/><path class="cls-2" d="M68.54,39.39c-2.3,4.29-13.17,8.85-18.23,10S30.2,48.75,25.74,46,14.68,39.39,12.58,35.3a6.75,6.75,0,0,1-.71-3.1h0v5a6.69,6.69,0,0,0,.71,2.92c2.1,4.09,8.71,8,13.16,10.71s19.51,4.49,24.57,3.36,15.93-5.7,18.23-10C70,41.44,70.27,37,70,33.83A15.26,15.26,0,0,1,68.54,39.39Z"/><path class="cls-3" d="M36.84,17.08c2.44-.06,7.83-.46,11.42-.59a28.06,28.06,0,0,1,3.09,0c3,.21,7.39,1.71,11.66,4.2l.22.13C65.07,22,68,24.22,68.83,25.6s1.59,9.48-.68,13.73c-1.58,2.94-7.57,5.93-12.28,7.76a34,34,0,0,1-7.88,2c-4.7.55-15.63-.54-20.6-2.56h0l-.22-.09a9.8,9.8,0,0,1-1.26-.64C21.48,43.07,15,39.23,13,35.24s.57-9.67,5.19-12.88c3.28-2.28,9.44-3.95,13.24-4.65A38,38,0,0,1,36.84,17.08Z"/><path class="cls-4" d="M38.15,17.25c2.66-.1,7.64-.46,10.74-.54a21.88,21.88,0,0,1,2.89.1,30.06,30.06,0,0,1,10.9,4l.21.13c1.84,1.1,4.71,3.37,5.56,4.7s1.56,9.37-.69,13.58c-1.69,3.16-8.74,6.31-13.46,8a31.92,31.92,0,0,1-8.64,1.54C40.9,49,31.56,48,27.38,46.2h0l-.2-.08a12.52,12.52,0,0,1-1.11-.58c-4.39-2.69-10.71-6.46-12.71-10.37s.52-9.48,5.11-12.66c3.52-2.45,10.53-4.19,14-4.7A51.23,51.23,0,0,1,38.15,17.25Z"/><path class="cls-5" d="M39.46,17.42c2.88-.14,7.45-.45,10.07-.49a17,17,0,0,1,2.68.18A30.57,30.57,0,0,1,62.35,21l.21.13c1.83,1.09,4.69,3.35,5.51,4.64s1.53,9.26-.7,13.43c-1.81,3.38-9.89,6.7-14.64,8.17a31.47,31.47,0,0,1-9.4,1.1c-4.81-.12-12.57-1-16-2.56h0l-.17-.08c-.21-.09-.8-.43-1-.53C21.87,42.63,15.7,38.91,13.75,35.1s.48-9.28,5-12.44C22.55,20,30.39,18.24,33.47,17.9,35.18,17.71,37.38,17.51,39.46,17.42Z"/><path class="cls-6" d="M40.77,17.59c3.1-.18,7.27-.45,9.39-.44a14.34,14.34,0,0,1,2.48.26A31.16,31.16,0,0,1,62,21.13l.21.12a21.63,21.63,0,0,1,5.46,4.59c.82,1.29,1.51,9.16-.7,13.28-1.93,3.6-11,7.09-15.84,8.38A32.91,32.91,0,0,1,41,48.16c-4.9-.38-11-1.27-13.66-2.57h0l-.13-.07c-.11-.05-.74-.42-.82-.47C22.07,42.41,16,38.76,14.14,35s.43-9.1,4.95-12.23C23.1,20,31.79,18.16,34.5,18,36.05,17.89,38.34,17.72,40.77,17.59Z"/><path class="cls-7" d="M27.33,45.28l-.11-.06-.66-.41c-4.3-2.62-10.18-6.21-12-9.84s.39-8.9,4.88-12c4.25-3,13.77-4.88,16.12-4.88,1.38,0,3.78-.15,6.55-.33,3.32-.2,7.08-.44,8.71-.38,2,.08,6.12,1.14,10.89,3.9l.22.12a21.28,21.28,0,0,1,5.41,4.54c.79,1.24,1.48,9-.71,13.12-2,3.83-12.18,7.5-17,8.58a35.38,35.38,0,0,1-10.9.23c-5-.64-9.52-1.52-11.35-2.58Z"/><path class="cls-8" d="M34.75,28.66c-2.88-.79-6.67-2.91-6.16-3.55s6.12.54,8,1.26c1,.39,1.71,1.24,1.2,1.87S35.85,29,34.75,28.66Z"/><path class="cls-7" d="M34.62,28.21c-.78-.21-3.15-1.4-2.79-1.84s3.31,0,4.09.23,1.21.87.85,1.32A2.32,2.32,0,0,1,34.62,28.21Z"/><path class="cls-9" d="M36.76,34.73c-2.69.41-7.27.23-7.55-.36s4.6-1.63,6.55-1.76c1.05-.07,2.34.27,2.62.86S37.79,34.58,36.76,34.73Z"/><path class="cls-7" d="M36.24,34.48c-.73.11-3.46.09-3.66-.32s2.22-1.07,3-1.18a2,2,0,0,1,1.85.61C37.58,34,37,34.37,36.24,34.48Z"/><path class="cls-10" d="M37.12,32c-4.26-.43-10.6-2.18-10.37-3s8.27-.34,11.19.16c1.58.27,3.06,1.1,2.83,1.87S38.76,32.18,37.12,32Z"/><path class="cls-7" d="M36.65,31.55c-1.15-.11-5-1.06-4.87-1.6s4.29-.48,5.44-.37,2.17.78,2,1.33S37.8,31.66,36.65,31.55Z"/><path class="cls-11" d="M50.69,29.39c2.7-1,7.83-1.7,8.48-1.11S55.1,31,53.05,31.51a4.37,4.37,0,0,1-3.39-.41C49,30.51,49.65,29.76,50.69,29.39Z"/><path class="cls-7" d="M51.41,29.56c.72-.27,3.73-.79,4.19-.37s-1.8,1.6-2.53,1.87a2.86,2.86,0,0,1-2.39-.29C50.22,30.35,50.68,29.83,51.41,29.56Z"/><path class="cls-12" d="M39.59,27.29c.84-1.53,3.56-3.66,4.56-3.48s-.08,3.11-.93,4.13a3.11,3.11,0,0,1-2.65.82C39.56,28.58,39.26,27.88,39.59,27.29Z"/><path class="cls-7" d="M40.23,27.18c.23-.42,1.72-1.74,2.43-1.61s.37,1.65.15,2.06a2,2,0,0,1-1.88.58C40.22,28.09,40,27.59,40.23,27.18Z"/><path class="cls-13" d="M43.72,28.42c2.91-1.84,8.87-4,9.87-3.47s-3.93,4.21-6.23,5.36c-1.24.63-3.25.91-4.25.38S42.6,29.13,43.72,28.42Z"/><path class="cls-7" d="M44.66,28.44c.78-.5,4.24-1.88,5-1.51s-1.6,2.35-2.38,2.85a3.74,3.74,0,0,1-3,.27C43.51,29.68,43.87,28.94,44.66,28.44Z"/><path class="cls-14" d="M43.12,36.17c.25,1.84-1,4.79-2.25,4.85s-2.25-3.33-2.11-4.63A2.24,2.24,0,0,1,41,34.86,1.91,1.91,0,0,1,43.12,36.17Z"/><path class="cls-7" d="M42.52,36.46c.07.5-.53,2.28-1.38,2.32s-1.63-1.67-1.7-2.16.71-1,1.56-1.09A1.38,1.38,0,0,1,42.52,36.46Z"/><path class="cls-15" d="M50.42,32c1.95,1.14,4,3.52,3.22,4s-4.74-1.49-5.91-2.4c-.64-.49-.77-1.31,0-1.74A3,3,0,0,1,50.42,32Z"/><path class="cls-7" d="M50.3,32.42c.53.31,1.86,1.69,1.33,2s-2.7-.58-3.23-.89a.67.67,0,0,1,0-1.23A2.18,2.18,0,0,1,50.3,32.42Z"/><path class="cls-16" d="M47,33.31c1.47,2.35,2,6.39.74,6.66s-4.63-4-5.33-5.68a1.74,1.74,0,0,1,1.39-2.35A3.24,3.24,0,0,1,47,33.31Z"/><path class="cls-7" d="M46.51,33.78c.41.63.92,3,0,3.23s-2.86-1.9-3.27-2.54.09-1.47,1-1.66A2.3,2.3,0,0,1,46.51,33.78Z"/><path class="cls-1" d="M51.47,4.38C47,1.75,42.23.13,39.05,0s-12.43.7-15.39.7S10.64,2.78,6,6s-7.35,9-5.26,13.1,8.7,8,13.16,10.71,19.51,4.49,24.57,3.36,15.93-5.69,18.22-10,1.62-12.39.68-13.87S53.3,5.45,51.47,4.38Z"/><path class="cls-17" d="M56.67,23.2c-2.29,4.29-13.16,8.84-18.22,10s-20.12-.63-24.57-3.36S2.81,23.2.72,19.11A6.77,6.77,0,0,1,0,16H0v5A6.8,6.8,0,0,0,.72,24c2.09,4.09,8.7,8,13.16,10.72S33.39,39.16,38.45,38s15.93-5.69,18.22-10c1.51-2.81,1.73-7.27,1.44-10.42A14.93,14.93,0,0,1,56.67,23.2Z"/><path class="cls-3" d="M25,.88C27.42.83,32.8.42,36.39.29c1.2,0,2.28,0,3.1,0,3,.22,7.39,1.71,11.65,4.21l.22.13C53.2,5.76,56.09,8,57,9.41s1.59,9.47-.69,13.72C54.71,26.08,48.71,29.07,44,30.9a34.13,34.13,0,0,1-7.89,2c-4.69.55-15.63-.54-20.59-2.55h0l-.23-.1A9.83,9.83,0,0,1,14,29.58C9.62,26.88,3.15,23,1.11,19S1.67,9.37,6.29,6.16c3.28-2.27,9.45-3.95,13.25-4.64A38.29,38.29,0,0,1,25,.88Z"/><path class="cls-4" d="M26.28,1.05C28.94,1,33.92.6,37,.51a23.81,23.81,0,0,1,2.89.1A30.26,30.26,0,0,1,50.81,4.66l.22.12c1.83,1.11,4.7,3.37,5.56,4.71s1.56,9.37-.69,13.57c-1.7,3.17-8.74,6.32-13.46,8a31.17,31.17,0,0,1-8.64,1.54C29,32.75,19.69,31.78,15.51,30h0l-.19-.09a9,9,0,0,1-1.12-.58C9.81,26.66,3.49,22.88,1.5,19S2,9.5,6.61,6.31c3.52-2.44,10.52-4.19,14-4.7A54,54,0,0,1,26.28,1.05Z"/><path class="cls-5" d="M27.59,1.22c2.88-.13,7.46-.45,10.07-.48a17.13,17.13,0,0,1,2.69.18A30.26,30.26,0,0,1,50.48,4.79l.22.13a21.78,21.78,0,0,1,5.51,4.65c.85,1.34,1.53,9.26-.7,13.42-1.81,3.39-9.89,6.7-14.65,8.18a32.06,32.06,0,0,1-9.39,1.1c-4.82-.12-12.58-1-16-2.57h0l-.17-.08a9.42,9.42,0,0,1-1-.52C10,26.44,3.83,22.72,1.88,18.91s.48-9.28,5-12.45C10.68,3.85,18.53,2,21.6,1.7,23.32,1.51,25.51,1.32,27.59,1.22Z"/><path class="cls-6" d="M28.9,1.39C32,1.22,36.17.94,38.29,1a13.52,13.52,0,0,1,2.49.26,30.86,30.86,0,0,1,9.37,3.72l.21.12a21.49,21.49,0,0,1,5.47,4.59c.82,1.29,1.5,9.15-.71,13.27-1.93,3.61-11,7.1-15.83,8.38A33.25,33.25,0,0,1,29.14,32c-4.89-.39-11-1.28-13.66-2.58h0l-.14-.07c-.11,0-.73-.41-.81-.46-4.33-2.65-10.36-6.3-12.26-10s.44-9.09,5-12.23c4-2.78,12.69-4.65,15.4-4.82C24.18,1.7,26.48,1.53,28.9,1.39Z"/><path class="cls-7" d="M15.46,29.09,15.35,29l-.66-.4C10.4,26,4.51,22.4,2.66,18.78s.39-8.9,4.88-12c4.25-2.95,13.78-4.87,16.12-4.88,1.38,0,3.78-.15,6.56-.32,3.31-.21,7.07-.44,8.71-.38,2,.07,6.12,1.14,10.89,3.89L50,5.2a21.36,21.36,0,0,1,5.42,4.53c.79,1.24,1.47,9-.71,13.12-2.05,3.83-12.19,7.51-17,8.59a35.15,35.15,0,0,1-10.9.22c-5-.63-9.53-1.52-11.36-2.57Z"/><path class="cls-18" d="M22.88,12.46c-2.88-.79-6.66-2.91-6.15-3.54s6.12.54,8,1.25c1,.39,1.71,1.25,1.2,1.88S24,12.77,22.88,12.46Z"/><path class="cls-7" d="M22.75,12c-.78-.21-3.15-1.4-2.79-1.85s3.31,0,4.1.23,1.21.88.85,1.33A2.36,2.36,0,0,1,22.75,12Z"/><path class="cls-19" d="M24.89,18.54c-2.69.41-7.27.22-7.54-.36s4.59-1.63,6.54-1.76c1.06-.08,2.35.27,2.63.85S25.92,18.38,24.89,18.54Z"/><path class="cls-7" d="M24.37,18.29c-.72.11-3.46.09-3.65-.33s2.22-1.06,3-1.17a2,2,0,0,1,1.85.6C25.71,17.81,25.1,18.17,24.37,18.29Z"/><path class="cls-20" d="M25.26,15.82c-4.26-.43-10.6-2.18-10.38-3s8.27-.33,11.19.17c1.59.27,3.06,1.1,2.84,1.87S26.89,16,25.26,15.82Z"/><path class="cls-7" d="M24.78,15.36c-1.15-.11-5-1.06-4.86-1.6s4.28-.48,5.44-.37,2.16.78,2,1.32S25.94,15.47,24.78,15.36Z"/><path class="cls-21" d="M38.82,13.19c2.7-1,7.83-1.69,8.48-1.1s-4.06,2.7-6.12,3.23a4.31,4.31,0,0,1-3.38-.42C37.14,14.31,37.79,13.57,38.82,13.19Z"/><path class="cls-7" d="M39.54,13.36c.73-.26,3.74-.78,4.2-.37s-1.8,1.61-2.53,1.88a2.82,2.82,0,0,1-2.39-.3C38.36,14.16,38.82,13.63,39.54,13.36Z"/><path class="cls-22" d="M27.72,11.1c.84-1.53,3.57-3.67,4.57-3.49s-.08,3.12-.93,4.14a3.15,3.15,0,0,1-2.66.82C27.7,12.39,27.4,11.68,27.72,11.1Z"/><path class="cls-7" d="M28.37,11c.22-.41,1.72-1.74,2.43-1.61s.36,1.65.14,2.07a2.05,2.05,0,0,1-1.88.58C28.35,11.89,28.15,11.4,28.37,11Z"/><path class="cls-23" d="M31.86,12.23c2.91-1.85,8.86-4,9.87-3.48S37.79,13,35.5,14.12a5.66,5.66,0,0,1-4.26.38C30.23,14,30.74,12.94,31.86,12.23Z"/><path class="cls-7" d="M32.79,12.25c.78-.5,4.24-1.89,5-1.52s-1.59,2.35-2.37,2.85a3.7,3.7,0,0,1-3,.27C31.65,13.48,32,12.75,32.79,12.25Z"/><path class="cls-24" d="M31.25,20c.25,1.84-1,4.79-2.24,4.85s-2.25-3.33-2.12-4.63a2.25,2.25,0,0,1,2.22-1.54A1.91,1.91,0,0,1,31.25,20Z"/><path class="cls-7" d="M30.65,20.27c.08.49-.53,2.27-1.38,2.32s-1.62-1.67-1.7-2.17.72-1,1.57-1.08A1.34,1.34,0,0,1,30.65,20.27Z"/><path class="cls-25" d="M38.55,15.84c2,1.14,4,3.52,3.23,3.95S37,18.31,35.86,17.4c-.63-.49-.76-1.31,0-1.74A3,3,0,0,1,38.55,15.84Z"/><path class="cls-7" d="M38.43,16.23c.53.3,1.86,1.68,1.34,2s-2.7-.59-3.24-.89a.67.67,0,0,1,0-1.23A2.09,2.09,0,0,1,38.43,16.23Z"/><path class="cls-26" d="M35.11,17.11c1.48,2.35,2,6.4.75,6.67s-4.63-4-5.34-5.68a1.76,1.76,0,0,1,1.4-2.36A3.24,3.24,0,0,1,35.11,17.11Z"/><path class="cls-7" d="M34.65,17.58c.41.64.92,3.05,0,3.24s-2.86-1.91-3.27-2.54.09-1.47,1-1.66A2.3,2.3,0,0,1,34.65,17.58Z"/><path class="cls-1" d="M81.72,12.05C77.23,9.42,72.47,7.8,69.3,7.69s-12.44.69-15.4.7-13,2.06-17.68,5.3-7.35,9-5.26,13.09,8.71,8,13.16,10.72S63.63,42,68.69,40.85s15.93-5.69,18.22-10,1.62-12.39.68-13.87S83.54,13.12,81.72,12.05Z"/><path class="cls-27" d="M86.91,30.87c-2.29,4.29-13.16,8.85-18.22,10s-20.11-.62-24.57-3.35S33.05,30.87,31,26.78a6.76,6.76,0,0,1-.72-3.1h0v5A6.84,6.84,0,0,0,31,31.64c2.09,4.09,8.71,8,13.16,10.71s19.51,4.49,24.57,3.35,15.93-5.69,18.22-10c1.51-2.82,1.74-7.27,1.45-10.42A15.07,15.07,0,0,1,86.91,30.87Z"/><path class="cls-3" d="M55.21,8.56C57.66,8.5,63,8.1,66.64,8a28.11,28.11,0,0,1,3.09,0c3,.21,7.39,1.71,11.65,4.2l.22.13c1.84,1.11,4.73,3.38,5.61,4.76s1.59,9.48-.68,13.73C85,33.75,79,36.74,74.25,38.57a33.92,33.92,0,0,1-7.89,2C61.67,41.1,50.73,40,45.77,38h0l-.22-.09a10.69,10.69,0,0,1-1.27-.64c-4.42-2.71-10.89-6.55-12.93-10.54s.56-9.67,5.19-12.88C39.81,11.56,46,9.89,49.78,9.19A38.08,38.08,0,0,1,55.21,8.56Z"/><path class="cls-4" d="M56.52,8.73c2.67-.1,7.64-.46,10.75-.54a21.88,21.88,0,0,1,2.89.1,30,30,0,0,1,10.89,4l.22.13c1.83,1.1,4.71,3.37,5.56,4.7s1.56,9.37-.69,13.58c-1.7,3.16-8.74,6.31-13.46,8A31.54,31.54,0,0,1,64,40.24c-4.76.19-14.11-.78-18.29-2.56h0l-.19-.08A11.27,11.27,0,0,1,44.45,37c-4.4-2.69-10.72-6.46-12.71-10.37s.52-9.48,5.11-12.66c3.52-2.45,10.52-4.19,14-4.7A51.46,51.46,0,0,1,56.52,8.73Z"/><path class="cls-5" d="M57.83,8.9c2.88-.14,7.46-.45,10.07-.49a17.13,17.13,0,0,1,2.69.18,30.53,30.53,0,0,1,10.13,3.88l.22.13a21.75,21.75,0,0,1,5.51,4.64c.85,1.34,1.53,9.26-.7,13.43-1.81,3.38-9.89,6.7-14.65,8.17a31.35,31.35,0,0,1-9.39,1.1c-4.82-.12-12.58-1-16-2.56h0l-.17-.08a10.61,10.61,0,0,1-1-.53c-4.36-2.66-10.54-6.38-12.48-10.19s.47-9.28,5-12.44c3.76-2.62,11.61-4.42,14.68-4.76C53.56,9.19,55.76,9,57.83,8.9Z"/><path class="cls-6" d="M59.15,9.06c3.09-.17,7.26-.44,9.38-.43A14.44,14.44,0,0,1,71,8.89a31.12,31.12,0,0,1,9.37,3.72l.21.12a21.7,21.7,0,0,1,5.47,4.59c.82,1.29,1.5,9.16-.71,13.28-1.93,3.6-11,7.09-15.83,8.38a33,33,0,0,1-10.15.66c-4.89-.38-11.05-1.27-13.66-2.57h0L45.58,37c-.11,0-.73-.42-.81-.47-4.33-2.64-10.36-6.29-12.26-10s.44-9.09,5-12.23c4-2.79,12.7-4.65,15.4-4.82C54.42,9.37,56.72,9.2,59.15,9.06Z"/><path class="cls-7" d="M45.7,36.76l-.11-.06-.66-.41c-4.29-2.62-10.17-6.21-12-9.84s.4-8.9,4.88-12c4.25-3,13.78-4.88,16.12-4.88,1.39,0,3.78-.15,6.56-.33,3.31-.2,7.07-.44,8.71-.38,2,.08,6.12,1.14,10.89,3.9l.21.12a21.17,21.17,0,0,1,5.42,4.54c.79,1.24,1.47,9-.71,13.12-2,3.83-12.18,7.5-17,8.58a35.39,35.39,0,0,1-10.9.23c-5-.64-9.53-1.52-11.36-2.58Z"/><path class="cls-28" d="M53.13,20.14c-2.89-.79-6.67-2.91-6.16-3.55s6.12.54,8,1.26c1,.39,1.72,1.24,1.2,1.87S54.23,20.44,53.13,20.14Z"/><path class="cls-7" d="M53,19.69c-.78-.21-3.15-1.4-2.79-1.84s3.32,0,4.1.23,1.21.87.85,1.32A2.33,2.33,0,0,1,53,19.69Z"/><path class="cls-29" d="M55.13,26.21c-2.68.41-7.27.23-7.54-.36s4.59-1.63,6.54-1.76c1.06-.07,2.35.27,2.63.86S56.16,26.06,55.13,26.21Z"/><path class="cls-7" d="M54.61,26c-.72.11-3.46.09-3.65-.32s2.22-1.07,2.95-1.18,1.66.19,1.85.61S55.34,25.85,54.61,26Z"/><path class="cls-30" d="M55.5,23.5c-4.26-.43-10.6-2.18-10.38-2.95s8.27-.34,11.19.16c1.59.27,3.06,1.1,2.84,1.87S57.13,23.66,55.5,23.5Z"/><path class="cls-7" d="M55,23c-1.16-.11-5-1.05-4.87-1.6s4.29-.48,5.44-.37,2.16.78,2,1.33S56.18,23.14,55,23Z"/><path class="cls-31" d="M69.06,20.87c2.71-1,7.83-1.69,8.49-1.11s-4.07,2.7-6.13,3.23A4.35,4.35,0,0,1,68,22.58C67.39,22,68,21.24,69.06,20.87Z"/><path class="cls-7" d="M69.78,21c.73-.27,3.74-.79,4.2-.37s-1.8,1.6-2.53,1.87a2.86,2.86,0,0,1-2.39-.29C68.6,21.83,69.06,21.31,69.78,21Z"/><path class="cls-32" d="M58,18.77c.85-1.53,3.57-3.66,4.57-3.48s-.08,3.11-.93,4.13a3.12,3.12,0,0,1-2.66.82C57.94,20.06,57.64,19.36,58,18.77Z"/><path class="cls-7" d="M58.61,18.66c.22-.42,1.72-1.74,2.43-1.61s.36,1.65.14,2.06a2,2,0,0,1-1.88.58C58.59,19.57,58.39,19.07,58.61,18.66Z"/><path class="cls-33" d="M62.1,19.9C65,18.06,71,15.9,72,16.43S68,20.64,65.74,21.79c-1.25.63-3.25.91-4.26.38S61,20.61,62.1,19.9Z"/><path class="cls-7" d="M63,19.92c.79-.5,4.24-1.88,5-1.51s-1.59,2.34-2.37,2.85a3.74,3.74,0,0,1-3,.27C61.89,21.16,62.25,20.42,63,19.92Z"/><path class="cls-34" d="M61.49,27.65c.25,1.84-1,4.79-2.24,4.85S57,29.17,57.13,27.87a2.25,2.25,0,0,1,2.22-1.53A1.9,1.9,0,0,1,61.49,27.65Z"/><path class="cls-7" d="M60.89,27.94c.08.5-.53,2.28-1.38,2.32s-1.62-1.67-1.7-2.16.72-1.05,1.57-1.09A1.36,1.36,0,0,1,60.89,27.94Z"/><path class="cls-35" d="M68.79,23.52c2,1.14,4,3.52,3.23,3.95s-4.74-1.49-5.91-2.4c-.64-.49-.77-1.31,0-1.74A3,3,0,0,1,68.79,23.52Z"/><path class="cls-7" d="M68.67,23.9c.54.31,1.87,1.69,1.34,2s-2.7-.58-3.24-.89a.67.67,0,0,1,0-1.23A2.15,2.15,0,0,1,68.67,23.9Z"/><path class="cls-36" d="M65.35,24.79c1.48,2.35,2,6.39.75,6.66s-4.63-4-5.34-5.68a1.75,1.75,0,0,1,1.4-2.35A3.21,3.21,0,0,1,65.35,24.79Z"/><path class="cls-7" d="M64.89,25.26c.41.63.92,3,0,3.23s-2.87-1.9-3.27-2.54.09-1.47,1-1.66A2.3,2.3,0,0,1,64.89,25.26Z"/><path class="cls-37" d="M127,59.82c-.79-2.08-3-3.28-4.48-4.34a29.21,29.21,0,0,1-3.9-4.42c-.82-1-1.81-1.46-2.65-2.42s-1.55-2-2.47-2.94a13.73,13.73,0,0,1-2.54-3c-1.19-1.91-2.17-4.36-4.23-4.23-1.51.11-4.41,1.61-4.8,3.92-.57,3.64,4.29,4.58,6,4.78s3.6.92,5.44.6c.33,2.31-1.25,5-2.54,6.13-1.84,1.61-5,1.71-7.2,1.71a13.69,13.69,0,0,1-4.94-.4c-1.38-.55-3.42-1.31-4.52-2.72s-1.51-3.92-2.23-5.61a14.19,14.19,0,0,1-1.49-5.06c-.25-4.33,1.33-7.84,3.18-11.08,2.53-4.37,7.66-4.68,11.35-6.58,4.46-2.35,9.58-5.83,14.39-6.43a10.13,10.13,0,0,1,6.36,1.91c1.58,1.06,3.12,1.75,4.65,2.76a11.47,11.47,0,0,1,4.88,6.18c1,2.38,2.35,5.58.59,7.88a6.72,6.72,0,0,1-8,1.69c-1-.5-3.32-1.08-3.51-2.84.92-.35,1.88-.09,2.36-1.35a4.63,4.63,0,0,0-.26-3.57c-1.35-2.51-5.74-4.33-7.54-2.21a3.77,3.77,0,0,0-1,3.33c.4,2.15,2,2.65,3.27,3.32a24.32,24.32,0,0,1,8.5,8c1.14,1.79,2.29,3.14,3.51,4.8.57.77,1.95,2,2.23,2.92a38.81,38.81,0,0,1-4.23,3,8.9,8.9,0,0,0-2.69,2.34c-.77,1-2,2.38-1.76,4.07Z"/><path class="cls-38" d="M127.37,57.49c-.78-2.09-3.06-3.27-4.49-4.36A25.63,25.63,0,0,1,119,48.75c-.85-1-1.83-1.51-2.69-2.41s-1.54-2.05-2.47-3a16,16,0,0,1-2.52-3c-1.19-1.92-2.18-4.37-4.24-4.23-1.47.07-4.41,1.62-4.78,3.9-.59,3.66,4.26,4.6,6,4.8s3.59.9,5.46.6a7.83,7.83,0,0,1-2.54,6.08c-1.86,1.66-5,1.73-7.23,1.73-1.65,0-3.32.23-4.91-.37-1.39-.55-3.45-1.36-4.52-2.72s-1.51-3.92-2.24-5.61a13.89,13.89,0,0,1-1.49-5.09c-.26-4.3,1.34-7.83,3.18-11,2.54-4.43,7.66-4.68,11.35-6.58,4.47-2.36,9.58-5.86,14.37-6.44a10.22,10.22,0,0,1,6.37,1.92c1.57,1,3.15,1.72,4.65,2.76a11.55,11.55,0,0,1,4.9,6.18c.93,2.36,2.32,5.57.55,7.89-1.9,2.51-5.65,2.81-8,1.65-1-.48-3.33-1-3.5-2.81.9-.35,1.85-.1,2.32-1.35a4.49,4.49,0,0,0-.24-3.57c-1.34-2.52-5.72-4.35-7.52-2.24a3.86,3.86,0,0,0-1.07,3.34c.42,2.17,2,2.66,3.32,3.34a25,25,0,0,1,8.49,8c1.11,1.78,2.28,3.16,3.49,4.79.6.8,2,2,2.25,3a37.83,37.83,0,0,1-4.23,3,8.82,8.82,0,0,0-2.73,2.36c-.76,1-1.94,2.38-1.76,4.07Z"/><path class="cls-37" d="M66.21,82.06c.78-2.09,3.05-3.3,4.48-4.35a26.37,26.37,0,0,0,3.88-4.42c.84-1,1.84-1.46,2.67-2.39S78.8,68.84,79.72,68a15.75,15.75,0,0,0,2.53-3c1.18-1.94,2.18-4.37,4.23-4.25,1.5.11,4.42,1.62,4.79,3.92.59,3.67-4.27,4.57-6,4.8s-3.6.93-5.44.61c-.33,2.29,1.21,5,2.5,6.08,1.88,1.63,5,1.72,7.25,1.72a13.82,13.82,0,0,0,4.91-.39c1.38-.56,3.45-1.33,4.53-2.71s1.49-3.93,2.22-5.58a14.81,14.81,0,0,0,1.5-5.1c.27-4.3-1.33-7.82-3.19-11.08C97,48.61,91.9,48.34,88.2,46.41c-4.45-2.33-9.58-5.83-14.38-6.44a10.27,10.27,0,0,0-6.39,1.94c-1.54,1-3.12,1.71-4.63,2.74a11.81,11.81,0,0,0-4.89,6.18c-.92,2.39-2.32,5.58-.55,7.89a6.72,6.72,0,0,0,8,1.68c1-.48,3.32-1.08,3.47-2.84-.89-.35-1.84-.07-2.32-1.33a4.58,4.58,0,0,1,.25-3.6c1.33-2.5,5.71-4.31,7.54-2.2a3.89,3.89,0,0,1,1,3.34c-.4,2.13-2,2.64-3.29,3.32a24.87,24.87,0,0,0-8.49,8c-1.13,1.76-2.3,3.12-3.52,4.78-.59.81-1.95,2-2.22,2.91a34.26,34.26,0,0,0,4.21,3,7.89,7.89,0,0,1,2.7,2.33c.79,1,2,2.4,1.78,4.07Z"/><path class="cls-38" d="M65.78,79.74c.8-2.08,3-3.29,4.49-4.34A29.31,29.31,0,0,0,74.16,71c.84-1,1.81-1.47,2.65-2.4s1.55-2.06,2.49-2.92a15.13,15.13,0,0,0,2.52-3C83,60.72,84,58.29,86,58.41c1.51.11,4.44,1.62,4.81,3.93.59,3.66-4.27,4.56-6,4.77s-3.62.93-5.46.6c-.31,2.31,1.25,5,2.54,6.1,1.84,1.63,5,1.72,7.2,1.72,1.67,0,3.36.22,4.93-.39,1.4-.55,3.43-1.33,4.54-2.71s1.5-3.92,2.22-5.6a13.8,13.8,0,0,0,1.48-5.1c.29-4.29-1.32-7.84-3.17-11-2.52-4.39-7.64-4.68-11.36-6.59-4.45-2.33-9.56-5.83-14.38-6.43A10.24,10.24,0,0,0,67,39.58c-1.56,1-3.13,1.73-4.63,2.76a11.39,11.39,0,0,0-4.9,6.17c-1,2.36-2.33,5.59-.57,7.9,1.9,2.51,5.65,2.84,8,1.68,1-.5,3.31-1.08,3.5-2.84-.92-.35-1.88-.1-2.33-1.36a4.67,4.67,0,0,1,.23-3.57c1.36-2.51,5.74-4.34,7.54-2.2a3.79,3.79,0,0,1,1,3.34c-.4,2.13-2,2.64-3.27,3.33a24.28,24.28,0,0,0-8.5,8c-1.12,1.75-2.3,3.13-3.53,4.79-.56.8-1.91,2-2.2,2.91a34.13,34.13,0,0,0,4.22,3,9,9,0,0,1,2.69,2.36c.79,1,2,2.39,1.79,4.06Z"/></g></g></svg>