<svg xmlns="http://www.w3.org/2000/svg" viewBox="0 0 117.43 68.96"><defs><style>.cls-1{fill:#ee9a20;}.cls-2{fill:#febd30;}.cls-3{fill:#fedd54;}.cls-4{fill:#ffff9c;}</style></defs><title>Asset 22</title><g id="Layer_2" data-name="Layer 2"><g id="Ñëîé_1" data-name="Ñëîé 1"><polygon class="cls-1" points="86.29 21.21 85.91 26.51 19.98 59.02 20.36 53.72 86.29 21.21"/><polygon class="cls-1" points="20.36 53.72 19.98 59.02 15.45 55.97 15.83 50.67 20.36 53.72"/><polygon class="cls-2" points="86.29 21.21 20.36 53.72 15.83 50.67 81.76 18.16 86.29 21.21"/><polygon class="cls-3" points="39.54 44.26 20.41 53.01 15.83 50.67 20.36 53.72 39.54 44.26"/><polygon class="cls-2" points="72.91 3.33 72.2 8.6 4.33 36.84 5.04 31.58 72.91 3.33"/><polygon class="cls-1" points="5.04 31.58 4.33 36.84 0 33.52 0.72 28.25 5.04 31.58"/><polygon class="cls-3" points="72.91 3.33 5.04 31.58 0.72 28.25 68.58 0 72.91 3.33"/><polygon class="cls-4" points="24.79 23.36 5.14 30.87 0.72 28.25 5.04 31.58 24.79 23.36"/><polygon class="cls-2" points="82.38 5.57 81.9 10.87 15.35 42.08 15.83 36.79 82.38 5.57"/><polygon class="cls-1" points="15.83 36.79 15.35 42.08 10.88 38.95 11.36 33.65 15.83 36.79"/><polygon class="cls-3" points="82.38 5.57 15.83 36.79 11.36 33.65 77.91 2.44 82.38 5.57"/><polygon class="cls-4" points="35.19 27.71 15.89 36.08 11.36 33.65 15.83 36.79 35.19 27.71"/><polygon class="cls-2" points="76.21 17.31 75.72 22.6 9.17 53.82 9.65 48.52 76.21 17.31"/><polygon class="cls-1" points="9.65 48.52 9.17 53.82 4.7 50.68 5.18 45.39 9.65 48.52"/><polygon class="cls-3" points="76.21 17.31 9.65 48.52 5.18 45.39 71.73 14.17 76.21 17.31"/><polygon class="cls-4" points="29.01 39.44 9.71 47.81 5.18 45.39 9.65 48.52 29.01 39.44"/><polygon class="cls-2" points="97.43 14 97.23 19.31 32.41 53.99 32.62 48.68 97.43 14"/><polygon class="cls-1" points="32.62 48.68 32.41 53.99 27.78 51.1 27.98 45.78 32.62 48.68"/><polygon class="cls-3" points="97.43 14 32.62 48.68 27.98 45.78 92.8 11.1 97.43 14"/><polygon class="cls-4" points="51.47 38.59 32.64 47.97 27.98 45.78 32.62 48.68 51.47 38.59"/><polygon class="cls-2" points="105.47 20.98 105.27 26.3 40.45 60.98 40.65 55.67 105.47 20.98"/><polygon class="cls-1" points="40.65 55.67 40.45 60.98 35.82 58.09 36.02 52.77 40.65 55.67"/><polygon class="cls-3" points="105.47 20.98 40.65 55.67 36.02 52.77 100.84 18.09 105.47 20.98"/><polygon class="cls-4" points="59.51 45.58 40.68 54.95 36.02 52.77 40.65 55.67 59.51 45.58"/><polygon class="cls-2" points="116.7 18.24 117.43 23.51 59.65 68.96 58.92 63.7 116.7 18.24"/><polygon class="cls-1" points="58.92 63.7 59.65 68.96 54.59 66.92 53.86 61.65 58.92 63.7"/><polygon class="cls-3" points="116.7 18.24 58.92 63.7 53.86 61.65 111.63 16.2 116.7 18.24"/><polygon class="cls-4" points="75.73 50.48 58.83 62.99 53.86 61.65 58.92 63.7 75.73 50.48"/></g></g></svg>