<svg xmlns="http://www.w3.org/2000/svg" viewBox="0 0 101.31 68.39"><defs><style>.cls-1{fill:#490200;}.cls-2{fill:#7d3900;}.cls-3{fill:#560f00;}.cls-4{fill:#631c00;}.cls-5{fill:#702905;}.cls-6{fill:#7d3612;}.cls-7{fill:#8a4605;}.cls-8{fill:#702c00;opacity:0.7;}.cls-9{fill:#975312;}.cls-10{fill:#a4601f;}.cls-11{fill:#3c0000;}.cls-12{fill:#2f0000;}</style></defs><title>Asset 5</title><g id="Layer_2" data-name="Layer 2"><g id="Ñëîé_1" data-name="Ñëîé 1"><path class="cls-1" d="M86,9.73C76.19,4.06,63.32,1.22,50.45,1.22S24.71,4.06,14.89,9.73.16,22.83.16,30.26V38c0,7.43,4.91,16.18,14.73,21.85s22.69,8.5,35.56,8.5S76.19,65.55,86,59.88s14.72-13.09,14.72-20.52v-9.1C100.74,22.83,95.83,15.4,86,9.73Z"/><path class="cls-2" d="M.73,34.59c1.09,1.27.93,2.06,1.38,2.93s1.44,1,1.44,2.14a3.94,3.94,0,0,0,1.51,2.76c.45.12,3.18,1.92,3.49,2.73s-.21.33,1.72,1.64,2.71,1.29,2.84,1.87,3.79,1.91,4.69,2.73,1.94.78,2.21,1.44,4.08,1.67,4.08,1.67a28.44,28.44,0,0,1,3.84.78,55.54,55.54,0,0,0,8.9,2.45c1.55.08,3.68-.18,4.09.45s5.51.69,6.73.49,5.68.08,7,.1A21.17,21.17,0,0,0,59.25,58a31.84,31.84,0,0,1,6.5-.83c.89.21,4.45-.9,4.94-1s4.29-1,5-1.32,4.08-1.43,5.27-2.65a2.19,2.19,0,0,1,2.49-.78A3.3,3.3,0,0,0,85.72,50c.38-.92,4.45-3.06,5.26-3.43s1.6-2.12,2.13-2.74,4-4.12,4.12-5,2-5.61,3.32-6.1a.51.51,0,0,1,0-.13h.16c1-1.4.38-4.19.3-4.68s-.49-4.11-1.17-4.79a12.54,12.54,0,0,1-1.58-1.84h0c-.18-.33-.38-.66-.59-1-.41-.84-.66-1.71-1-2.41a6.49,6.49,0,0,0-2.62-3.19c-1.84-1.26-1.94-1.61-1.73-2.26s-5-2.76-6.37-3.67-1.56-.57-2.59-1.35S77,4.56,75.1,3.82s-1.6-.16-3.57-.53a31,31,0,0,1-6.16-1.85c-2.05-.86-1.56.08-4.89.08s-10-.9-10.27-.9S47.82,1,46.75.25s-1.43.24-3,.78-7.72.9-9,.9a21,21,0,0,0-2.88.13c-1.23.12-2.14,1.19-4.27,1.52s-1.69.74-3.37,1.27a60.07,60.07,0,0,0-5.59,2.3c-1.56.7-3.42,2.41-5.09,2.59s-2.59,1.35-3.41,1.93-1.86,2.79-2.88,3.24a15,15,0,0,0-2.79,1.73c-.5.41-.5,2.55-1.77,3.37S1.6,21.78,1.32,21.82,1.11,23.5,1,24.24.54,25.51.16,27.12a7.68,7.68,0,0,0,0,3.14A17,17,0,0,0,.73,34.59Z"/><path class="cls-3" d="M5,49.56c-.26-.72-3.18-6.34-2.85-7s2.31,1,2.85,2.19a15,15,0,0,0,3.65,3.86c1.22.94,4.24,1.35,5.24,2.43s4.58,2.3,5.05,3.18-2.64.89-3.92,0a9.16,9.16,0,0,0-4.46-1.15C10.46,53.29,6,52.3,5,49.56Z"/><path class="cls-3" d="M33.07,58.36c-4.79-1.08-8.73-2.91-9.48-2s1.83,2.44,3.19,3.45,2.53,3,4.51,3.39a13.21,13.21,0,0,0,5.24.4c1.48-.33,2.91-.06,6.63.14s6.09-1,4.26-1.9S40.52,60.06,33.07,58.36Z"/><path class="cls-3" d="M65,59.29c-6.66.53-10.7-.18-10.5,1.71s-1.28,3,4.07,2.8S69,62.85,72.27,61.55,82.76,57.75,83,55.79s-5.68.54-8.26,1.69S68.54,59,65,59.29Z"/><path class="cls-3" d="M96.37,44.49c-1.61,1.23-3.59,3.52-5,4.46s-4.87,2.71-5.69,3.86-1.28,3.81.75,3.33a11.47,11.47,0,0,0,5.82-3.67C93.66,50.71,95.29,49,97.45,46S99.63,42,96.37,44.49Z"/><path class="cls-4" d="M4.93,45.36c-.31-.45-1.47-1.65-1.17-.66s.39,2.16,1.32,3,.6,1.14,2.37,2.13a9.45,9.45,0,0,0,3.42,1.35c1.71.45,3.81.24,1.5-.33s-4.53-1.77-4.95-2.4S4.93,45.36,4.93,45.36Z"/><path class="cls-5" d="M17.54,53.58a18.77,18.77,0,0,0-3-1.48c-.51-.05-1,.37-.37,1S15,54.16,16,54.21,19.06,54.44,17.54,53.58Z"/><path class="cls-6" d="M16.46,53.18c-1-.41-1.45-1-1.59-.54s-.06,1.07.64,1.12S17.57,53.64,16.46,53.18Z"/><path class="cls-7" d="M42.6,25.18a6.17,6.17,0,0,1,.28-.75,43.39,43.39,0,0,1-5.65,1c-1.1.27-2.47,2.31-3.69,3.63a7.47,7.47,0,0,1-2.38,1.43c1.36.7,3.2,1.3,4.18.28a14.83,14.83,0,0,1,4.08-3.2C40.86,26.74,42.44,25.89,42.6,25.18Z"/><path class="cls-7" d="M9.49,27.56a15.62,15.62,0,0,0,1.8-3,4.67,4.67,0,0,1-.91,1c-.59.34-1.91,1.73-2.86,1.65S4.69,28.79,4,29.67c-.53.69-2.44,1.27-3.81,1.57a16.66,16.66,0,0,0,.26,2.11A12.41,12.41,0,0,0,4.34,32C6,30.91,9,27.84,9.49,27.56Z"/><path class="cls-7" d="M42.14,7.16,39.46,8.71c-.33.19-1.72,1.94-2.57,2.26s-3.77.11-4.51,1a6.33,6.33,0,0,0-.7,1,3.23,3.23,0,0,0,2.66.6A16.35,16.35,0,0,0,40,10.19,20.19,20.19,0,0,0,42.5,7Z"/><path class="cls-7" d="M64.73,11.42c-2.15,1.82-6.57,2.8-7.28,3.21l-1.65,1a6.58,6.58,0,0,0,5.44-.36c1.36-1,4.89-2.92,5.4-3.81a7.82,7.82,0,0,0,.64-2.12C66.72,9.83,66,10.36,64.73,11.42Z"/><path class="cls-7" d="M63.36,29.39,64,28.15c-1.13.09-2.4.22-2.86.74-.76.87-1.14,2-2.49,3.69s-6.35,1.79-7.43,2.06a2.89,2.89,0,0,0-1.18.78,4.12,4.12,0,0,0,2.85.09c4.54-1,2.57-.58,5.93-2.49S62.3,31.37,63.36,29.39Z"/><path class="cls-7" d="M27.33,48.79c-1.21.17-2.54,2.71-2.54,2.71a12.2,12.2,0,0,0-4,1.61l-.11.22a18.28,18.28,0,0,0,2.3.85,18,18,0,0,0,2.95-1.69c.91-.74,2.95-3.3,3.56-3.83a3,3,0,0,0,.39-.46A18.61,18.61,0,0,1,27.33,48.79Z"/><path class="cls-7" d="M57.3,52.73c.15-.91,1.89-1.66,2.5-2.12a5.43,5.43,0,0,0,.89-1.23,13.35,13.35,0,0,1-3.46.94c-.88,0-1.53,1.43-2.12,1.78s-1.91,1.73-2.86,1.65-2.84,1.63-3.52,2.52a2.42,2.42,0,0,1-.91.64c1.27.38,2.54.52,3.34-.08C53,55.46,57.16,53.64,57.3,52.73Z"/><path class="cls-7" d="M90.3,32.56c-1.58.59-3,1-3.43,1.2l-2.69,1.55c-.33.19-1.71,1.94-2.56,2.26a5.63,5.63,0,0,1-1.29.19,1.15,1.15,0,0,0,1.22.71c2,0,5.36-2.07,5.52-3S89.16,33.65,90,33A1.8,1.8,0,0,0,90.3,32.56Z"/><path class="cls-8" d="M43.71,1c-1.6.53-7.72.9-9,.9a21,21,0,0,0-2.88.13,3.14,3.14,0,0,0-1,.29c-.35,1.71-.71,3.46-.9,4-.4,1-4.24,3.23-7.24,4.87s-.57,3,0,3,7.07-3,9.61-6,7.58-2.94,9.9-4.52A9.58,9.58,0,0,0,44.8.54,6.71,6.71,0,0,1,43.71,1Z"/><path class="cls-8" d="M17.88,10.61c-1.33.93-2.09,2.78-5,4.25s-6.67,2-7.64,4.07-2.94,5.49-2.2,6.25,4-3,7.48-4.16,8.19-4.75,8.07-5.65a9.89,9.89,0,0,1,2.32-5.18C22.12,9.09,24.38,6.09,17.88,10.61Z"/><path class="cls-8" d="M41.13,14.74c-2.2,1.18-6.68,3.57-8,4.19S32,19.5,29.42,22.1s-7.47,5.09-9.79,6-2.26,3.68-1.18,3.51,2.94-1.48,7.18-2.72,5.43-.72,8.88-2.93.06-4.19,5.54-5.16,8.77-2.64,8.32-4.4S47.59,11.3,41.13,14.74Z"/><path class="cls-8" d="M70.5,3.07a31.1,31.1,0,0,1-4.85-1.52,33.86,33.86,0,0,1-7,3.5C55.43,6.14,52.5,7.67,51.2,9.88s.39,3.12,2.32,2.78,6.73-.18,7.75-1.76a19.32,19.32,0,0,1,4.52-4.33C66.43,6.15,68.66,4.54,70.5,3.07Z"/><path class="cls-8" d="M83.67,13.26A51.21,51.21,0,0,0,90.33,11c-1.56-.8-3.58-1.71-4.38-2.23-1.4-.9-1.56-.57-2.59-1.35A5.16,5.16,0,0,0,82.68,7a29.78,29.78,0,0,1-4.33,3.74A83.22,83.22,0,0,1,70.15,16c-2.15,1.11-6.22,2.56-6.51,3.82s2.83,3.74,4.13,2.89,5.15-1.7,5.09-3.28.4-1.87,1.93-2.32,3-2.55,4.47-2.94S83.5,13.42,83.67,13.26Z"/><path class="cls-8" d="M45.26,30.76c-4.88,3.06-9.67,1.93-7.75,4.05s6.7,2.79,10.9-.27,8.51-4.91,10.43-7,7.52-5.34,2.49-4.67-7.19,1.53-9.62,3.62A42.83,42.83,0,0,1,45.26,30.76Z"/><path class="cls-8" d="M31.16,39.35C25.76,41,23,43.62,20.68,44.77s-4.63,1.84-5.87,3.09,1.83,2.86,3.86,3,3.74-1.29,8-3.73S38.16,37.26,31.16,39.35Z"/><path class="cls-8" d="M49.05,44.27c-4.44,2.48-7.69,1.19-7.13,3.57s-3.05,5.23-4,5.47.4,2.17,3.06,2.17S49.44,52,51.82,50.84s7.41-5.21,9.62-7,8.22-7.13,1.93-5.35A63.05,63.05,0,0,0,49.05,44.27Z"/><path class="cls-8" d="M96.67,17.87l-.13-.28c-2,.31-4,.8-4.57,1.29-1.06,1-5.76,5.75-7.79,7s-5.66,1.17-9.45,4.51c-3.62,3.18-7.21,2.95-7.45,4.39s3.49,3.7,5.36,3,4.64-4.55,8.26-5.27,3.5.63,8.14-3.84,6-5.94,6.17-7c.07-.45,1.09-1.22,2.22-2C97.16,19.06,96.94,18.41,96.67,17.87Z"/><path class="cls-8" d="M92.93,38.79c-5.74,3.29-7.9,3.79-10.68,5.54s-9,.34-7.24,3.68,5-.17,7.47-.51,8.37-3.9,10.13-5.15S98.06,35.85,92.93,38.79Z"/><path class="cls-7" d="M15.33,29.39c-1,1.54-2.41,2.54-5.52,3.5S2.56,34.68,6,36.62s5.58.14,6.59-.48,3.21-.74,3.77-3.58S16.64,27.4,15.33,29.39Z"/><path class="cls-7" d="M27.13,13.26c-1.63,1-6.28,2-3.38,2.31s5.32-.55,5.45-2S29.34,11.85,27.13,13.26Z"/><path class="cls-7" d="M36.66,6.57c-2.58,1.31-5.75,3.54-2.57,3.34S38.45,6.73,40.18,6,40.11,4.81,36.66,6.57Z"/><path class="cls-7" d="M49.4,13.26c-1.47,1.48-1.89,4.06,0,3.63S55.78,14.84,54,14,50.27,12.4,49.4,13.26Z"/><path class="cls-7" d="M77,16.74c-1,1-1.81,1.45-1.94,2.42s1.64,1.72,3,0,4.41-5,2.3-4.22S78.4,15.32,77,16.74Z"/><path class="cls-7" d="M70,40c-3.34,1.73-5.46,2.08-4.63,2.72s5.71-.26,6.72-1.92S72.21,38.89,70,40Z"/><path class="cls-7" d="M64.41,35.7c-3,.93-5.78,1.56-3.79,1.79s5.56-1.15,5.54-2.39S66.46,35.06,64.41,35.7Z"/><path class="cls-7" d="M72.09,50.84c-1.43.65-5.82,1.92-7.13,2.93s.2,2.59,2.31,2.11a45,45,0,0,0,7.14-2.75C75.86,52.43,77.91,48.22,72.09,50.84Z"/><path class="cls-7" d="M95.88,23.6c-1.51,1.51,0,2.25-2.65,3.63s-5.63,3.53-3.42,3.53,7.94-4.46,8.07-6.24S98.32,21.17,95.88,23.6Z"/><path class="cls-7" d="M33.07,36c-2.08.72-.3,1.29,1,2.07s.06,2.94,1.25,3,6-1.18,5.5-2.17S36.52,34.84,33.07,36Z"/><path class="cls-9" d="M37.07,50.84c-1.36.4-5.63,1.65-5.51,2.47s1.74,1.15,3.64-.13S40.06,50,37.07,50.84Z"/><path class="cls-9" d="M23.17,30.76c-1.66.82-5.68,1.21-4.77,2.31a2.67,2.67,0,0,0,4.08,0C23.91,31.65,25.78,29.47,23.17,30.76Z"/><path class="cls-9" d="M18.27,17.51c-1.18.72-2,2.34-4.12,3.3s.52.89,1.61.64S22.47,15,18.27,17.51Z"/><path class="cls-9" d="M26,5.39c-1.31.75-3.34.79-2.56,2s2.3,1.71,3.34.29S29,3.67,26,5.39Z"/><path class="cls-9" d="M47.07,2c-1.9,1.36-5.29,2.79-3.64,3s5.76-2.93,5.85-3.28S49.14.55,47.07,2Z"/><path class="cls-9" d="M48.8,9.1c-1.82,1.67-5.46,3.09-3.38,3.32s2.56,1.89,3.56,0S50.13,7.88,48.8,9.1Z"/><path class="cls-9" d="M61.25,19.83c-2.78,1.4-4.12,2.11-2.64,2.15s3.16.22,3.55-1.52S63.59,18.64,61.25,19.83Z"/><path class="cls-9" d="M83.89,23.24c-1.24-1.24-2.3.94-4.81,2.29s-6.28,3.5-4.9,3.86,4.21-1.94,5.51-2.83S85,24.39,83.89,23.24Z"/><path class="cls-9" d="M81.9,49c-1.25.68-7,3-3.91,2.52s9.94-3,9.42-3.82S83.4,48.19,81.9,49Z"/><path class="cls-9" d="M61.51,44.91c-1.27.47-5.46,3.68-5.85,4.47s2.73-.89,4-1.52S64.9,43.69,61.51,44.91Z"/><path class="cls-10" d="M22.23,31.77c-1.16.09-2.89.61-2.36,1s.85.49,1.56,0S23.15,31.71,22.23,31.77Z"/><path class="cls-4" d="M30.65,58.77c-1.82-.67-4.57-1.88-4.51-1.25s3.51,2.73,6,3,5.86.83,6.23.64S33.21,59.72,30.65,58.77Z"/><path class="cls-4" d="M40.87,60.89c-1.39-.17-1.33,1.27-.76,1.71s4.13.76,5.2.64S46.3,61.55,40.87,60.89Z"/><path class="cls-4" d="M56.36,60.32c-1,0-1.85,1.71-.73,2.41S66,61.37,68.85,60.88s4.25-1.78,3.24-1.58S59.85,60.32,56.36,60.32Z"/><path class="cls-4" d="M88.41,51.58c-1,.5-2.22,2-2,2.6s3.23.18,4.31-.87,4.93-6,3.29-5.11S91.31,50.1,88.41,51.58Z"/><path class="cls-6" d="M41.16,61.25c-.61-.09-1,.52-.46.82a6,6,0,0,0,2.9.27C44.15,62.17,42.58,61.46,41.16,61.25Z"/><path class="cls-6" d="M56.72,60.88c-.72.17-1.42.72-.73.95s2.52-.19,3.83-.48S58.69,60.39,56.72,60.88Z"/><path class="cls-6" d="M80.05,56.19c-.71.26-3.17,1-1.84,1.23S82,56,81.57,56A2.91,2.91,0,0,0,80.05,56.19Z"/><path class="cls-6" d="M89.34,51.89c-1.06,1.06-.84,1.78,0,1.09s2.66-2.54,3-2.86S91.26,50,89.34,51.89Z"/><path class="cls-11" d="M94.79,51.62c-1.17.53-9.37,5.83-10.6,6.16s-3,3.24-4.14,3.52-9.64,3.12-12.78,3.12-14,1.17-14.15,1-2.23-2.18-2.67-1.55a7.06,7.06,0,0,1-3,1.66c-.45,0-7.82.56-8.6.67s-7-1.12-8.73-2.06-6.94-4.24-7.56-5.32S20.88,56,20.21,56.14s-.73.86-2.91,0-6.08-.87-7.36-1.08a20,20,0,0,1-2.07-.49,35,35,0,0,0,7,5.32c9.82,5.66,22.69,8.5,35.56,8.5S76.19,65.55,86,59.88c8-4.62,12.74-10.41,14.22-16.41C96.32,44.72,95.92,51.11,94.79,51.62Z"/><path class="cls-12" d="M14.89,59.89a57.24,57.24,0,0,0,10.76,4.72c-.95-1.2-1.47-2.22-2.43-2.78-2-1.17-3.13-2.34-6.35-4.23-1.83-1.07-4.41-1-6.41-.73A36.59,36.59,0,0,0,14.89,59.89Z"/><path class="cls-12" d="M50.45,68.39c1.18,0,2.36,0,3.53-.08a18.78,18.78,0,0,0-2.7-1.59c-.87-.39-3.8.53-7.3,1.42C46.13,68.3,48.29,68.39,50.45,68.39Z"/><path class="cls-12" d="M86,59.88c.84-.48,1.64-1,2.41-1.5a17.47,17.47,0,0,0-2-.24c-.4,0-.93,1-1.48,2.33C85.29,60.28,85.66,60.09,86,59.88Z"/><path class="cls-12" d="M40.43,46.39c-1.6.45.21-1.48-.7-2.45,1.82,0,3.64,0,1,2.39A.81.81,0,0,1,40.43,46.39Z"/><path class="cls-12" d="M62.87,13.33c-1.6.46.22-1.48-.69-2.44,1.82,0,3.63,0,1,2.38A.87.87,0,0,1,62.87,13.33Z"/><path class="cls-12" d="M76.31,17.48c-1.6.46.22-1.48-.69-2.44,1.82,0,3.63,0,1,2.39A1.13,1.13,0,0,1,76.31,17.48Z"/><path class="cls-12" d="M87.42,32.28c-1.6.45.22-1.48-.69-2.45,1.82,0,3.63,0,1,2.39A.81.81,0,0,1,87.42,32.28Z"/><path class="cls-12" d="M60.18,28.06c-1.6.45.21-1.48-.69-2.45,1.81,0,3.63,0,1,2.39A.81.81,0,0,1,60.18,28.06Z"/><path class="cls-12" d="M55.27,49c-1.6.46.22-1.47-.69-2.44,1.82,0,3.63,0,1,2.39A1.13,1.13,0,0,1,55.27,49Z"/><path class="cls-12" d="M78.26,41.62c-1.6.46.21-1.47-.69-2.44,1.81,0,3.63,0,1,2.39A.81.81,0,0,1,78.26,41.62Z"/><path class="cls-12" d="M88.9,19.42c-1.6.45.22-1.48-.69-2.45,1.82,0,3.63,0,1,2.39A.87.87,0,0,1,88.9,19.42Z"/><path class="cls-12" d="M45.05,54.24c-1.6.45.22-1.48-.69-2.45,1.82,0,3.63,0,1,2.39A.87.87,0,0,1,45.05,54.24Z"/><path class="cls-12" d="M73.6,9.56c-1.6.46.22-1.47-.69-2.44,1.82,0,3.63,0,1,2.39A1.13,1.13,0,0,1,73.6,9.56Z"/><path class="cls-12" d="M51,6.35c-1.61.46.21-1.48-.7-2.45,1.82,0,3.64,0,1,2.39A.81.81,0,0,1,51,6.35Z"/><path class="cls-12" d="M71.16,41.62c-1.6.46.22-1.47-.69-2.44,1.82,0,3.63,0,1,2.39A.86.86,0,0,1,71.16,41.62Z"/><path class="cls-12" d="M91.65,38.53c-1.61.45.21-1.48-.7-2.45,1.82,0,3.64,0,1,2.39A.85.85,0,0,1,91.65,38.53Z"/><path class="cls-12" d="M46.45,23.36c-1.61.46.21-1.48-.7-2.45,1.82,0,3.64,0,1,2.39A.85.85,0,0,1,46.45,23.36Z"/><path class="cls-12" d="M67.72,26.34c-1.6.46.22-1.48-.69-2.44,1.81,0,3.63,0,1,2.39A1.06,1.06,0,0,1,67.72,26.34Z"/><path class="cls-12" d="M86.26,44.14c-1.6.46.21-1.48-.69-2.45,1.81,0,3.63,0,1,2.39A.81.81,0,0,1,86.26,44.14Z"/><path class="cls-12" d="M4.91,47c-1.33.38.18-1.22-.57-2,1.5,0,3,0,.83,2A.75.75,0,0,1,4.91,47Z"/><path class="cls-12" d="M23.5,19.6c-1.32.38.18-1.23-.57-2,1.5,0,3,0,.83,2A.75.75,0,0,1,23.5,19.6Z"/><path class="cls-12" d="M34.64,23c-1.33.37.17-1.23-.58-2,1.51,0,3,0,.84,2A.8.8,0,0,1,34.64,23Z"/><path class="cls-12" d="M43.84,35.29c-1.33.38.18-1.22-.58-2,1.51,0,3,0,.84,2A.75.75,0,0,1,43.84,35.29Z"/><path class="cls-12" d="M21.27,31.8c-1.32.37.18-1.23-.57-2,1.5,0,3,0,.83,2A.75.75,0,0,1,21.27,31.8Z"/><path class="cls-12" d="M17.21,49.17c-1.33.38.18-1.22-.58-2,1.51,0,3,0,.84,2A.75.75,0,0,1,17.21,49.17Z"/><path class="cls-12" d="M50.88,12.38c-1.33.38.18-1.22-.57-2,1.5,0,3,0,.83,2A.75.75,0,0,1,50.88,12.38Z"/><path class="cls-12" d="M46,29c-1.33.37.18-1.23-.58-2,1.51,0,3,0,.84,2A.8.8,0,0,1,46,29Z"/><path class="cls-12" d="M8.74,53.48c-1.32.38.18-1.22-.57-2,1.5,0,3,0,.83,2A.75.75,0,0,1,8.74,53.48Z"/><path class="cls-12" d="M32.39,16.48c-1.33.38.18-1.23-.57-2,1.5,0,3,0,.83,2A.75.75,0,0,1,32.39,16.48Z"/><path class="cls-12" d="M13.68,13.81c-1.33.38.17-1.22-.58-2,1.51,0,3,0,.83,2A.73.73,0,0,1,13.68,13.81Z"/><path class="cls-12" d="M30.37,43c-1.33.38.18-1.22-.57-2,1.5,0,3,0,.83,2A.75.75,0,0,1,30.37,43Z"/><path class="cls-12" d="M50.86,43.86c-1.33.38.18-1.23-.58-2,1.51,0,3,0,.84,2A.75.75,0,0,1,50.86,43.86Z"/><path class="cls-12" d="M9.9,27.9c-1.33.38.17-1.22-.58-2,1.51,0,3,0,.84,2A.78.78,0,0,1,9.9,27.9Z"/><path class="cls-12" d="M27.52,30.37c-1.33.38.18-1.22-.58-2,1.51,0,3,0,.84,2A.75.75,0,0,1,27.52,30.37Z"/><path class="cls-12" d="M39.09,56.14c-1.33.38.17-1.22-.58-2,1.51,0,3,0,.84,2A.8.8,0,0,1,39.09,56.14Z"/><path class="cls-12" d="M74.26,42.82c1.33.38-.18-1.23.58-2-1.51,0-3,0-.84,2A.8.8,0,0,0,74.26,42.82Z"/><path class="cls-12" d="M55.67,15.43c1.33.38-.18-1.22.58-2-1.51,0-3,0-.84,2A.75.75,0,0,0,55.67,15.43Z"/><path class="cls-12" d="M42.73,23.26c1.33.38-.18-1.22.58-2-1.51,0-3,0-.84,2A.75.75,0,0,0,42.73,23.26Z"/><path class="cls-12" d="M18.66,22.11c1.33.38-.18-1.23.58-2-1.51,0-3,0-.84,2A.75.75,0,0,0,18.66,22.11Z"/><path class="cls-12" d="M59,37.35c1.33.38-.18-1.23.57-2-1.5,0-3,0-.83,2A.75.75,0,0,0,59,37.35Z"/><path class="cls-12" d="M62,45c1.32.38-.18-1.23.57-2-1.5,0-3,0-.83,2A.75.75,0,0,0,62,45Z"/><path class="cls-12" d="M27.75,51.16c1.33.38-.18-1.22.58-2-1.51,0-3,0-.84,2A.75.75,0,0,0,27.75,51.16Z"/><path class="cls-12" d="M30,9.56c1.33.38-.17-1.22.58-2-1.51,0-3,0-.84,2A.78.78,0,0,0,30,9.56Z"/><path class="cls-12" d="M70.43,49.32c1.33.38-.18-1.22.58-2-1.51,0-3,0-.84,2A.8.8,0,0,0,70.43,49.32Z"/><path class="cls-12" d="M44.88,8.61c1.33.38-.18-1.22.57-2-1.5,0-3,0-.83,2A.75.75,0,0,0,44.88,8.61Z"/><path class="cls-12" d="M65.5,9.65c1.33.38-.18-1.22.57-2-1.5,0-3,0-.83,2A.75.75,0,0,0,65.5,9.65Z"/><path class="cls-12" d="M51.63,34.84c1.33.38-.17-1.22.58-2-1.51,0-3,0-.83,2A.69.69,0,0,0,51.63,34.84Z"/><path class="cls-12" d="M24.37,39.43c1.33.38-.18-1.23.58-2-1.51,0-3,0-.84,2A.8.8,0,0,0,24.37,39.43Z"/><path class="cls-12" d="M64,20.17c1.33.38-.17-1.22.58-2-1.51,0-3,0-.84,2A.78.78,0,0,0,64,20.17Z"/><path class="cls-12" d="M51.65,26.21c1.33.38-.17-1.22.58-2-1.51,0-3,0-.83,2A.73.73,0,0,0,51.65,26.21Z"/><path class="cls-12" d="M37.52,33.83c1.33.38-.18-1.22.58-2-1.51,0-3,0-.84,2A.78.78,0,0,0,37.52,33.83Z"/><path class="cls-12" d="M59.16,48.6c-1.33.38.17-1.23-.58-2,1.51,0,3,0,.84,2A.8.8,0,0,1,59.16,48.6Z"/><path class="cls-12" d="M77.75,21.21c-1.33.38.18-1.22-.58-2,1.51,0,3,0,.84,2A.78.78,0,0,1,77.75,21.21Z"/><path class="cls-12" d="M86.34,23.74c-1.33.38.18-1.22-.57-2,1.5,0,3,0,.83,2A.75.75,0,0,1,86.34,23.74Z"/><path class="cls-12" d="M97.7,37.89c-1.33.38.17-1.22-.58-2,1.51,0,3,0,.83,2A.69.69,0,0,1,97.7,37.89Z"/><path class="cls-12" d="M75.52,33.41c-1.33.38.17-1.22-.58-2,1.51,0,3,0,.84,2A.78.78,0,0,1,75.52,33.41Z"/><path class="cls-12" d="M79.5,51.83c-1.33.38.18-1.22-.57-2,1.5,0,3,0,.83,2A.75.75,0,0,1,79.5,51.83Z"/><path class="cls-12" d="M51.82,57.25c-1.33.38.18-1.22-.57-2,1.5,0,3,0,.83,2A.75.75,0,0,1,51.82,57.25Z"/><path class="cls-12" d="M94.1,23c-1.33.37.18-1.23-.57-2,1.5,0,3,0,.83,2A.75.75,0,0,1,94.1,23Z"/><path class="cls-12" d="M63,55.1c-1.33.38.17-1.22-.58-2,1.51,0,3,0,.84,2A.8.8,0,0,1,63,55.1Z"/><path class="cls-12" d="M80.54,13c-1.33.37.18-1.23-.57-2,1.5,0,3,0,.83,2A.75.75,0,0,1,80.54,13Z"/><path class="cls-12" d="M67.92,15.43c-1.33.38.18-1.22-.58-2,1.51,0,3,0,.84,2A.75.75,0,0,1,67.92,15.43Z"/><path class="cls-12" d="M79.21,46.18c-1.33.38.17-1.22-.58-2,1.51,0,3,0,.84,2A.78.78,0,0,1,79.21,46.18Z"/><path class="cls-12" d="M65.69,37.35c-1.33.38.17-1.23-.58-2,1.51,0,3,0,.84,2A.8.8,0,0,1,65.69,37.35Z"/><path class="cls-12" d="M64.14,29.52c-1.33.38.18-1.22-.57-2,1.5,0,3,0,.83,2A.75.75,0,0,1,64.14,29.52Z"/><path class="cls-12" d="M81.76,32c-1.32.38.18-1.22-.57-2,1.5,0,3,0,.83,2A1.09,1.09,0,0,1,81.76,32Z"/><path class="cls-12" d="M96,47.44c-1.33.38.17-1.22-.58-2,1.51,0,3,0,.84,2A.8.8,0,0,1,96,47.44Z"/></g></g></svg>