<svg xmlns="http://www.w3.org/2000/svg" viewBox="0 0 110.82 68.39"><defs><style>.cls-1{fill:#f88705;}.cls-2{fill:#feae1b;}.cls-3{fill:#ee7504;}.cls-4{fill:#ffc635;}.cls-5{fill:#f5ab44;}.cls-6{fill:#ffcf56;}.cls-7{fill:#f5c93a;}.cls-8{fill:#fcc71a;opacity:0.7;}.cls-9{fill:#fcc649;}.cls-10{fill:#fcca54;}.cls-11{fill:#eb6800;}.cls-12{fill:#ec6001;}.cls-13{fill:#c14e00;}.cls-14{fill:#efba95;}.cls-15{fill:#e95e00;}</style></defs><title>Asset 9</title><g id="Layer_2" data-name="Layer 2"><g id="Ñëîé_1" data-name="Ñëîé 1"><path class="cls-1" d="M94.09,9.73C83.35,4.06,69.27,1.22,55.19,1.22S27,4.06,16.29,9.73.18,22.83.18,30.26V38c0,7.43,5.37,16.18,16.11,21.85s24.82,8.5,38.9,8.5,28.16-2.84,38.9-8.51S110.2,46.79,110.2,39.36v-9.1C110.2,22.83,104.83,15.4,94.09,9.73Z"/><path class="cls-2" d="M.8,34.59c1.19,1.27,1,2.06,1.5,2.93s1.58,1,1.58,2.14a3.86,3.86,0,0,0,1.66,2.76C6,42.54,9,44.34,9.35,45.15s-.23.33,1.89,1.64,3,1.29,3.1,1.87,4.15,1.91,5.13,2.73,2.13.78,2.42,1.44,4.46,1.67,4.46,1.67a33.77,33.77,0,0,1,4.2.78,65.6,65.6,0,0,0,9.74,2.45c1.7.08,4-.18,4.47.45s6,.69,7.37.49,6.21.09,7.64.1a25.39,25.39,0,0,0,5-.75,37.85,37.85,0,0,1,7.1-.83c1,.21,4.87-.9,5.41-1s4.69-1,5.45-1.32,4.47-1.43,5.76-2.65a2.56,2.56,0,0,1,2.73-.78A3.64,3.64,0,0,0,93.77,50c.42-.92,4.87-3.06,5.76-3.43s1.75-2.12,2.33-2.74,4.33-4.12,4.51-5,2.18-5.61,3.63-6.1a.51.51,0,0,1,0-.13h.18c1.12-1.4.41-4.19.32-4.68s-.54-4.11-1.28-4.79a13.34,13.34,0,0,1-1.73-1.84h0c-.2-.33-.42-.66-.64-1-.45-.84-.72-1.71-1.1-2.41a6.67,6.67,0,0,0-2.87-3.19c-2-1.26-2.12-1.61-1.9-2.26s-5.44-2.76-7-3.67S92.32,8.18,91.2,7.4s-7-2.84-9-3.58-1.75-.16-3.91-.53a36.35,36.35,0,0,1-6.74-1.85c-2.24-.86-1.71.08-5.35.08S55.24.62,54.92.62,52.32,1,51.15.25,49.58.49,47.82,1s-8.45.9-9.84.9a25.21,25.21,0,0,0-3.15.13c-1.35.12-2.33,1.19-4.67,1.52s-1.84.74-3.69,1.27-4.4,1.6-6.11,2.3-3.74,2.41-5.57,2.59S12,11.09,11.06,11.67s-2,2.79-3.15,3.24a17.21,17.21,0,0,0-3.06,1.73c-.54.41-.54,2.55-1.93,3.37s-1.17,1.77-1.48,1.81-.23,1.68-.31,2.42S.59,25.51.18,27.12a7.12,7.12,0,0,0,0,3.14A15.79,15.79,0,0,0,.8,34.59Z"/><path class="cls-3" d="M5.45,49.56c-.29-.72-3.49-6.34-3.12-7s2.52,1,3.12,2.19a15.69,15.69,0,0,0,4,3.86c1.34.94,4.64,1.35,5.73,2.43s5,2.3,5.53,3.18-2.89.89-4.29,0a10.79,10.79,0,0,0-4.88-1.15C11.44,53.29,6.52,52.3,5.45,49.56Z"/><path class="cls-3" d="M36.18,58.36c-5.24-1.08-9.55-2.91-10.37-2s2,2.44,3.48,3.45,2.77,3,4.94,3.39a15.74,15.74,0,0,0,5.73.4c1.63-.33,3.18-.06,7.26.14s6.66-1,4.66-1.9S44.33,60.06,36.18,58.36Z"/><path class="cls-3" d="M71.06,59.29c-7.28.53-11.7-.18-11.48,1.71S58.17,64,64,63.8s11.48-.95,15-2.25,11.48-3.8,11.77-5.76-6.22.54-9,1.69S75,59,71.06,59.29Z"/><path class="cls-3" d="M105.42,44.49C103.66,45.72,101.5,48,99.94,49s-5.33,2.71-6.22,3.86-1.41,3.81.82,3.33a12.79,12.79,0,0,0,6.37-3.67c1.55-1.76,3.33-3.52,5.7-6.43S109,42,105.42,44.49Z"/><path class="cls-4" d="M5.39,45.36c-.33-.45-1.61-1.65-1.28-.66s.43,2.16,1.44,3,.66,1.14,2.6,2.13a10.88,10.88,0,0,0,3.74,1.35c1.87.45,4.17.24,1.64-.33s-5-1.77-5.42-2.4S5.39,45.36,5.39,45.36Z"/><path class="cls-5" d="M19.18,53.58A21.2,21.2,0,0,0,15.9,52.1c-.57-.05-1.06.37-.41,1s1,1.1,2,1.15S20.85,54.44,19.18,53.58Z"/><path class="cls-6" d="M18,53.18c-1.07-.41-1.59-1-1.74-.54a.77.77,0,0,0,.7,1.12C17.74,53.81,19.22,53.64,18,53.18Z"/><path class="cls-7" d="M46.61,25.18a5.6,5.6,0,0,1,.3-.75,51.6,51.6,0,0,1-6.18,1c-1.2.27-2.7,2.31-4,3.63a8.25,8.25,0,0,1-2.6,1.43c1.48.7,3.5,1.3,4.57.28a16.26,16.26,0,0,1,4.46-3.2C44.7,26.74,46.43,25.89,46.61,25.18Z"/><path class="cls-7" d="M10.38,27.56a15.43,15.43,0,0,0,2-3,4.75,4.75,0,0,1-1,1c-.65.34-2.09,1.73-3.13,1.65s-3.1,1.64-3.84,2.52c-.59.69-2.67,1.27-4.17,1.57A15.05,15.05,0,0,0,.5,33.35,14.29,14.29,0,0,0,4.74,32C6.57,30.91,9.88,27.84,10.38,27.56Z"/><path class="cls-7" d="M46.1,7.16,43.16,8.71c-.36.19-1.87,1.94-2.8,2.26s-4.13.11-4.94,1a6.61,6.61,0,0,0-.77,1,3.83,3.83,0,0,0,2.92.6,18.31,18.31,0,0,0,6.21-3.34A20.25,20.25,0,0,0,46.49,7Z"/><path class="cls-7" d="M70.81,11.42c-2.35,1.82-7.19,2.8-8,3.21l-1.81,1A7.8,7.8,0,0,0,67,15.23c1.5-1,5.35-2.92,5.91-3.81a7.21,7.21,0,0,0,.7-2.11C73,9.83,72.18,10.36,70.81,11.42Z"/><path class="cls-7" d="M69.32,29.39,70,28.15c-1.23.09-2.62.22-3.12.74-.83.87-1.25,2-2.73,3.69s-6.94,1.79-8.13,2.06a3.15,3.15,0,0,0-1.28.78,4.87,4.87,0,0,0,3.11.09c5-1,2.81-.58,6.49-2.49S68.16,31.37,69.32,29.39Z"/><path class="cls-7" d="M29.9,48.79c-1.32.17-2.78,2.71-2.78,2.71a14,14,0,0,0-4.38,1.61l-.11.22a21.09,21.09,0,0,0,2.51.85,20.54,20.54,0,0,0,3.23-1.69c1-.74,3.23-3.3,3.89-3.83a2.89,2.89,0,0,0,.42-.46A21.73,21.73,0,0,1,29.9,48.79Z"/><path class="cls-7" d="M62.69,52.73c.16-.9,2.07-1.66,2.73-2.12a5.29,5.29,0,0,0,1-1.23,15.75,15.75,0,0,1-3.78.94c-1,0-1.67,1.43-2.33,1.78s-2.09,1.73-3.12,1.65-3.1,1.63-3.85,2.52a2.73,2.73,0,0,1-1,.64c1.38.38,2.77.52,3.65-.08C58,55.46,62.53,53.64,62.69,52.73Z"/><path class="cls-7" d="M98.79,32.56c-1.74.59-3.35,1-3.76,1.2l-2.94,1.55c-.36.19-1.87,1.94-2.8,2.26a6.75,6.75,0,0,1-1.42.19,1.29,1.29,0,0,0,1.34.71c2.24,0,5.87-2.07,6-3s2.28-1.86,3.16-2.49A1.76,1.76,0,0,0,98.79,32.56Z"/><path class="cls-8" d="M47.82,1c-1.75.53-8.45.9-9.84.9a25.21,25.21,0,0,0-3.15.13,3.58,3.58,0,0,0-1.1.29c-.38,1.71-.78,3.46-1,4-.43,1-4.64,3.23-7.92,4.87s-.62,3,0,3,7.74-3,10.52-6,8.29-2.94,10.83-4.52A9.83,9.83,0,0,0,49,.54,7.83,7.83,0,0,1,47.82,1Z"/><path class="cls-8" d="M19.56,10.61c-1.46.93-2.29,2.78-5.45,4.25s-7.3,2-8.35,4.07-3.22,5.49-2.42,6.25,4.43-3,8.19-4.16,9-4.75,8.83-5.65,1.24-4.08,2.54-5.18S26.67,6.09,19.56,10.61Z"/><path class="cls-8" d="M45,14.74c-2.4,1.18-7.3,3.57-8.78,4.19s-1.24.57-4,3.17-8.16,5.09-10.7,6-2.48,3.68-1.3,3.51S23.4,30.18,28,28.94,34,28.22,37.75,26s.07-4.19,6.07-5.16,9.59-2.64,9.1-4.4S52.06,11.3,45,14.74Z"/><path class="cls-8" d="M77.13,3.07a36,36,0,0,1-5.31-1.52,38.76,38.76,0,0,1-7.7,3.5C60.64,6.14,57.43,7.67,56,9.88s.43,3.12,2.54,2.78,7.36-.18,8.47-1.76a20.57,20.57,0,0,1,5-4.33C72.67,6.15,75.11,4.54,77.13,3.07Z"/><path class="cls-8" d="M91.53,13.26A60.05,60.05,0,0,0,98.82,11c-1.7-.8-3.92-1.71-4.79-2.23-1.53-.9-1.71-.57-2.83-1.35A7.26,7.26,0,0,0,90.45,7a31.73,31.73,0,0,1-4.74,3.74,91.61,91.61,0,0,1-9,5.28c-2.35,1.11-6.81,2.56-7.12,3.82s3.1,3.74,4.52,2.89,5.63-1.7,5.57-3.28.43-1.87,2.1-2.32,3.35-2.55,4.89-2.94S91.35,13.42,91.53,13.26Z"/><path class="cls-8" d="M49.51,30.76c-5.34,3.06-10.58,1.93-8.48,4.05S48.36,37.6,53,34.54s9.31-4.91,11.41-7,8.23-5.34,2.72-4.67-7.86,1.53-10.52,3.62A47.4,47.4,0,0,1,49.51,30.76Z"/><path class="cls-8" d="M34.09,39.35c-5.91,1.62-9,4.27-11.46,5.42s-5.08,1.84-6.43,3.09,2,2.86,4.23,3,4.08-1.29,8.78-3.73S41.74,37.26,34.09,39.35Z"/><path class="cls-8" d="M53.66,44.27c-4.86,2.48-8.42,1.19-7.8,3.57s-3.34,5.23-4.39,5.47.43,2.17,3.34,2.17S54.09,52,56.69,50.84s8.11-5.21,10.52-7,9-7.13,2.12-5.35A72.79,72.79,0,0,0,53.66,44.27Z"/><path class="cls-8" d="M105.76,17.87l-.15-.28c-2.15.31-4.41.8-5,1.29-1.16,1-6.29,5.75-8.52,7s-6.19,1.17-10.34,4.51c-4,3.18-7.89,2.95-8.15,4.39s3.82,3.7,5.86,3,5.08-4.55,9-5.27,3.83.63,8.91-3.84,6.56-5.94,6.74-7c.08-.45,1.2-1.22,2.43-2C106.29,19.06,106.05,18.41,105.76,17.87Z"/><path class="cls-8" d="M101.66,38.79C95.38,42.08,93,42.58,90,44.33s-9.84.34-7.92,3.68,5.51-.17,8.17-.51,9.16-3.9,11.08-5.15S107.27,35.85,101.66,38.79Z"/><path class="cls-7" d="M16.77,29.39c-1.11,1.54-2.64,2.54-6,3.5S2.8,34.68,6.58,36.62a6.53,6.53,0,0,0,7.2-.48c1.1-.62,3.52-.74,4.12-3.58S18.21,27.4,16.77,29.39Z"/><path class="cls-7" d="M29.68,13.26c-1.78,1-6.87,2-3.7,2.31s5.82-.55,6-2S32.1,11.85,29.68,13.26Z"/><path class="cls-7" d="M40.1,6.57c-2.82,1.31-6.29,3.54-2.8,3.34S42.07,6.73,44,6,43.88,4.81,40.1,6.57Z"/><path class="cls-7" d="M54.05,13.26c-1.62,1.48-2.07,4.06,0,3.63s7-2.05,5-2.93S55,12.4,54.05,13.26Z"/><path class="cls-7" d="M84.21,16.74c-1.08,1-2,1.45-2.12,2.42s1.79,1.72,3.27,0,4.83-5,2.51-4.22S85.77,15.32,84.21,16.74Z"/><path class="cls-7" d="M76.58,40c-3.65,1.73-6,2.08-5.06,2.72s6.24-.26,7.35-1.92S79,38.89,76.58,40Z"/><path class="cls-7" d="M70.46,35.7c-3.27.94-6.32,1.56-4.14,1.79s6.08-1.15,6.05-2.39S72.7,35.06,70.46,35.7Z"/><path class="cls-7" d="M78.87,50.84c-1.57.65-6.37,1.92-7.81,2.93s.22,2.59,2.53,2.11a52.34,52.34,0,0,0,7.82-2.75C83,52.43,85.24,48.22,78.87,50.84Z"/><path class="cls-7" d="M104.89,23.61c-1.65,1.5-.06,2.24-2.9,3.62s-6.16,3.53-3.74,3.53,8.68-4.46,8.83-6.24S107.55,21.17,104.89,23.61Z"/><path class="cls-7" d="M36.18,36c-2.28.72-.33,1.29,1.12,2.07s.06,2.94,1.36,3,6.52-1.18,6-2.17S40,34.84,36.18,36Z"/><path class="cls-9" d="M40.56,50.84c-1.49.4-6.16,1.65-6,2.47s1.9,1.15,4-.13S43.82,50,40.56,50.84Z"/><path class="cls-9" d="M25.35,30.76c-1.82.82-6.22,1.21-5.22,2.31a3.1,3.1,0,0,0,4.46,0C26.16,31.65,28.2,29.47,25.35,30.76Z"/><path class="cls-9" d="M20,17.51c-1.29.72-2.18,2.34-4.51,3.3s.57.89,1.76.64S24.58,15,20,17.51Z"/><path class="cls-9" d="M28.48,5.39c-1.43.75-3.65.79-2.8,2s2.52,1.71,3.66.29S31.76,3.67,28.48,5.39Z"/><path class="cls-9" d="M51.49,2c-2.07,1.36-5.78,2.79-4,3s6.31-2.93,6.4-3.28S53.75.55,51.49,2Z"/><path class="cls-9" d="M53.39,9.1c-2,1.67-6,3.09-3.7,3.32s2.8,1.89,3.89,0S54.85,7.88,53.39,9.1Z"/><path class="cls-9" d="M67,19.83c-3,1.4-4.51,2.11-2.9,2.15s3.47.22,3.9-1.52S69.56,18.64,67,19.83Z"/><path class="cls-9" d="M91.78,23.24c-1.36-1.24-2.52.94-5.27,2.29s-6.87,3.5-5.36,3.86,4.6-1.94,6-2.83S93,24.39,91.78,23.24Z"/><path class="cls-9" d="M89.59,49c-1.36.68-7.68,3-4.27,2.52s10.87-3,10.3-3.82S91.24,48.19,89.59,49Z"/><path class="cls-9" d="M67.29,44.91c-1.39.47-6,3.68-6.4,4.47s3-.89,4.41-1.52S71,43.69,67.29,44.91Z"/><path class="cls-10" d="M24.32,31.77c-1.27.09-3.16.61-2.58,1s.92.49,1.7,0S25.32,31.71,24.32,31.77Z"/><path class="cls-4" d="M33.53,58.77c-2-.67-5-1.88-4.93-1.25s3.83,2.73,6.53,3,6.42.83,6.82.64S36.33,59.72,33.53,58.77Z"/><path class="cls-4" d="M44.72,60.89c-1.54-.17-1.47,1.27-.84,1.71s4.51.76,5.69.64S50.65,61.55,44.72,60.89Z"/><path class="cls-4" d="M61.65,60.32c-1.13,0-2,1.71-.8,2.41s11.33-1.36,14.47-1.85S80,59.1,78.87,59.3,65.47,60.32,61.65,60.32Z"/><path class="cls-4" d="M96.72,51.58c-1.07.5-2.43,2-2.15,2.6s3.54.18,4.72-.87,5.39-6,3.6-5.11S99.89,50.1,96.72,51.58Z"/><path class="cls-6" d="M45,61.25c-.67-.09-1.14.52-.51.82a7.19,7.19,0,0,0,3.17.27C48.29,62.17,46.58,61.46,45,61.25Z"/><path class="cls-6" d="M62.05,60.88c-.78.17-1.55.72-.79.95s2.75-.19,4.18-.48S64.2,60.39,62.05,60.88Z"/><path class="cls-6" d="M87.58,56.19c-.79.26-3.48,1-2,1.23S89.65,56,89.24,56A3.44,3.44,0,0,0,87.58,56.19Z"/><path class="cls-6" d="M97.73,51.89c-1.16,1.06-.92,1.78,0,1.09s2.92-2.54,3.33-2.86S99.84,50,97.73,51.89Z"/><path class="cls-11" d="M103.7,51.62c-1.28.53-10.25,5.83-11.59,6.16S88.81,61,87.58,61.3s-10.55,3.12-14,3.12-15.36,1.17-15.48,1-2.44-2.18-2.92-1.55A7.9,7.9,0,0,1,52,65.48c-.49,0-8.55.56-9.4.67S34.86,65,33,64.09s-7.6-4.24-8.28-5.32S22.84,56,22.1,56.14s-.79.86-3.17,0-6.65-.87-8.06-1.08c-.42-.06-1.25-.23-2.26-.49a37.83,37.83,0,0,0,7.68,5.32c10.74,5.66,24.82,8.5,38.9,8.5s28.16-2.84,38.9-8.51c8.75-4.62,13.94-10.41,15.56-16.41C105.38,44.72,104.93,51.11,103.7,51.62Z"/><path class="cls-12" d="M16.29,59.89a65.86,65.86,0,0,0,11.77,4.72c-1-1.2-1.6-2.21-2.66-2.78-2.19-1.17-3.43-2.34-6.95-4.23-2-1.07-4.82-1-7-.73A39.87,39.87,0,0,0,16.29,59.89Z"/><path class="cls-13" d="M55.19,68.39c1.29,0,2.58,0,3.87-.08a21,21,0,0,0-3-1.59c-1-.39-4.16.53-8,1.42C50.46,68.3,52.82,68.39,55.19,68.39Z"/><path class="cls-13" d="M94.09,59.88c.92-.48,1.79-1,2.64-1.5a20.62,20.62,0,0,0-2.2-.24c-.44,0-1,1-1.62,2.33C93.31,60.28,93.71,60.09,94.09,59.88Z"/><path class="cls-14" d="M14.55,38.43c-.28-.38-1.79-.38-1.46-.27a2.77,2.77,0,0,1-.24-.49A4,4,0,0,1,14,33.61c0,1,0,1,.53.69a.81.81,0,0,0,.22,0c-.5-.77-.5-2.28,1-.77a33.28,33.28,0,0,1-.23,4.69l-.28.1a3,3,0,0,1-.39.08Z"/><path class="cls-14" d="M18.79,21.45h-.53l-.35-.3L17.74,21a2.64,2.64,0,0,1-.44-1.51c0-.52.37-.77.93-1.09l.36-.19c.21.25,1.71.25,1.71,1,0,.14,0,.27,0,.38a3.71,3.71,0,0,1-.56,1.55C19.66,21.16,19.59,21.23,18.79,21.45Z"/><path class="cls-14" d="M35.28,32.35H34.19a2.12,2.12,0,0,1-.71-.48l-.17-.18a2.52,2.52,0,0,1-.25-.49,6.25,6.25,0,0,1,1.23-2.11,2.1,2.1,0,0,1,.34-.28A4.6,4.6,0,0,1,37,31.29c0,.12-.06.24-.1.36s-.08.24-.13.36a1,1,0,0,1-.22.07l-.3,0-.3.13A2.08,2.08,0,0,1,35.28,32.35Z"/><path class="cls-14" d="M28.1,46.59c-3.27-1-1.76-2.5-1.93-3.42,0-.19.09-.36.13-.52.29-.94.74-1.27,1.81.19.1.14.21.29.32.46a2,2,0,0,1,.48,2.42,2.65,2.65,0,0,1-.24.4,2.31,2.31,0,0,1-.34.36A.55.55,0,0,1,28.1,46.59Z"/><path class="cls-14" d="M6.21,29.39H5.35A1.55,1.55,0,0,1,4.79,29l-.13-.14c-.82-1.26,0-2.81.72-3.58,0,.77,0,.77.42.54H6a1.13,1.13,0,0,0,.18,0c1.54-.52,0,2.57,1.46,2,0,.06,0,.13,0,.2a3.11,3.11,0,0,1-.25,1.11.56.56,0,0,1-.17.06L7,29.2l-.23.1A1.54,1.54,0,0,1,6.21,29.39Z"/><path class="cls-14" d="M30.25,14h-.86c-1.54-.08-1.54-1.59-.91-2.49a1.58,1.58,0,0,1,.28-.49c.45-.53,1-.18,1.63.3l.38.3a8.37,8.37,0,0,1,0,2.3A1.77,1.77,0,0,1,30.25,14Z"/><path class="cls-14" d="M11.78,15.57h-.67a1.69,1.69,0,0,1-.56-.38l-.13-.14a2.82,2.82,0,0,1-.22-.42c1.05.79,1.05-6.75,3.06-.3a2.22,2.22,0,0,1-.14.38,2.69,2.69,0,0,1-.64.77A1.85,1.85,0,0,1,11.78,15.57Z"/><path class="cls-14" d="M48.06,16.23H47.2a1.82,1.82,0,0,1-.55-.38,1.85,1.85,0,0,0-.14-.14,2,2,0,0,1-.23-.49,2.13,2.13,0,0,1-.11-.5c1.29-2.32,1.29-.81,3.24.68,0,.09,0,.19-.08.28a1.62,1.62,0,0,1-.11.28.38.38,0,0,1-.16.06l-.24,0a1.22,1.22,0,0,1-.24.1A1.5,1.5,0,0,1,48.06,16.23Z"/><path class="cls-14" d="M37.31,21.09h-.86a1.52,1.52,0,0,1-.55-.38l-.14-.14c-.81-1.27,0-2.81.73-3.58,0,.77,0,.77.42.54h.17a1.13,1.13,0,0,0,.18,0c1.54-.52,0,2.57,1.45,2a1.27,1.27,0,0,1,0,.2,2.89,2.89,0,0,1-.24,1.11l-.17.06-.24,0-.24.1A1.5,1.5,0,0,1,37.31,21.09Z"/><path class="cls-14" d="M43.09,8.54h-.86a1.56,1.56,0,0,1-.55-.38A1.85,1.85,0,0,1,41.54,8c-.82-1.27,0-2.81.72-3.58,0,.77,0,.77.42.54h.17L43,5c1.53-.52,0,2.56,1.45,2,0,.07,0,.14,0,.21a3,3,0,0,1-.25,1.1.38.38,0,0,1-.17.06l-.24,0-.23.1A1.82,1.82,0,0,1,43.09,8.54Z"/><path class="cls-14" d="M42.64,48.58h-.85a1.74,1.74,0,0,1-.56-.38l-.13-.14c-.82-1.27-.05-2.81.72-3.58,0,.77,0,.77.42.54h.17l.18,0c1.54-.52,0,2.56,1.46,2v.21a2.8,2.8,0,0,1-.24,1.1.43.43,0,0,1-.17.06l-.24,0-.24.1A1.72,1.72,0,0,1,42.64,48.58Z"/><path class="cls-14" d="M53.84,40.61a.65.65,0,0,1-.26.19,1.3,1.3,0,0,1-.35.11c-1.24.16-1.24.16-1.14-1.7a2.09,2.09,0,0,1,0-.5,3.41,3.41,0,0,1,2.59-.55c0,.16,0,.31,0,.46a.76.76,0,0,0,.15.5c.17.44.17,2-.55,1.34A1.91,1.91,0,0,1,53.84,40.61Z"/><path class="cls-14" d="M48.06,28.2H47.2a1.52,1.52,0,0,1-.55-.38l-.14-.13c-.82-1.27,0-2.81.73-3.58,0,.77,0,.77.41.54h.18l.18,0c1.54-.52,0,2.56,1.45,2a1.48,1.48,0,0,1,0,.21,2.69,2.69,0,0,1-.25,1.1.59.59,0,0,1-.16.06l-.24,0a1.22,1.22,0,0,1-.24.1A1.5,1.5,0,0,1,48.06,28.2Z"/><path class="cls-14" d="M25.57,36c-1.71.46.23-1.48-.74-2.44,1.94,0,3.87,0,1.07,2.38A.92.92,0,0,1,25.57,36Z"/><path class="cls-14" d="M16.39,46.32h-.85a1.69,1.69,0,0,1-.56-.38l-.13-.14c-.82-1.27,0-2.81.72-3.58,0,.77,0,.77.42.54a.49.49,0,0,0,.17,0l.18,0c1.54-.52,0,2.56,1.46,2V45a2.8,2.8,0,0,1-.24,1.1.43.43,0,0,1-.17.06l-.24,0a1.33,1.33,0,0,1-.24.1A1.72,1.72,0,0,1,16.39,46.32Z"/><path class="cls-14" d="M20.26,12.24c-1.71.46.22-1.48-.74-2.44,1.93,0,3.87,0,1.07,2.39A1.26,1.26,0,0,1,20.26,12.24Z"/><path class="cls-14" d="M28.61,23.65c-1.7.46.23-1.48-.73-2.44,1.93,0,3.87,0,1.07,2.39A1.27,1.27,0,0,1,28.61,23.65Z"/><path class="cls-14" d="M4.45,37.81c-1.71.45.23-1.48-.74-2.45,1.93,0,3.87,0,1.07,2.39A.92.92,0,0,1,4.45,37.81Z"/><path class="cls-14" d="M46.69,34.46C45,34.92,46.92,33,46,32c1.94,0,3.87,0,1.07,2.39A1.14,1.14,0,0,1,46.69,34.46Z"/><path class="cls-14" d="M20.26,27.74c-1.71.46.22-1.47-.74-2.44,1.93,0,3.87,0,1.07,2.39A1,1,0,0,1,20.26,27.74Z"/><path class="cls-14" d="M22.68,42.16c-1.71.46.22-1.48-.74-2.44,1.93,0,3.87,0,1.07,2.39A1.26,1.26,0,0,1,22.68,42.16Z"/><path class="cls-15" d="M88.17,54.17c-1.71.45.23-1.48-.74-2.45,1.93,0,3.87,0,1.07,2.39A1,1,0,0,1,88.17,54.17Z"/><path class="cls-15" d="M8.12,49c-1.71.46.22-1.47-.74-2.44,1.93,0,3.87,0,1.07,2.39A1.26,1.26,0,0,1,8.12,49Z"/><path class="cls-15" d="M22.68,58.63c-1.71.46.22-1.48-.74-2.45,1.93,0,3.87,0,1.07,2.39A1,1,0,0,1,22.68,58.63Z"/><path class="cls-15" d="M36.8,60.46c-1.71.46.23-1.47-.74-2.44,1.94,0,3.87,0,1.07,2.39A1.14,1.14,0,0,1,36.8,60.46Z"/><path class="cls-15" d="M59.77,64.06c-1.71.46.23-1.48-.74-2.44,1.94,0,3.87,0,1.07,2.39A1.2,1.2,0,0,1,59.77,64.06Z"/><path class="cls-15" d="M74.82,62.49c-1.71.45.23-1.48-.74-2.45C76,60,78,60,75.15,62.43A.88.88,0,0,1,74.82,62.49Z"/><path class="cls-15" d="M47,44.3c-1.71.45.23-1.48-.74-2.45,1.93,0,3.87,0,1.07,2.39A.92.92,0,0,1,47,44.3Z"/><path class="cls-15" d="M70.86,11.24c-1.7.46.23-1.48-.73-2.45,1.93,0,3.87,0,1.07,2.39A1,1,0,0,1,70.86,11.24Z"/><path class="cls-15" d="M85.17,15.39c-1.7.46.23-1.48-.74-2.44,1.94,0,3.87,0,1.07,2.39A1.14,1.14,0,0,1,85.17,15.39Z"/><path class="cls-15" d="M97,30.19c-1.71.45.23-1.48-.74-2.45,1.94,0,3.87,0,1.07,2.39A.92.92,0,0,1,97,30.19Z"/><path class="cls-15" d="M68,26c-1.71.45.22-1.48-.74-2.45,1.93,0,3.87,0,1.07,2.39A1,1,0,0,1,68,26Z"/><path class="cls-15" d="M62.77,46.94c-1.7.46.23-1.48-.74-2.44,1.94,0,3.87,0,1.08,2.39A1.27,1.27,0,0,1,62.77,46.94Z"/><path class="cls-15" d="M87.24,39.53c-1.7.46.23-1.47-.73-2.44,1.93,0,3.87,0,1.07,2.39A1,1,0,0,1,87.24,39.53Z"/><path class="cls-15" d="M98.58,17.33c-1.71.45.22-1.48-.74-2.45,1.93,0,3.87,0,1.07,2.39A1,1,0,0,1,98.58,17.33Z"/><path class="cls-15" d="M51.89,52.15c-1.7.45.23-1.48-.74-2.45,1.94,0,3.87,0,1.08,2.39A1,1,0,0,1,51.89,52.15Z"/><path class="cls-15" d="M82.29,7.47c-1.71.46.23-1.47-.74-2.44,1.93,0,3.87,0,1.07,2.39A1.26,1.26,0,0,1,82.29,7.47Z"/><path class="cls-15" d="M58.23,4.26c-1.7.46.23-1.48-.74-2.45,1.94,0,3.87,0,1.07,2.39A.88.88,0,0,1,58.23,4.26Z"/><path class="cls-15" d="M79.69,39.53c-1.71.46.23-1.47-.74-2.44,1.94,0,3.87,0,1.07,2.39A.88.88,0,0,1,79.69,39.53Z"/><path class="cls-15" d="M101.5,36.44c-1.71.45.22-1.48-.74-2.45,1.93,0,3.87,0,1.07,2.39A1,1,0,0,1,101.5,36.44Z"/><path class="cls-15" d="M53.38,21.27c-1.71.46.22-1.48-.74-2.45,1.93,0,3.87,0,1.07,2.39A1,1,0,0,1,53.38,21.27Z"/><path class="cls-15" d="M76,24.25c-1.7.46.23-1.48-.73-2.44,1.93,0,3.87,0,1.07,2.39A1.27,1.27,0,0,1,76,24.25Z"/><path class="cls-15" d="M95.76,42.05c-1.7.46.23-1.48-.74-2.45,1.94,0,3.87,0,1.08,2.39A1,1,0,0,1,95.76,42.05Z"/><path class="cls-15" d="M9.16,44.89c-1.42.38.19-1.22-.62-2,1.61,0,3.21,0,.89,2A.86.86,0,0,1,9.16,44.89Z"/><path class="cls-15" d="M29,17.51c-1.41.38.19-1.23-.61-2,1.6,0,3.2,0,.89,2A.87.87,0,0,1,29,17.51Z"/><path class="cls-15" d="M40.8,20.94c-1.41.38.19-1.22-.61-2,1.6,0,3.21,0,.89,2A.86.86,0,0,1,40.8,20.94Z"/><path class="cls-15" d="M50.6,33.2c-1.41.38.19-1.22-.61-2,1.6,0,3.2,0,.89,2A.9.9,0,0,1,50.6,33.2Z"/><path class="cls-15" d="M26.58,29.7c-1.42.38.18-1.22-.62-2,1.61,0,3.21,0,.89,2A.63.63,0,0,1,26.58,29.7Z"/><path class="cls-15" d="M22.25,47.08c-1.42.38.19-1.22-.61-2,1.6,0,3.2,0,.88,2A.81.81,0,0,1,22.25,47.08Z"/><path class="cls-15" d="M58.1,10.29c-1.42.38.18-1.22-.62-2,1.61,0,3.21,0,.89,2A.86.86,0,0,1,58.1,10.29Z"/><path class="cls-15" d="M52.93,26.85c-1.41.38.19-1.22-.61-2,1.6,0,3.2,0,.89,2A.86.86,0,0,1,52.93,26.85Z"/><path class="cls-15" d="M13.24,51.39c-1.42.38.18-1.22-.62-2,1.61,0,3.21,0,.89,2A.84.84,0,0,1,13.24,51.39Z"/><path class="cls-15" d="M38.41,14.39c-1.41.38.19-1.23-.61-2,1.6,0,3.21,0,.89,2A.87.87,0,0,1,38.41,14.39Z"/><path class="cls-15" d="M18.49,11.72c-1.42.38.18-1.22-.62-2,1.61,0,3.21,0,.89,2A.84.84,0,0,1,18.49,11.72Z"/><path class="cls-15" d="M36.26,40.94c-1.41.38.19-1.22-.61-2,1.6,0,3.2,0,.89,2A.86.86,0,0,1,36.26,40.94Z"/><path class="cls-15" d="M58.07,41.77c-1.41.38.19-1.23-.61-2,1.6,0,3.21,0,.89,2A.87.87,0,0,1,58.07,41.77Z"/><path class="cls-15" d="M14.46,25.81c-1.41.38.19-1.22-.61-2,1.6,0,3.21,0,.89,2A.86.86,0,0,1,14.46,25.81Z"/><path class="cls-15" d="M33.23,28.28c-1.42.38.18-1.22-.62-2,1.61,0,3.21,0,.89,2A.84.84,0,0,1,33.23,28.28Z"/><path class="cls-15" d="M45.54,54.05c-1.41.38.19-1.22-.61-2,1.6,0,3.2,0,.89,2A.92.92,0,0,1,45.54,54.05Z"/><path class="cls-15" d="M83,40.73c1.41.38-.19-1.23.61-2-1.6,0-3.2,0-.89,2A.87.87,0,0,0,83,40.73Z"/><path class="cls-15" d="M63.19,13.34c1.42.38-.18-1.22.62-2-1.61,0-3.21,0-.89,2A.84.84,0,0,0,63.19,13.34Z"/><path class="cls-15" d="M49.42,21.17c1.41.38-.19-1.22.61-2-1.6,0-3.2,0-.89,2A.87.87,0,0,0,49.42,21.17Z"/><path class="cls-15" d="M23.79,20c1.42.38-.19-1.23.62-2-1.61,0-3.21,0-.89,2A.86.86,0,0,0,23.79,20Z"/><path class="cls-15" d="M66.71,35.26c1.41.38-.19-1.23.61-2-1.6,0-3.21,0-.89,2A.87.87,0,0,0,66.71,35.26Z"/><path class="cls-15" d="M69.9,42.92c1.41.38-.19-1.23.61-2-1.6,0-3.21,0-.89,2A.87.87,0,0,0,69.9,42.92Z"/><path class="cls-15" d="M33.47,49.07c1.42.38-.19-1.22.61-2-1.6,0-3.2,0-.88,2A.8.8,0,0,0,33.47,49.07Z"/><path class="cls-15" d="M35.83,7.47c1.41.38-.19-1.22.61-2-1.6,0-3.21,0-.89,2A.86.86,0,0,0,35.83,7.47Z"/><path class="cls-15" d="M78.91,47.23c1.41.38-.19-1.22.61-2-1.6,0-3.2,0-.89,2A.92.92,0,0,0,78.91,47.23Z"/><path class="cls-15" d="M51.71,6.52c1.41.38-.19-1.22.61-2-1.6,0-3.21,0-.89,2A.87.87,0,0,0,51.71,6.52Z"/><path class="cls-15" d="M73.66,7.56c1.41.38-.19-1.22.61-2-1.6,0-3.2,0-.89,2A.87.87,0,0,0,73.66,7.56Z"/><path class="cls-15" d="M58.9,32.75c1.41.38-.19-1.22.61-2-1.6,0-3.2,0-.89,2A.86.86,0,0,0,58.9,32.75Z"/><path class="cls-15" d="M29.87,37.34c1.42.38-.18-1.23.62-2-1.61,0-3.21,0-.89,2A.86.86,0,0,0,29.87,37.34Z"/><path class="cls-15" d="M72,18.08c1.42.38-.18-1.22.62-2-1.61,0-3.21,0-.89,2A.84.84,0,0,0,72,18.08Z"/><path class="cls-15" d="M58.92,24.12c1.41.38-.19-1.22.61-2-1.6,0-3.2,0-.88,2A.8.8,0,0,0,58.92,24.12Z"/><path class="cls-15" d="M43.87,31.74c1.42.38-.19-1.22.62-2-1.61,0-3.21,0-.89,2A.84.84,0,0,0,43.87,31.74Z"/><path class="cls-15" d="M66.91,46.51c-1.42.38.19-1.23-.62-2,1.61,0,3.21,0,.89,2A.86.86,0,0,1,66.91,46.51Z"/><path class="cls-15" d="M86.7,19.12c-1.41.38.19-1.22-.61-2,1.6,0,3.2,0,.89,2A.86.86,0,0,1,86.7,19.12Z"/><path class="cls-15" d="M95.85,21.65c-1.42.38.19-1.22-.61-2,1.6,0,3.2,0,.88,2A.8.8,0,0,1,95.85,21.65Z"/><path class="cls-15" d="M107.94,35.8c-1.42.38.19-1.22-.61-2,1.6,0,3.2,0,.88,2A.84.84,0,0,1,107.94,35.8Z"/><path class="cls-15" d="M84.33,31.32c-1.42.38.18-1.22-.62-2,1.61,0,3.21,0,.89,2A.84.84,0,0,1,84.33,31.32Z"/><path class="cls-15" d="M88.57,49.74c-1.42.38.19-1.23-.61-2,1.6,0,3.2,0,.88,2A.86.86,0,0,1,88.57,49.74Z"/><path class="cls-15" d="M59.1,55.16c-1.42.38.19-1.22-.61-2,1.6,0,3.2,0,.88,2A.8.8,0,0,1,59.1,55.16Z"/><path class="cls-15" d="M104.11,20.94c-1.41.38.19-1.22-.61-2,1.6,0,3.2,0,.89,2A.86.86,0,0,1,104.11,20.94Z"/><path class="cls-15" d="M71,53c-1.42.38.18-1.22-.62-2,1.61,0,3.21,0,.89,2A.86.86,0,0,1,71,53Z"/><path class="cls-15" d="M89.67,10.91c-1.41.37.19-1.23-.61-2,1.6,0,3.21,0,.89,2A.87.87,0,0,1,89.67,10.91Z"/><path class="cls-15" d="M76.24,13.34c-1.42.38.19-1.22-.62-2,1.61,0,3.21,0,.89,2A.86.86,0,0,1,76.24,13.34Z"/><path class="cls-15" d="M88.25,44.09c-1.41.38.19-1.22-.61-2,1.6,0,3.21,0,.89,2A.86.86,0,0,1,88.25,44.09Z"/><path class="cls-15" d="M73.86,35.26c-1.41.38.19-1.23-.61-2,1.6,0,3.2,0,.89,2A.92.92,0,0,1,73.86,35.26Z"/><path class="cls-15" d="M72.21,27.43c-1.41.38.19-1.22-.61-2,1.6,0,3.21,0,.89,2A.86.86,0,0,1,72.21,27.43Z"/><path class="cls-15" d="M91,29.9c-1.42.38.18-1.22-.62-2,1.61,0,3.21,0,.89,2A1.26,1.26,0,0,1,91,29.9Z"/><path class="cls-15" d="M106.17,45.35c-1.41.38.19-1.22-.61-2,1.6,0,3.2,0,.89,2A.87.87,0,0,1,106.17,45.35Z"/></g></g></svg>