<svg xmlns="http://www.w3.org/2000/svg" viewBox="0 0 143.91 42"><defs><style>.cls-1{fill:#d80000;}.cls-2{fill:red;}.cls-3{fill:#fff;}</style></defs><title>Asset 23</title><g id="Layer_2" data-name="Layer 2"><g id="Ñëîé_1" data-name="Ñëîé 1"><path class="cls-1" d="M136.29,41.86c-.78.66-1.07-1.09-1.39-2.2a4.14,4.14,0,0,0-.2-.55c-3.07-1.31-4.77,3.8-6.47,2.1,0-1.71,3.4-3.41,1.22-4.29a3.76,3.76,0,0,0-.23-.55,4.8,4.8,0,0,0-.57-.11c-1.61-.2-3.83.08-3.83-1.87,0-1.7,3.41,1.71,3.64-1.47a3,3,0,0,0,.19-.58c.36-1.88-1.43-3.09,2.06-3.26l.44,0,.46-.05q.3,0,.63,0c1.1-1.4,4.5-1.4,5.43-.18a2.38,2.38,0,0,1,.52.15c1.36.52,2.43,2,3.36,2l.49,0c.5,0,1,0,1.52,0,1.7,1.7-3.41,1.7-2.91,4.35a1.89,1.89,0,0,0,0,.39c.24,1,1.09,2.34,0,2.79a2.15,2.15,0,0,1-.6.13c1.75,2.56-5.07-.85-3.45,3.06A.27.27,0,0,1,136.29,41.86Z"/><path class="cls-2" d="M135.77,41.31c-.78.66-1.07-1.09-1.39-2.2a4.14,4.14,0,0,0-.2-.55c-3.07-1.31-4.77,3.8-6.47,2.1,0-1.71,3.4-3.41,1.22-4.29a3.76,3.76,0,0,0-.23-.55,4.8,4.8,0,0,0-.57-.11c-1.61-.2-3.83.08-3.83-1.87,0-1.7,3.41,1.71,3.64-1.47a2.45,2.45,0,0,0,.19-.58c.36-1.88-1.43-3.09,2.06-3.26l.44-.05.46-.05h.63c1.1-1.4,4.51-1.4,5.43-.18a3.07,3.07,0,0,1,.52.14c1.36.52,2.43,2,3.36,2l.49,0H143c1.7,1.71-3.41,1.71-2.91,4.36a1.89,1.89,0,0,0,.05.39c.24,1,1.09,2.34,0,2.79a2.16,2.16,0,0,1-.59.13c1.74,2.56-5.08-.85-3.46,3.06A.27.27,0,0,1,135.77,41.31Z"/><path class="cls-3" d="M132.38,29.76s2.64-2.32,5.65.91C138,30.67,136.61,28.58,132.38,29.76Z"/><path class="cls-1" d="M114.43,25.33a36.57,36.57,0,0,0-16.68,5.52c1.58-3.9,4.67-7.63,3.11-12.08C99,13.5,93.53,13.14,89,15.06c-7.81,3.29-13.4,11.08-21,15-2.63,1.35-10.92,6-13.14,3-2-2.61,3.28-6.18,5-8.74,3.61-5.24,7.05-13.08,3.07-19.1-3.33-5-8.81-3.95-13.56-1.4C43,7.28,39.13,13.65,34.6,19c-3.53,4.2-7,7-12.45,8.44-2.18.59-6.59,1.71-8.74,1.47-4.64-.52-4.07-6,.15-7.57,3.5-1.3,5.47-9.12.65-7.32C8.35,16.24,1.14,19.78.11,26.83c-.93,6.38,4.15,9.8,9.93,9.73,8.41-.11,17.46-2.58,23.9-8.13C38.2,24.76,47.21,8.13,53.48,9.28c12.88,2.37-8.26,19.52-7.32,25.66,1,6.68,7.56,7,12.54,5.81C67.8,38.53,75.76,33,82.89,27.17c2.39-2,10.4-7.89,10.55-1.05,0,1.41-1.76,3.57-2.28,4.88C90,34,89.32,36.59,90,39.83c.54,2.43,3.45,2.31,5,.86a27.16,27.16,0,0,1,17-7.79C115.67,32.57,119.06,24.91,114.43,25.33Z"/><path class="cls-2" d="M114.43,23.63a36.57,36.57,0,0,0-16.68,5.52c1.58-3.9,4.67-7.63,3.11-12.09C99,11.79,93.53,11.44,89,13.35c-7.81,3.29-13.4,11.09-21,15-2.63,1.35-10.92,6-13.14,3-2-2.61,3.28-6.19,5-8.75,3.61-5.23,7.05-13.07,3.07-19.09-3.33-5-8.81-3.95-13.56-1.41C43,5.57,39.13,12,34.6,17.33c-3.53,4.2-7,7-12.45,8.44-2.18.59-6.59,1.72-8.74,1.48-4.64-.52-4.07-6,.15-7.57,3.5-1.31,5.47-9.13.65-7.33C8.35,14.54,1.14,18.08.11,25.12c-.93,6.39,4.15,9.81,9.93,9.73,8.41-.11,17.46-2.58,23.9-8.13C38.2,23.05,47.21,6.43,53.48,7.58c12.88,2.36-8.26,19.51-7.32,25.66,1,6.68,7.56,7,12.54,5.8,9.1-2.22,17.06-7.71,24.19-13.57,2.39-2,10.4-7.89,10.55-1,0,1.4-1.76,3.56-2.28,4.88-1.21,3-1.84,5.59-1.12,8.82.54,2.44,3.45,2.32,5,.87a27.11,27.11,0,0,1,17-7.79C115.67,30.87,119.06,23.21,114.43,23.63Z"/><path class="cls-3" d="M3.72,20.24S.37,24,1.35,27.2s3,4.4,4.6,5.55S-.83,28.16,3.72,20.24Z"/><path class="cls-3" d="M13,13.5c-.08,0,2.23-1.27,2.89-.66s0,2.81,0,2.81S16.53,12.13,13,13.5Z"/><path class="cls-3" d="M50.84,2.35s4-2.57,7.75-1.09S64,6.15,63.91,8.1C63.91,8.1,62.26-1,50.84,2.35Z"/><path class="cls-3" d="M48,30.82s-1.09,6.16,5.86,7C53.83,37.87,45.77,39.46,48,30.82Z"/><path class="cls-3" d="M86.78,15.32s6.54-3.32,9.66-1.47a6.39,6.39,0,0,1,2.86,7.87S100.41,11.55,86.78,15.32Z"/><path class="cls-3" d="M111.79,24.9s3.34-1.22,3.8-.26-1.22,3.78-1.9,4.41C113.69,29.05,117.59,23.5,111.79,24.9Z"/><path class="cls-3" d="M90.67,35s.08,2.77,1.33,3.17,4.58-1.91,4.58-1.91S91.65,39.21,90.67,35Z"/></g></g></svg>