<svg xmlns="http://www.w3.org/2000/svg" xmlns:xlink="http://www.w3.org/1999/xlink" viewBox="0 0 139.92 86.24"><defs><style>.cls-1{fill:url(#linear-gradient);}.cls-2{fill:#479700;}.cls-3{fill:url(#linear-gradient-2);}.cls-4{fill:#67b307;}.cls-5{fill:#89d01c;}.cls-6{fill:url(#linear-gradient-3);}</style><linearGradient id="linear-gradient" x1="81.73" y1="36.41" x2="135.01" y2="-4.39" gradientUnits="userSpaceOnUse"><stop offset="0" stop-color="#74c014"/><stop offset="1" stop-color="#e5ebdd"/></linearGradient><linearGradient id="linear-gradient-2" x1="50.41" y1="56.41" x2="143.15" y2="1.03" xlink:href="#linear-gradient"/><linearGradient id="linear-gradient-3" x1="43.73" y1="58.93" x2="113.74" y2="17.94" xlink:href="#linear-gradient"/></defs><title>Asset 16</title><g id="Layer_2" data-name="Layer 2"><g id="Ñëîé_1" data-name="Ñëîé 1"><path class="cls-1" d="M128.77,54.31c-.17,2.75,1.28,4.8-.68,7.88s-3.46-2.18-5.15-2.37-1.32,4.88-1.66,8.23-2.26,2.25-4.54-.76-1.41,3.65-2.82,7.84-6.47.55-9.11-1.23-5.29-1.41-6.88,1.82S93.81,82,90.69,82.1,87.3,77,84.55,76.67s-.5,4.84-3.25,6.72-5.35-4-9.15-4.34-4.31,3.4-9.3,6.51-6.29-5.49-10.12-7.45-5.64,8-10.17,6.33-1.18-7.51-5.09-9.68-2.9,7.5-8.43,5.31S27.75,74,24.87,72C22.56,70.32,23,75.65,18,75.8s-2-5.86-2-9-2.89-3.4-9.4-3.47S4.41,59,3.91,55.46.72,52.94.72,52.94a11.32,11.32,0,0,1,5.64-2.68c3.33-.48-2-2.86-1.76-5.56S8.82,40.08,11.11,38s-.84-5.61,2.52-7.56-7.43-.9-3-3.61S23.92,21,27.83,20.51s10-.07,6.84-4-4-5.89,2.46-5.32,12.11,2.66,14.32,4.46,3.25,2.62,5.48-1.47,1.63-4.94,3.09-4,4.55,1.7,5.12.18,1.76-5.13,3.5-4.18S89.86,8.4,98.16,8.06s12.52.69,17.49-1.49S120.85-3.18,130,1.5s10.89,10,6.52,11.24-.19,1.15-.85,4.75-8.93-.85-2.85,4.85,9.31,5.88,5.27,7.41-4,1.7-4,3.6-2.33,2.17-6.94,2.11,1.12,2.08.46,4.1-1.22,1-7.11,2-6.66,4.14,1.43,3.8,14.63-2.46,13.68-.56,2.75,1.61,1.66,4.51.87.84-6.62.93-9.59-1.23-9.58.18S128.86,53,128.77,54.31Z"/><path class="cls-2" d="M15.89,68.19a9.77,9.77,0,0,0,.16-1.43c.08-3.19-2.89-3.4-9.4-3.47a6.66,6.66,0,0,1-2.53-.41C5.76,63.79,11.72,67,15.89,68.19Z"/><path class="cls-2" d="M.89,52.89l-.5.25.5-.25Z"/><path class="cls-2" d="M3.91,55.46c-.42-3-2.43-2.73-3-2.57,0,0,1.77,2.4,2.94,4.42A5.77,5.77,0,0,0,3.91,55.46Z"/><path class="cls-2" d="M.39,53.14l-.24.12Z"/><path class="cls-2" d="M0,53.33Z"/><path class="cls-2" d="M.15,53.26,0,53.33Z"/><path class="cls-2" d="M6.36,50.26c3.12-.45-1.37-2.57-1.74-5,0,0,.27,3,.35,5.36A9.74,9.74,0,0,1,6.36,50.26Z"/><path class="cls-2" d="M126.47,40.87c-.89.22-2.51.12-6,.74-5.14.92-6.38,3.39-1.21,3.78C122.66,44.23,127,42.4,126.47,40.87Z"/><path class="cls-2" d="M121.08,50.47c0,.49.93.94,2.14,1.37l.64-.39a16.77,16.77,0,0,1,2.36-1.27C122.3,49.91,121.07,49.39,121.08,50.47Z"/><path class="cls-2" d="M34.67,16.55c-1.47-1.8-2.43-3.2-2.4-4.13h0c-.3,1.54,1.21,3.39,1.18,7.5C35.36,19.51,36.38,18.67,34.67,16.55Z"/><path class="cls-2" d="M9.87,28.4A31.37,31.37,0,0,1,13,30.89a4.49,4.49,0,0,1,.62-.44C16,29.07,11.23,29.2,9.87,28.4Z"/><path class="cls-2" d="M9.71,28.29h0l0,0Z"/><path class="cls-2" d="M104.81,73.9c-2.64-1.77-5.29-1.41-6.88,1.82-.19.38-.39.75-.6,1.12.38.07.77.13,1.18.17,2.41.25,12.8,1,13.55,0h0C109.91,77.46,106.73,75.19,104.81,73.9Z"/><path class="cls-2" d="M116.74,67.29C115,65,115.1,68.39,114.6,72c2.14-.47,5.55-1.32,5.77-2C119.53,70.38,118.21,69.24,116.74,67.29Z"/><polygon class="cls-2" points="3.68 62.64 3.68 62.64 3.69 62.64 3.68 62.64"/><path class="cls-2" d="M130.66,50.29H128.9a4.28,4.28,0,0,1,.69.5c1.64,1.41,6.06.36,7,.12A19.06,19.06,0,0,0,130.66,50.29Z"/><path class="cls-2" d="M122.94,59.82c-1.44-.15-1.38,3.53-1.55,6.69,1.8-1,5.38-3.06,5.6-3.37h0C125.54,63.4,124.3,60,122.94,59.82Z"/><path class="cls-2" d="M24.87,72C22.56,70.32,23,75.65,18,75.8a5.06,5.06,0,0,1-1-.07h0a12.76,12.76,0,0,0,9-.33C26,74.1,26.13,72.85,24.87,72Z"/><path class="cls-2" d="M37.47,74.76c-3.26-1.81-3.1,4.62-6.17,5.52h0a45,45,0,0,0,8.28-2.14A4.36,4.36,0,0,0,37.47,74.76Z"/><path class="cls-2" d="M84.55,76.67c-1.45-.19-1.51,1.17-1.65,2.79,2.33,1.24,6.27,3.17,7.59,2.64h0C87.57,82,87.24,77,84.55,76.67Z"/><path class="cls-2" d="M72.15,79.05c-2-.14-3.05.77-4.32,2.11,3.16,1.27,11.6,4.43,12.6,2.58h0C78,84.08,75.55,79.31,72.15,79.05Z"/><path class="cls-2" d="M52.73,78.11a2.14,2.14,0,0,0-2.33.22c2.44,2.74,8,8.61,9.77,7.82h0C57.22,85.39,55.77,79.66,52.73,78.11Z"/><path class="cls-3" d="M132.86,22.34c-6.08-5.7,2.19-1.24,2.85-4.85s-3.51-3.51.85-4.75S139.22,6.19,130,1.5s-9.43,2.89-14.39,5.07-9.19,1.14-17.49,1.49h0c-3.58.6-7.67.91-11.36,1.47-8.07,1.22-3.66,2.25-1.68,3s8.75.25,12.73.43,0,1.47-4.85,2.4-4.65-2.68-13-.07-7.51,2.91-6.64,3.84,2.54,1.47-2.36,4.94,0,2.22.12,2.65-7.82,4.09-7.82,4.09S69.6,30.13,80,27.77s3,.11-1.24,1.86-15.21,4.48-20.92,6.49-1.61,1.29,5.71-.86,4.66-.9,3-.25-6.88,3.83-11.35,6.55a34,34,0,0,0-7.51,5.7c-2.11,2-9.25,4.55-9.25,4.55a19.28,19.28,0,0,0,11.48-5c1.68-1.68,16-9.6,18-10.75s8-2.29,11-1.12c2.17.85-3.46,5-6.82,7.23,3.43-2.24,9.55-6.21,10-6.47.62-.36,3.66-1.54,3.66-1.54a28.35,28.35,0,0,1-.49,7.46c-.81,3.11-4.6,5.44-4.6,5.44l5-2.86L88,48.8a35.35,35.35,0,0,1-1.18-4.41c-.44-2.25.18-7.27,2.24-9.23s2.29-1.55,3.53-.4,4.9,7.77,5.52,9.65,0,9.59.13,8.94,1.8-8.06,1.8-8.06a24.58,24.58,0,0,0,3,2.76c1.49,1.11,5.46,2,2.73.9S98,40.27,97.91,40s3.16,1.4,3.41,1.47a37.74,37.74,0,0,0-3.48-2.86c-.93-.69-4-4.81-3-5.2s9.25,7.35,8.51,6.41-4.47-4.58-4.91-5.34,3.85-4.65,5.71-6.62,2.17,0,2.49,1.11,2.6,5.37,3.78,6.12.25-3.22-.37-5.94,1.3-2.76,4-4.13,2.61,2.3,3.14,4.54-.34,4.82,2.64,6,4-1.65,4.65-3.91.93-8.13,2.36-7.45,3.1,6.3,4.28,8.2,1.74-3.73,2.92-4.05c.56-.15,2,.63,3.61,1.52l.49-.18C142.17,28.22,138.94,28,132.86,22.34Z"/><path class="cls-4" d="M56,26.7c-1.47.07-11.47-3.25-15.8-3.86s-12.76-1.86-13.5,0,1.08,2.59,6.05,2.59S56,26.7,56,26.7Z"/><path class="cls-4" d="M31,38.75a33.21,33.21,0,0,1-9.84.56c-5.5-.51-14.57.65-11.63,2.17s6.69,1.71,12.84.8S31,38.75,31,38.75Z"/><path class="cls-4" d="M27.4,57.52c-1.76.25-14,2.9-13.26,4.17s19.77-3.62,26.08-7.2S34.57,56.51,27.4,57.52Z"/><path class="cls-4" d="M51.06,64c1.51-4.35-8,11.77-6.3,12.57S49.3,69.08,51.06,64Z"/><path class="cls-5" d="M46.88,52.61c-1.78.35-10.07,7-23,9.59a57.35,57.35,0,0,0-8.79,2.28,2.56,2.56,0,0,1,.94,2.28c0,1.79-1,4.48-.93,6.46,3.18-2.86,8-5.36,14.23-8.65A101.19,101.19,0,0,0,46.88,52.61Z"/><path class="cls-5" d="M24.56,71.77a2.16,2.16,0,0,1,.31.19c2.44,1.72-.23,4.77,2.25,7C31.39,74.87,39.45,63.3,39.45,63.3,37.09,65,26.59,70.68,24.56,71.77Z"/><path class="cls-5" d="M46.18,69c1.34-2.56,8.27-13.63,8.27-13.63s-3.33,4.66-7.9,6.74-9.93,12.4-9.93,12.4h0a2.56,2.56,0,0,1,.85.3c3.06,1.7,1.69,5.66,3.09,8.08A72.08,72.08,0,0,1,46.18,69Z"/><path class="cls-5" d="M57.86,60.62s.43,5.79-2.68,9.63a63.94,63.94,0,0,0-5.55,8.18,1.44,1.44,0,0,0-.12.7c1-1,2-1.64,3.22-1a6.72,6.72,0,0,1,2.13,2,94.87,94.87,0,0,1,3.73-12.74A6.74,6.74,0,0,0,57.86,60.62Z"/><path class="cls-5" d="M24.59,55.32C21.1,58,14.19,56.24,9.33,56a11.41,11.41,0,0,0-5.56,1.6c-.6,2.84-2.27,5.51,2.5,5.69a51.65,51.65,0,0,1,11.25-3.54c3.41-.51,7.08-2,8.52-3.49s6.14-7,6.14-7S28.09,52.66,24.59,55.32Z"/><path class="cls-5" d="M25.62,49.23c-2.13,1.6-13.39,1.38-18.31.7h0a1.79,1.79,0,0,1-.95.33A11.32,11.32,0,0,0,.72,52.94a2.23,2.23,0,0,1,2.7.94c6-1.12,13.71-.72,17.68-1.27C27,51.79,27.75,47.63,25.62,49.23Z"/><path class="cls-5" d="M26,42.19C21.1,43.7,16.66,45,12,43.68a12.45,12.45,0,0,1-4.45-2.91c-1.47,1.15-2.72,2.37-2.9,3.82a17.82,17.82,0,0,1,4.2.65c9,2.39,11.94,4.46,16.12.95S31,40.67,26,42.19Z"/><path class="cls-5" d="M31.79,29.64c-3.46-.49-8.2-4.62-14.43-6a46.42,46.42,0,0,0-6.77,3.23c-2,1.22-.86,1.68.65,2a8,8,0,0,1,7.2-.88c5.36,1.94,10.16,3.31,14,2.89a21.61,21.61,0,0,0,7.8-3A14.81,14.81,0,0,1,31.79,29.64Z"/><path class="cls-5" d="M85.31,75.51c-3.16-4.69-6.23-9.47-5.72-13.73s-.76-12.92-.76-12.92a29.58,29.58,0,0,1-1.62,6c-1.2,3-1.2,9,0,13,.77,2.59,3.89,8.31,5.4,13.54.6-2.23-.08-5,1.94-4.71,1.19.15,1.92,1.22,2.61,2.37A15,15,0,0,0,85.31,75.51Z"/><path class="cls-5" d="M122.49,52.06c-6.23.08-15,1.78-19.87.55s-6.14,1-4.27,1.84,18.85.37,21.49.87c1.7.31,5.72.11,9,.45a8.78,8.78,0,0,1,0-1.46c0-.8-2.62-1.5-4.82-2.22C123.45,52.06,123,52.05,122.49,52.06Z"/><path class="cls-5" d="M106.11,57.94a33.79,33.79,0,0,1-16.28-4.18s4.77,5.72,12.19,6.4c5.1.47,13.72,2.44,19.4,5.69.14-3,.18-6.17,1.52-6A69,69,0,0,0,106.11,57.94Z"/><path class="cls-5" d="M126.78,63.16l-2.07-1.8C125.38,62.22,126.05,63.12,126.78,63.16Z"/><path class="cls-5" d="M115.46,66.76s-12.67-.67-14.89-2.19c0,0,6,7.42,12.68,11.76a3.25,3.25,0,0,0,.67-1.2c1-3,.85-7.34,1.54-8.37Z"/><path class="cls-5" d="M102,72.85c-.43-.42-.9-.87-1.43-1.35-6.65-6-11.94-12.76-13.56-16.18s-.08,7.82,2.82,12.43c1.71,2.72,3.6,8.34,4.86,12.5a15.4,15.4,0,0,0,3.24-4.53C99,73.65,100.4,72.76,102,72.85Z"/><path class="cls-5" d="M72.93,74.67c-3.78-11.47-5.28-17.32-5.28-17.32s-.89,3.25-3.05,11.53c-1.74,6.65,2.09,9.14.52,15,3-2.61,3.9-5.06,7-4.83a5.52,5.52,0,0,1,2.6,1C74.22,78.55,73.62,76.75,72.93,74.67Z"/><path class="cls-5" d="M23.05,37.16a44,44,0,0,0,11.3,0c-4.78,0-13-5.46-16.76-6.9A7,7,0,0,0,14.18,30a1.68,1.68,0,0,1-.55.42c-3.16,1.83-.58,5.06-2.16,7.17A55.68,55.68,0,0,1,23.05,37.16Z"/><path class="cls-5" d="M39.45,28.32s1.75.49,0,3.36S35.76,36.57,37,37.62,50.54,31,57.31,30.93C57.31,30.93,47.39,28.32,39.45,28.32Z"/><path class="cls-5" d="M39.45,42s4.67-.07,3.87,2.43-2.27,5.51.46,5.22S52.62,41,54.45,39.36,50,39.36,39.45,42Z"/><path class="cls-5" d="M60.17,48.87s-9.51,3.64-6.53,5,6.07.9,6.53,2.34S70.88,44,72.52,43.12,66.59,48.06,60.17,48.87Z"/><path class="cls-4" d="M36.62,40.46c1.86-1.39-6.22,2-6.81,5.06s1.4,4.14,3.09,1S34,42.38,36.62,40.46Z"/><path class="cls-4" d="M37.85,46.57c-.27-1.86-3.32,6.25-4.31,6.74s1,1.14,2.45,0S38.49,51,37.85,46.57Z"/><path class="cls-4" d="M60.16,43c-5.29,1.88-11.53,6.7-11.65,7.92s.29,0,4.26-2.07,9.32-5,11.82-5.38,8.27-4.84,6.06-3.85-5.65,2.93-6.29,3,2.15-4,2.15-4S65.58,41.11,60.16,43Z"/><path class="cls-4" d="M48.85,53S36.37,61,34.35,63.3s4.07-1.93,5.42-3,7.9-5.8,8.12-5-5.5,4.32-5.65,5.3,5.71-3.55,6.61-4.37-1.54,3.69-2,4,3.25-.76,3.93-4.47,4.28-5.87,4.58-6.11S52.83,50.85,48.85,53Z"/><path class="cls-4" d="M79.19,42c-1,1.5-3.2,5.83-6.45,7.65s-5.11,3.51-5,3.75S73,51.3,73.94,50.7s-3.16,2.54-3.23,4S75.94,66.6,76,70a34.5,34.5,0,0,0-1.2-8.58c-1.26-4.66-.21-9.33,2.12-12.14S79.19,42,79.19,42Z"/><path class="cls-6" d="M130,1.5c-.51-.25-1-.47-1.43-.65a13.52,13.52,0,0,1-3.73,3.76,20.6,20.6,0,0,1-6,2.32,3.54,3.54,0,0,1,.37,1.35c.06.79-3.91,1.65-3.91,1.65-1,0-10.39.67-14.24.67s-.43.91,1.29.91,5.92-.21,5.8.72-3,5.21-8.06,6.74-13.63,1.77-17.29,1.52-8.74,1.17-6.11,1.17S88.19,22,89.83,22s4.14.67,4.08,1a20.52,20.52,0,0,1-4.08,4.76c-1.36.86-7.84,4-6.62,4s6.05-3,7.88-4.16,4-3.05,5.2-3.66,4.09-.49,3.48,1S97.2,30.15,98,29.23s3.18-5.8,4.55-6.6,5.1-.73,5,1,1.52,2.14,2.07-.49,4.34-3.84,5.14-3.08,4.33,2.05,4.46,6.66-.8,7.17.12,5.77,1-5.38,1-7.82.12-4.7,1.1-5.38,6.7-.55,7.41,1.65,3.95,6.48,2.91,4.46a81,81,0,0,1-2.91-7.82c-.76-2.08,2.36-3.36,2.48-3s.49-6.11,2.57-6.48A10.66,10.66,0,0,0,137,6.48,24.24,24.24,0,0,0,130,1.5Z"/></g></g></svg>