<svg xmlns="http://www.w3.org/2000/svg" xmlns:xlink="http://www.w3.org/1999/xlink" viewBox="0 0 107.95 61.03"><defs><style>.cls-1{fill:#9d274f;}.cls-2{fill:#d8b7c1;}.cls-3{fill:url(#linear-gradient);}.cls-4{fill:#f2d1db;}.cls-5{fill:#fff;opacity:0.2;}.cls-6{fill:url(#linear-gradient-2);}.cls-7{fill:url(#linear-gradient-3);}.cls-8{fill:url(#linear-gradient-4);}</style><linearGradient id="linear-gradient" x1="38.44" y1="39.84" x2="107.94" y2="39.84" gradientUnits="userSpaceOnUse"><stop offset="0" stop-color="#9d274f"/><stop offset="0.96" stop-color="#cc547c"/></linearGradient><linearGradient id="linear-gradient-2" x1="22.63" y1="49.96" x2="80.56" y2="49.96" xlink:href="#linear-gradient"/><linearGradient id="linear-gradient-3" x1="0.01" y1="41.21" x2="17.23" y2="41.21" xlink:href="#linear-gradient"/><linearGradient id="linear-gradient-4" x1="24.4" y1="32.33" x2="77.06" y2="32.33" xlink:href="#linear-gradient"/></defs><title>Asset 21</title><g id="Layer_2" data-name="Layer 2"><g id="Ñëîé_1" data-name="Ñëîé 1"><path class="cls-1" d="M90.73,39c-13,6.55-34,6.55-47,0L38.44,41.7c15.9,8,41.68,8,57.59,0s15.9-21,0-29.07l-5.3,2.67C103.7,21.86,103.7,32.47,90.73,39Z"/><path class="cls-2" d="M100.31,28.76C101.21,24,98,19,90.73,15.3v3.2C96.41,21.37,99.6,25,100.31,28.76Z"/><path class="cls-3" d="M96,41.7c-15.91,8-41.69,8-57.59,0v3.19c15.9,8,41.68,8,57.59,0,8.75-4.42,12.68-10.35,11.79-16.13C107.1,33.48,103.17,38.09,96,41.7Z"/><path class="cls-4" d="M90.73,39c-13,6.55-34,6.55-47,0L38.82,41.5c15.69,7.92,41.13,7.92,56.82,0s15.69-20.76,0-28.67L90.73,15.3C103.7,21.86,103.7,32.47,90.73,39Z"/><path class="cls-5" d="M92.81,40.07c-14.13,7.13-37,7.13-51.16,0l-1.1.56c14.74,7.44,38.63,7.44,53.36,0s14.74-19.49,0-26.93l-1.1.56C106.94,21.38,106.94,32.94,92.81,40.07Z"/><path class="cls-1" d="M33.24,44.36C25.48,36,32.67,26,49.3,22.08l-3.16-3.43c-20.39,4.8-29.2,17-19.69,27.31S60.18,60.7,80.56,55.9L77.4,52.47C60.77,56.39,41,52.76,33.24,44.36Z"/><path class="cls-2" d="M30.27,38.89c1.09-5.73,8-11,19-13.62V22.08C36.2,25.16,29,32,30.27,38.89Z"/><path class="cls-6" d="M26.45,46a13.54,13.54,0,0,1-3.7-7.06c-.52,3.41.62,6.94,3.7,10.26C36,59.44,60.18,63.89,80.56,59.1V55.9C60.18,60.7,36,56.25,26.45,46Z"/><path class="cls-4" d="M33.24,44.36C25.48,36,32.67,26,49.3,22.08L46.37,18.9C26.26,23.63,17.56,35.7,26.94,45.84s33.28,14.54,53.39,9.81L77.4,52.47C60.77,56.39,41,52.76,33.24,44.36Z"/><path class="cls-5" d="M30.57,45C22.12,35.85,30,25,48.06,20.73L47.4,20c-18.88,4.44-27,15.77-18.24,25.3S60.42,59,79.3,54.53l-.66-.71C60.54,58.08,39,54.13,30.57,45Z"/><path class="cls-1" d="M17.23,19.69c13-6.55,34-6.55,47,0L69.52,17C53.61,9,27.83,9,11.93,17s-15.91,21,0,29.07l5.3-2.67C4.25,36.86,4.25,26.24,17.23,19.69Z"/><path class="cls-7" d="M.13,33.14c-.88,5.78,3,11.71,11.8,16.13l5.3-2.67V43.41l-5.3,2.67C4.78,42.47.86,37.86.13,33.14Z"/><polygon class="cls-2" points="11.93 46.08 11.93 49.27 17.23 46.6 17.23 43.41 11.93 46.08"/><path class="cls-2" d="M64.22,19.69c-13-6.55-34-6.55-47,0-8,4-11.06,9.61-9.21,14.82-1-4,2.14-8.06,9.21-11.63,13-6.55,34-6.55,47,0l5.3-2.67V17Z"/><path class="cls-4" d="M17.23,19.69c13-6.55,34-6.55,47,0l4.91-2.48C53.44,9.29,28,9.29,12.32,17.21S-3.37,38,12.32,45.88l4.91-2.47C4.25,36.86,4.25,26.24,17.23,19.69Z"/><path class="cls-5" d="M15.15,18.64c14.12-7.13,37-7.13,51.15,0l1.1-.56c-14.73-7.44-38.62-7.44-53.36,0S-.69,37.58,14,45l1.11-.55C1,37.33,1,25.77,15.15,18.64Z"/><polygon class="cls-1" points="12.29 45.9 11.93 46.08 11.93 49.27 12.29 49.09 12.29 45.9"/><path class="cls-1" d="M68.1,24.57C62.73,33.42,44.15,38.4,26.6,35.69L24.4,39.3c21.51,3.33,44.28-2.77,50.87-13.63S69.77,3.33,48.26,0L46.07,3.62C63.62,6.33,73.48,15.71,68.1,24.57Z"/><path class="cls-2" d="M69.42,21.25c1.49-7.77-8-15.26-23.35-17.63V6.81C59.31,8.86,68.17,14.7,69.42,21.25Z"/><path class="cls-8" d="M75.27,25.67c-6.59,10.86-29.36,17-50.87,13.63v3.2c21.51,3.33,44.28-2.78,50.87-13.63a11.16,11.16,0,0,0,1.66-7.63A12.1,12.1,0,0,1,75.27,25.67Z"/><path class="cls-4" d="M68.1,24.57C62.73,33.42,44.15,38.4,26.6,35.69l-2,3.35c21.22,3.28,43.68-2.74,50.18-13.45S69.32,3.55,48.1.27l-2,3.35C63.62,6.33,73.48,15.71,68.1,24.57Z"/><path class="cls-5" d="M70.92,25c-5.85,9.64-26.08,15.06-45.18,12.11l-.46.75c19.92,3.08,41-2.57,47.13-12.63s-5.1-20.71-25-23.79l-.46.76C66,5.15,76.77,15.36,70.92,25Z"/></g></g></svg>