<svg xmlns="http://www.w3.org/2000/svg" xmlns:xlink="http://www.w3.org/1999/xlink" viewBox="0 0 129.67 91.5"><defs><style>.cls-1{fill:#e50f03;}.cls-2{fill:#c00;}.cls-3{fill:url(#radial-gradient);}.cls-4{fill:#ec8675;}.cls-5{fill:#fff;opacity:0.2;}.cls-6{fill:url(#radial-gradient-2);}</style><radialGradient id="radial-gradient" cx="77.1" cy="55.3" r="90.01" gradientUnits="userSpaceOnUse"><stop offset="0" stop-color="#fd8a5b"/><stop offset="1" stop-color="#e50f03"/></radialGradient><radialGradient id="radial-gradient-2" cx="49.39" cy="26.6" r="64.25" xlink:href="#radial-gradient"/></defs><title>Asset 12</title><g id="Layer_2" data-name="Layer 2"><g id="Ñëîé_1" data-name="Ñëîé 1"><path class="cls-1" d="M126.91,52.23c-7.47-8.84-15.54-8.21-17.47-7.52,0,0,4.34-5.42-6.39-12.44s-18.74-7.76-28.52-6S43.79,35.89,49,45.14c0,0-27.7-1.26-24.1,20.16,2.54,15.1,33.5,19.35,41.21,12.39,0,0,11.2,12.3,36,5.35S134.38,61.06,126.91,52.23Zm-17.67,21a50.06,50.06,0,0,1-11.5,4.68C82.92,82,75.59,76.73,74,75c0,0-3-4.41-1.49-7.8.37-.81,1-1.46-1.3-1.56l-2.45-.23c-.85-.08-1.64-.06-1.63.84,0,1.71-1,5.29-9.41,8.34-1.09.4-4.75,1-9.79,0C40.35,73,35.57,69.43,34.78,64.75c-.65-3.91-.45-9.13,4.25-11.84,2.94-1.7,15.95-4,20.35-2,2.08,1,3.34,1.83,3.81,2.55s1.06,1,2.31.29l3.91-2.39c.87-.5.06-1.11-1-1.36-3.21-.78-8.66-2.51-10-6.62-1.3-2.32,1.85-4.78,4.72-6.44a51,51,0,0,1,14.27-5.2c4.87-.86,9.08-1.6,18.15,4.34,5.62,3.68,4.81,6.09,4.65,6.44-.45,3.27-3,5.65-5,6.81-1.51.87-2.28.7-.26,2l1.4.93c1.46.84,1.81,0,2.36-.33a20.74,20.74,0,0,1,13.88-1.18,13.06,13.06,0,0,1,5.39,4C121.65,59.12,119.85,67.06,109.24,73.19Z"/><path class="cls-2" d="M129.67,59.75v-.12h0Z"/><path class="cls-2" d="M102.09,83c-24.81,6.95-36-5.35-36-5.35-7.71,7-38.67,2.71-41.21-12.39a21.7,21.7,0,0,1-.32-3.64h0v6.5a21.74,21.74,0,0,0,.32,3.47C27.41,86.73,58.37,91,66.08,84c0,0,11.2,12.3,36,5.35,18.58-5.21,27.44-14.94,27.58-23.21V59.81C129.54,68.09,120.69,77.83,102.09,83Z"/><path class="cls-3" d="M125.12,52.73c-4.47-5.29-8.91-6.7-11.16-7.07a8.2,8.2,0,0,0-3.46,0l-5.48,2,2.61-3.42c.15-.19,3.57-4.9-6.07-11.21C91.14,26.2,84,25.77,75.11,27.33a60.36,60.36,0,0,0-17.57,6.35c-4.44,2.56-9.21,6.57-6.67,11.1l.91,1.64-3-.13c-.09,0-9-.36-15.43,3.37-5.53,3.19-7.73,8.42-6.54,15.53,1.09,6.43,7.95,11.56,18.36,13.71,7.17,1.49,14.43,1.08,18.06-1a6.68,6.68,0,0,0,1.13-.81l1.85-1.67,1.59,1.75c.43.47,10.56,11.25,33.38,4.86a60.09,60.09,0,0,0,13.66-5.57h0C128.24,68.73,130.14,58.67,125.12,52.73ZM109.24,73.19a50.06,50.06,0,0,1-11.5,4.68C82.92,82,75.59,76.73,74,75c0,0-3-4.41-1.49-7.8.37-.81,1-1.46-1.3-1.56l-2.45-.23c-.85-.08-1.64-.06-1.63.84,0,1.71-1,5.29-9.41,8.34-1.09.4-4.75,1-9.79,0C40.35,73,35.57,69.43,34.78,64.75c-.65-3.91-.45-9.13,4.25-11.84,2.94-1.7,15.95-4,20.35-2,2.08,1,3.34,1.83,3.81,2.55s1.06,1,2.31.29l3.91-2.39c.87-.5.06-1.11-1-1.36-3.21-.78-8.66-2.51-10-6.62-1.3-2.32,1.85-4.78,4.72-6.44a51,51,0,0,1,14.27-5.2c4.87-.86,9.08-1.6,18.15,4.34,5.62,3.68,4.81,6.09,4.65,6.44-.45,3.27-3,5.65-5,6.81-1.51.87-2.28.7-.26,2l1.4.93c1.46.84,1.81,0,2.36-.33a20.74,20.74,0,0,1,13.88-1.18,13.06,13.06,0,0,1,5.39,4C121.65,59.12,119.85,67.06,109.24,73.19Z"/><path class="cls-4" d="M63.19,58.91c.38.58,1.06,1,2.31.29l3.91-2.39c.26-.15.37-.32.37-.48v-5.4h0c0,.14-.11.29-.35.42L65.5,53.74c-1.25.72-1.93.3-2.31-.29s-1.73-1.59-3.81-2.55c-4.4-2-17.41.31-20.35,2-4.61,2.66-4.89,7.73-4.28,11.61A8.65,8.65,0,0,1,39,58.37c2.94-1.7,15.95-4,20.35-2C61.46,57.32,62.72,58.19,63.19,58.91Z"/><path class="cls-4" d="M118,54.75a13.06,13.06,0,0,0-5.39-4,20.74,20.74,0,0,0-13.88,1.18c-.55.28-.9,1.17-2.36.33l-1.4-.93c-.81-.52-1.17-.81-1.21-1h0l0,5.31c-.13.23.18.52,1.19,1.17l1.4.93c1.46.84,1.81,0,2.36-.33a20.81,20.81,0,0,1,13.88-1.19,13.11,13.11,0,0,1,5.39,4,7.37,7.37,0,0,1,1.29,2.26A8,8,0,0,0,118,54.75Z"/><path class="cls-5" d="M119,54.45a14,14,0,0,0-5.59-4.19l-.27-.11A22.62,22.62,0,0,0,97.8,51.46a3.39,3.39,0,0,0-.46.34l0,0-.06,0-1.41-.93c-.42-.28-.66-.45-.79-.55l.17-.09c.24-.12.53-.26.84-.44,1.11-.64,4.78-3,5.38-7.18.25-.63.8-3.25-4.94-7-9.57-6.27-14.34-5.43-19.39-4.54a52.52,52.52,0,0,0-14.76,5.37c-4.43,2.56-6.17,5-5,7.1C58.36,46.79,62,49.18,68,50.63c.38.09.6.23.58.25l-3.89,2.37-.22.12-.13-.16c-.56-.87-2-1.83-4.17-2.85-5.14-2.37-18.84.27-22,2.06-5,2.9-5.27,8.34-4.59,12.4.84,5,5.91,8.75,13.91,10.4,5.4,1.12,9.44.46,10.83,0A30.27,30.27,0,0,0,63,73c4.64-2.67,5.3-5.4,5.28-6.79a.74.74,0,0,1,0-.18l.22,0,2.55.24.54,0a3.42,3.42,0,0,1-.17.4l-.12.25c-1.64,3.57,1.4,8,1.59,8.31s7.82,8.07,25.35,3.16a51.77,51.77,0,0,0,11.82-4.81C121.09,67.32,122.91,59,119,54.45Zm-9.79,18.74a50.06,50.06,0,0,1-11.5,4.68C82.92,82,75.59,76.73,74,75c0,0-3-4.41-1.49-7.8.37-.81,1-1.46-1.3-1.56l-2.45-.23c-.85-.08-1.64-.06-1.63.84,0,1.71-1,5.29-9.41,8.34-1.09.4-4.75,1-9.79,0C40.35,73,35.57,69.43,34.78,64.75c-.65-3.91-.45-9.13,4.25-11.84,2.94-1.7,15.95-4,20.35-2,2.08,1,3.34,1.83,3.81,2.55s1.06,1,2.31.29l3.91-2.39c.87-.5.06-1.11-1-1.36-3.21-.78-8.66-2.51-10-6.62-1.3-2.32,1.85-4.78,4.72-6.44a51,51,0,0,1,14.27-5.2c4.87-.86,9.08-1.6,18.15,4.34,5.62,3.68,4.81,6.09,4.65,6.44-.45,3.27-3,5.65-5,6.81-1.51.87-2.28.7-.26,2l1.4.93c1.46.84,1.81,0,2.36-.33a20.74,20.74,0,0,1,13.88-1.18,13.06,13.06,0,0,1,5.39,4C121.65,59.12,119.85,67.06,109.24,73.19Z"/><path class="cls-4" d="M99.46,44.94h0a7.53,7.53,0,0,0,.78-2.43c.16-.35,1-2.76-4.65-6.44-9.07-5.94-13.28-5.2-18.15-4.34a51,51,0,0,0-14.27,5.2c-2.87,1.66-6,4.12-4.72,6.44a6.1,6.1,0,0,0,1,1.82,16.89,16.89,0,0,1,3.76-2.8,50.69,50.69,0,0,1,14.27-5.21c4.87-.85,9.08-1.59,18.15,4.34A14.7,14.7,0,0,1,99.46,44.94Z"/><path class="cls-2" d="M98.79,31.72c-.23,6.88-9.94,14.05-28.19,19.17C47,57.51,37.07,47.64,37.07,47.64,28.19,51,1.69,49,.12,34.54A19,19,0,0,1,0,32.45H0v6.72a16.58,16.58,0,0,0,.12,1.69C1.69,55.28,28.19,57.35,37.07,54c0,0,9.9,9.87,33.53,3.24C89,52.06,98.7,44.83,98.8,37.91V31.72Z"/><path class="cls-1" d="M96.51,25.78c-3.9-4.66-14.45-9.21-18.17-9.52,0,0,6-3.82-4.18-10.51S52.26-.66,42.94,1,15.85,7.85,20.78,16.66c0,0-22.58.35-20.66,17.88C1.69,49,28.19,51,37.07,47.64c0,0,9.9,9.87,33.53,3.25S103.55,34.2,96.51,25.78ZM81.64,39.66a68.24,68.24,0,0,1-15.39,6.06c-14.29,4-19.68-.13-20.61-1-3.06-2.45-2.52-5.42-.65-7.06S43.91,36,42.34,35.94s-4.75.09-4.13,1.27.92,3.78-6.63,5.64c-1.29.47-7.27,1-13-.69-5.29-1.52-8.07-4.14-8.49-8-.5-4.62.93-7.94,4.28-9.87a17.39,17.39,0,0,1,6.91-1.9c2-.19,9-.46,10.24,1S32.89,26.18,35,25s6.17-2.94,2.94-3.85-6.67-3.38-7.68-6.21c-.63-1.12-.77-2.38,2.31-4.16,4.56-2.64,11.86-4,13.28-4.26C54.77,4.91,61,5.83,66.69,9.55c2.8,1.84,3.35,2.94,3.45,3.36C70.14,14.7,69,18,64.76,20s-6.91,1.08-5.34,3.13,4,3.42,6,2.2,4.69-4.62,10.85-3.45c2.43.67,8.94,3.66,11.22,6.39C91.45,33,85.52,37.41,81.64,39.66Z"/><path class="cls-6" d="M94.71,26.28C91,21.79,80.85,17.63,78.05,17.39l-3.71-.31,2.53-1.6s4.72-3.12-4.2-9C64.92,1.44,55.39,0,43.53,2.08c-2.44.43-10.84,2.09-16.59,5.41-4.61,2.66-6.05,5.63-4.27,8.81l.8,1.45-2.63.06c-.07,0-6.83.17-12.15,3.24-5,2.9-7.24,7.41-6.59,13.42C2.86,41.38,9.53,44.7,15,46.27c7.77,2.24,16.93,2,21,.42L37.73,46l1.06,1.06c.36.36,9.23,8.87,30.94,2.78a77.45,77.45,0,0,0,17.54-6.94C96.42,37.62,99.13,31.56,94.71,26.28ZM81.64,39.66a68.24,68.24,0,0,1-15.39,6.06c-14.29,4-19.68-.13-20.61-1-3.06-2.45-2.52-5.42-.65-7.06S43.91,36,42.34,35.94s-4.75.09-4.13,1.27.92,3.78-6.63,5.64c-1.29.47-7.27,1-13-.69-5.29-1.52-8.07-4.14-8.49-8-.5-4.62.93-7.94,4.28-9.87a17.39,17.39,0,0,1,6.91-1.9c2-.19,9-.46,10.24,1S32.89,26.18,35,25s6.17-2.94,2.94-3.85-6.67-3.38-7.68-6.21c-.63-1.12-.77-2.38,2.31-4.16,4.56-2.64,11.86-4,13.28-4.26C54.77,4.91,61,5.83,66.69,9.55c2.8,1.84,3.35,2.94,3.45,3.36C70.14,14.7,69,18,64.76,20s-6.91,1.08-5.34,3.13,4,3.42,6,2.2,4.69-4.62,10.85-3.45c2.43.67,8.94,3.66,11.22,6.39C91.45,33,85.52,37.41,81.64,39.66Z"/><path class="cls-4" d="M14.33,28.53a17.39,17.39,0,0,1,6.91-1.9c2-.19,9-.45,10.24,1s1.41,2.82,3.52,1.6c1.66-1,4.54-2.24,4.1-3.18l0-3.94h0C39,23,36.5,24.09,35,25c-2.11,1.22-2.32-.19-3.52-1.61s-8.2-1.14-10.24-1a17.39,17.39,0,0,0-6.91,1.9c-3.35,1.93-4.78,5.25-4.28,9.87,0,.16.06.3.09.46A8.3,8.3,0,0,1,14.33,28.53Z"/><path class="cls-4" d="M66.69,9.55C61,5.83,54.77,4.91,45.85,6.48c-1.42.25-8.72,1.62-13.28,4.26-3.08,1.78-2.94,3-2.31,4.16a6.66,6.66,0,0,0,.63,1.25A9.74,9.74,0,0,1,32.57,15c4.56-2.63,11.86-4,13.28-4.26,8.92-1.57,15.15-.65,20.84,3.07a14.87,14.87,0,0,1,2.64,2.11,6.46,6.46,0,0,0,.81-3C70,12.49,69.49,11.39,66.69,9.55Z"/><path class="cls-4" d="M45,41.89c.46-.41.63-.73.59-1V36.79c0,.22-.17.5-.58.87A4.09,4.09,0,0,0,44.08,43,4.47,4.47,0,0,1,45,41.89Z"/><path class="cls-4" d="M87.54,28.28c-2.28-2.73-8.79-5.72-11.22-6.39-6.16-1.17-8.83,2.23-10.85,3.45s-4.47-.14-6-2.2a1.82,1.82,0,0,1-.45-.87h0l0,4c-.11.23,0,.56.42,1.09,1.58,2.06,4,3.42,6,2.2S70.16,25,76.32,26.13c2.43.66,8.94,3.65,11.22,6.38a5.88,5.88,0,0,1,.73,1.11A4.61,4.61,0,0,0,87.54,28.28Z"/><path class="cls-5" d="M88.61,28c-2.47-3-9.38-6.05-11.78-6.71l-.07,0h-.07A12.18,12.18,0,0,0,68,22.53,18.39,18.39,0,0,0,65.76,24a13.35,13.35,0,0,1-1.19.84,1.4,1.4,0,0,1-.91.22,5.39,5.39,0,0,1-3.14-2.24,2,2,0,0,1-.36-.59c.18-.07.59-.16.92-.24a21.11,21.11,0,0,0,4.44-1.49c.35-.16.67-.33,1-.51,3.57-2.06,4.84-5,4.84-7.12v-.1c-.14-.56-.81-1.79-3.74-3.71-6-3.91-12.78-4.92-22.09-3.28-1.46.26-9,1.68-13.77,4.43-3.55,2.05-3.31,3.61-2.64,4.79,1,2.85,4.44,5.6,8.33,6.69.36.1.51.2.53.24s0,.36-1.55,1.26l-1.17.65-1.08.59a3.32,3.32,0,0,1-.37.19,5.85,5.85,0,0,1-.54-.7,9.94,9.94,0,0,0-.69-.91c-1.85-2.17-11.41-1.34-11.43-1.34a19.17,19.17,0,0,0-7.64,2.1c-3.59,2.08-5.15,5.58-4.62,10.41.45,4.11,3.44,6.91,9.15,8.56s12.16,1.33,14.12.68a19.79,19.79,0,0,0,5-1.86C40.23,39.83,39.85,38,39.35,37c0-.06,0-.09,0-.09h0a9,9,0,0,1,3-.29,15,15,0,0,1,2,.13s0,.15-.4.52c-2.16,1.9-2.62,5.21.64,7.81,1,1,6.93,5.51,22.14,1.25a69.53,69.53,0,0,0,15.71-6.2C86.59,37.77,92.85,33,88.61,28Zm-7,11.68a68.24,68.24,0,0,1-15.39,6.06c-14.29,4-19.68-.13-20.61-1-3.06-2.45-2.52-5.42-.65-7.06S43.91,36,42.34,35.94s-4.75.09-4.13,1.27.92,3.78-6.63,5.64c-1.29.47-7.27,1-13-.69-5.29-1.52-8.07-4.14-8.49-8-.5-4.62.93-7.94,4.28-9.87a17.39,17.39,0,0,1,6.91-1.9c2-.19,9-.46,10.24,1S32.89,26.18,35,25s6.17-2.94,2.94-3.85-6.67-3.38-7.68-6.21c-.63-1.12-.77-2.38,2.31-4.16,4.56-2.64,11.86-4,13.28-4.26C54.77,4.91,61,5.83,66.69,9.55c2.8,1.84,3.35,2.94,3.45,3.36C70.14,14.7,69,18,64.76,20s-6.91,1.08-5.34,3.13,4,3.42,6,2.2,4.69-4.62,10.85-3.45c2.43.67,8.94,3.66,11.22,6.39C91.45,33,85.52,37.41,81.64,39.66Z"/></g></g></svg>