<svg xmlns="http://www.w3.org/2000/svg" xmlns:xlink="http://www.w3.org/1999/xlink" viewBox="0 0 113.49 71.86"><defs><style>.cls-1{fill:#e50f03;}.cls-2{fill:url(#linear-gradient);}.cls-3{fill:url(#radial-gradient);}.cls-4{fill:url(#radial-gradient-2);}.cls-5{fill:url(#radial-gradient-3);}.cls-6{fill:#fff;opacity:0.26;}.cls-7{fill:#fa7f4d;}.cls-8{fill:url(#radial-gradient-4);}.cls-9{fill:url(#radial-gradient-5);}.cls-10{fill:#ff9967;}.cls-11{fill:#ffdbc7;}.cls-12{fill:url(#linear-gradient-2);}.cls-13{fill:url(#radial-gradient-6);}.cls-14{fill:url(#radial-gradient-7);}.cls-15{fill:url(#radial-gradient-8);}.cls-16{fill:url(#radial-gradient-9);}.cls-17{fill:url(#radial-gradient-10);}</style><linearGradient id="linear-gradient" x1="2349.79" y1="39.62" x2="2437.1" y2="39.62" gradientTransform="matrix(-1, 0, 0, 1, 2463.27, 0)" gradientUnits="userSpaceOnUse"><stop offset="0" stop-color="#c00"/><stop offset="0.12" stop-color="#cd0202"/><stop offset="0.19" stop-color="#d10b0b"/><stop offset="0.25" stop-color="#d71919"/><stop offset="0.3" stop-color="#df2d2d"/><stop offset="0.34" stop-color="#eb4646"/><stop offset="0.38" stop-color="#f86666"/><stop offset="0.4" stop-color="#ff7575"/><stop offset="0.42" stop-color="#fa6b6b"/><stop offset="0.49" stop-color="#ec4a4a"/><stop offset="0.56" stop-color="#e02f2f"/><stop offset="0.64" stop-color="#d71a1a"/><stop offset="0.73" stop-color="#d10b0b"/><stop offset="0.83" stop-color="#cd0303"/><stop offset="1" stop-color="#c00"/></linearGradient><radialGradient id="radial-gradient" cx="2393.45" cy="25.21" r="52.53" gradientTransform="matrix(-1, 0, 0, 1, 2463.27, 0)" gradientUnits="userSpaceOnUse"><stop offset="0" stop-color="#fd8a5b"/><stop offset="1" stop-color="#e50f03"/></radialGradient><radialGradient id="radial-gradient-2" cx="2384.65" cy="31.35" r="27.48" xlink:href="#radial-gradient"/><radialGradient id="radial-gradient-3" cx="2384.52" cy="31.79" r="16.07" xlink:href="#radial-gradient"/><radialGradient id="radial-gradient-4" cx="2404.46" cy="19.9" r="24.67" xlink:href="#radial-gradient"/><radialGradient id="radial-gradient-5" cx="2405.23" cy="19.83" r="15.3" xlink:href="#radial-gradient"/><linearGradient id="linear-gradient-2" x1="0" y1="55.28" x2="87.32" y2="55.28" gradientTransform="matrix(1, 0, 0, 1, 0, 0)" xlink:href="#linear-gradient"/><radialGradient id="radial-gradient-6" cx="41.83" cy="40.65" r="58.43" gradientTransform="matrix(1, 0, 0, 1, 0, 0)" xlink:href="#radial-gradient"/><radialGradient id="radial-gradient-7" cx="32.64" cy="47.13" r="26.48" gradientTransform="matrix(1, 0, 0, 1, 0, 0)" xlink:href="#radial-gradient"/><radialGradient id="radial-gradient-8" cx="31.88" cy="47.21" r="15.3" gradientTransform="matrix(1, 0, 0, 1, 0, 0)" xlink:href="#radial-gradient"/><radialGradient id="radial-gradient-9" cx="48.75" cy="44.17" r="34.89" gradientTransform="matrix(1, 0, 0, 1, 0, 0)" xlink:href="#radial-gradient"/><radialGradient id="radial-gradient-10" cx="26.49" cy="53.36" r="48.35" gradientTransform="matrix(1, 0, 0, 1, 0, 0)" xlink:href="#radial-gradient"/></defs><title>Asset 14</title><g id="Layer_2" data-name="Layer 2"><g id="Ñëîé_1" data-name="Ñëîé 1"><path class="cls-1" d="M39.29,7.05C51,.86,62.3-1.89,75.14,1.41,86.43,4.31,89.31,9.83,92.89,11.9S106,15.62,111.05,22.14c5.72,7.41.94,13.91-9.77,20.7C85.66,52.73,65.12,51,56.77,48.49a64,64,0,0,1-15.49-6.8,44.68,44.68,0,0,1-11.77-8.94C25.24,27.92,22.16,16.07,39.29,7.05Z"/><path class="cls-2" d="M26.17,24a13.78,13.78,0,0,0,3.34,8.75,44.68,44.68,0,0,0,11.77,8.94,64,64,0,0,0,15.49,6.8c8.35,2.46,28.89,4.24,44.51-5.65,7.51-4.76,12.1-9.37,12.21-14.26h0v4.84c-.12,4.88-4.71,9.49-12.21,14.24-15.62,9.9-36.16,8.12-44.51,5.65a64,64,0,0,1-15.49-6.8,44.23,44.23,0,0,1-11.77-8.94A13.76,13.76,0,0,1,26.17,29V24Z"/><path class="cls-3" d="M72.25,48.61c7.54,0,18.53-1.27,28.05-7.3,7-4.41,10.65-8.27,11.27-11.81.36-2-.28-4.08-2-6.26-3.28-4.24-8.94-6.33-13.08-7.86A31.16,31.16,0,0,1,92,13.46a21.41,21.41,0,0,1-3.41-2.69A29.05,29.05,0,0,0,74.68,3.16a41.19,41.19,0,0,0-10.4-1.35C56.67,1.81,49,4,40.13,8.65c-6.94,3.65-11.08,8.18-12,13.09a11.91,11.91,0,0,0,2.7,9.81,41.45,41.45,0,0,0,10.79,8.27l.54.3.52.31a61.35,61.35,0,0,0,14.57,6.32,56.77,56.77,0,0,0,15,1.86Z"/><path class="cls-4" d="M86,20.33c-.69.57-2.51,4.29,2.73,4,0,0-1.38.67-.35,1.65s3.43,1.25,3.43,1.25-2.48.61-2.46,1.53,1.74,1.52,1.74,1.52-2.17.15-2.82,1,.84,1.8.84,1.8-2.46-.3-3.38.4.51,1.56.51,1.56-2.57-.49-3.45,0-.93.89-.58,1.49a4.48,4.48,0,0,0-2.58-.5,2.33,2.33,0,0,0-1.53,1.54,4.09,4.09,0,0,0-2.76-.88,5.12,5.12,0,0,0-2.46,1.43,4.29,4.29,0,0,0-2.37-1.37c-2.74-.19-3.61,1.27-3.61,1.27A2.91,2.91,0,0,0,65,35.81c-1.74-.81-3.4-.59-5.8.51S53.7,40.19,56.77,42s10.75,3.16,23.28,1.34,22.88-7.89,21.6-16.57C100.51,19,90.87,16.25,86,20.33Z"/><path class="cls-5" d="M58.62,36.63l.61-.31c2.4-1.1,4.06-1.32,5.8-.51a2.91,2.91,0,0,1,1.83,2.24s.87-1.46,3.61-1.27a4.29,4.29,0,0,1,2.37,1.37,5.12,5.12,0,0,1,2.46-1.43,4.09,4.09,0,0,1,2.76.88,2.33,2.33,0,0,1,1.53-1.54,4.48,4.48,0,0,1,2.58.5c-.35-.6-.31-1,.58-1.49s3.45,0,3.45,0-1.42-.87-.51-1.56,3.38-.4,3.38-.4-1.49-.94-.84-1.8,2.82-1,2.82-1-1.73-.6-1.74-1.52,2.46-1.53,2.46-1.53S89.36,27,88.34,26s.35-1.65.35-1.65c-2.48.12-3.38-.65-3.56-1.55a.63.63,0,0,1,.47.2c1.26,1.71,4.25-.94,4.91-1.32a3.84,3.84,0,0,1,3.49,0c.87.55.69,1.42-.33,2s-3.5,1.16-2.59,1.94,3-.29,4.66-.29c1.43,0,2.77.22,3.08.94s-.59,1.4-1.95,1.67a14.44,14.44,0,0,1-3.63.07c-.67-.1-2.36-.08-1.91.68s2.75.32,4.61.72c1.34.29,2.42.81,2.23,1.55s-1.5,1.28-2.9,1.12-4-1.11-4.07-.29,1.58.78,2.89,1.16,2,1.14,1.48,1.83a3.36,3.36,0,0,1-3.3.65c-.83-.23-1.82-.43-2-.23s.78.68.78.68c1,.59,1.1,1.49.19,2a3.83,3.83,0,0,1-3.48-.11c-.49-.28-1.24-.63-1.62-.43s.39.74.39.74c.79.69.55,1.59-.52,2a3.82,3.82,0,0,1-3.38-.52,3.64,3.64,0,0,1-1.33-1.63c0-.3-.89-.28-.92-.1s1.22,1.09,1.22,2a1.68,1.68,0,0,1-1.66,1.77c-1.26.18-2.6-.33-2.87-1.14A9,9,0,0,1,76.59,38c0-.65-.61-.61-1.25-.51-1.45.23.08,2.22.33,3.23.19.82-.79,1.55-2.07,1.62A2.42,2.42,0,0,1,71,41c-.23-.85,0-1.7-1-1.8s-1.66,1.17-2,1.9a2.73,2.73,0,0,1-2.83,1.18c-1.26-.16-2-.94-1.72-1.76S63.27,35.94,58.62,36.63Z"/><path class="cls-6" d="M61.45,42.48s-4.54-.3-4.16-2.4,5.52-4.16,5.52-4.16S57.43,40.16,61.45,42.48Z"/><path class="cls-7" d="M69.16,25.24c1.37-.82,4.09-2.54,7.13-1.08s7.4-1.87,9.26-3.84a4.79,4.79,0,0,1,3.26-1.49A8,8,0,0,0,86,20.33c-.69.57-2.51,4.29,2.73,4,0,0-1.38.67-.35,1.65s3.43,1.25,3.43,1.25-2.48.61-2.46,1.53,1.74,1.52,1.74,1.52-2.17.15-2.82,1,.84,1.8.84,1.8-2.46-.3-3.38.4.51,1.56.51,1.56-2.57-.49-3.45,0-.93.89-.58,1.49a4.48,4.48,0,0,0-2.58-.5,2.33,2.33,0,0,0-1.53,1.54,4.09,4.09,0,0,0-2.76-.88,5.12,5.12,0,0,0-2.46,1.43,4.29,4.29,0,0,0-2.37-1.37c-2.74-.19-3.61,1.27-3.61,1.27A2.91,2.91,0,0,0,65,35.81c-1.74-.81-3.4-.59-5.8.51-1.72.79-3.82,2.44-3.73,4-1.67-2.39,4.39-5,9-7.74C69.56,29.56,67.79,26.06,69.16,25.24Z"/><path class="cls-8" d="M77.88,15.67c-1,.39-7.42,1.45-7-1.58a3.29,3.29,0,0,1-2.85.21,3.52,3.52,0,0,1-2.17-2,3.69,3.69,0,0,1-2.66,1.43,4,4,0,0,1-2.62-1,2.32,2.32,0,0,1-1.76,1.63,5.07,5.07,0,0,1-3.11-.48s.51,1.41-.69,1.94a3.56,3.56,0,0,1-2.71-.29s.84,1.48,0,2a3.2,3.2,0,0,1-2.57.33s1.31.82.86,1.49-2.66.88-2.66.88,1.94.81,1.52,1.6S47,23.24,47,23.24s2.22.66,2.37,1.37c.33,1.59-2.2,2.08-2.2,2.08a8.3,8.3,0,0,1,3.89,1.07c1.4,1,1,2-.89,3.34s-6.7,3.2-9.89,1.42S34.83,26.32,38,19.08,51.64,5.87,66.68,6.61C80.23,7.27,85,12.84,77.88,15.67Z"/><path class="cls-9" d="M49.65,31.46a6.32,6.32,0,0,0,.54-.36c1.91-1.38,2.29-2.34.89-3.34a8.3,8.3,0,0,0-3.89-1.07s2.53-.49,2.2-2.08C49.24,23.9,47,23.24,47,23.24s2.06-.63,2.48-1.41S48,20.23,48,20.23s2.2-.21,2.66-.88-.86-1.49-.86-1.49a3.2,3.2,0,0,0,2.57-.33c.83-.52,0-2,0-2a3.56,3.56,0,0,0,2.71.29c1.2-.53.69-1.94.69-1.94a5.07,5.07,0,0,0,3.11.48,2.32,2.32,0,0,0,1.76-1.63,4,4,0,0,0,2.62,1,3.69,3.69,0,0,0,2.66-1.43,3.52,3.52,0,0,0,2.17,2,3.29,3.29,0,0,0,2.85-.21C70.7,15.53,72,16,73.6,16.15a.43.43,0,0,0-.35-.27c-3-.73,1.62-2.46,2.27-2.83,1-.59,1-1.52.06-2a3.9,3.9,0,0,0-3.48.19c-1,.57-2,2-3.35,1.49s.49-1.7.49-2.68a1.67,1.67,0,0,0-1.62-1.79,3,3,0,0,0-2.9,1.13,3,3,0,0,0-.12,2.1c.19.38.14,1.36-1.17,1.1S62.88,11,62.18,9.91a2.81,2.81,0,0,0-2.69-1.29c-1.27.1-2.22.86-1.93,1.68s1.92,2.31.49,2.35-1.34-.92-2-1.67a3.35,3.35,0,0,0-3.16-.86c-1.19.29-1.76,1.16-1.14,1.91.41.47.76,1,.4,1.16S51,12.74,51,12.74a3.86,3.86,0,0,0-3.48-.11c-.91.53-.83,1.43.19,2,.48.29,1.09.72.75.94s-1.29-.23-1.29-.23a3.79,3.79,0,0,0-3.45.3c-.71.63-.25,1.45.89,2a9.63,9.63,0,0,0,2.82.77c.52,0,.48.51.17.53a16.65,16.65,0,0,0-3.37-.7c-1.44,0-2.77.24-3.07,1s.58,1.5,2,1.66c1.66.19,3.1.23,4.22.26s1,.35.88.72c-.39.84-3.85-.05-5.59-.19-1.42-.11-2.69.46-2.81,1.2s.94,1.35,2.35,1.48,2.95,0,3.12.58-2,1-3.29,1.15-2.32.91-2,1.63,1.62,1.13,3,1S50.85,28.77,49.65,31.46Z"/><path class="cls-6" d="M39.52,29.82s.52,2.62,4.16,2.4S50.89,29,50.89,29,43.54,32.14,39.52,29.82Z"/><path class="cls-7" d="M69.38,25.37c1.43-.79,4.4-2.36,1.87-4.12S74.49,17,77.9,15.91c2-.63,2.5-1.37,2.58-1.89a6.73,6.73,0,0,1-2.6,1.65c-1,.39-7.42,1.45-7-1.58a3.29,3.29,0,0,1-2.85.21,3.52,3.52,0,0,1-2.17-2,3.69,3.69,0,0,1-2.66,1.43,4,4,0,0,1-2.62-1,2.32,2.32,0,0,1-1.76,1.63,5.07,5.07,0,0,1-3.11-.48s.51,1.41-.69,1.94a3.56,3.56,0,0,1-2.71-.29s.84,1.48,0,2a3.2,3.2,0,0,1-2.57.33s1.31.82.86,1.49-2.66.88-2.66.88,1.94.81,1.52,1.6S47,23.24,47,23.24s2.22.66,2.37,1.37c.33,1.59-2.2,2.08-2.2,2.08a8.3,8.3,0,0,1,3.89,1.07c1.4,1,1,2-.89,3.34a12.65,12.65,0,0,1-6.9,2.16c4.12,1,8.56-2.54,13.4-5.23C61.9,25.14,68,26.16,69.38,25.37Z"/><path class="cls-10" d="M55.34,33.21S63,28,62.05,26.92s-7.81-1-7.81-1,5.12-.7,6-2.66-5.71-2.68-5.71-2.68,5.08.27,7.37.56S59.65,17,59.65,17l5,2.89,1.45-2.36s-.24,1.37,3.28,2.93,9.44-.7,11.45-1.93c-2.13,1.16-6,4.57-3.35,6.61A8.41,8.41,0,0,0,82.55,27l-4.08.84,5,2.88s-7.78-2.64-7.28-1.32a30.32,30.32,0,0,1,1,4.25s-1.24-3.83-4.64-3.3a6.19,6.19,0,0,0-4.6,3.49s.15-4-1.68-4.51S55.34,33.21,55.34,33.21Z"/><path class="cls-7" d="M92,13.46A27.82,27.82,0,0,0,96,15.2c-5.05.8-12,2.05-14.11,2.65,0,0,4.64-3.36,6.31-7.37l.32.29A21.41,21.41,0,0,0,92,13.46Z"/><path class="cls-7" d="M86.8,35.33A2.45,2.45,0,0,0,88,37.21a2.4,2.4,0,0,0,2.15.07c.56-.33.51-.88-.11-1.24A7.51,7.51,0,0,0,86.8,35.33Z"/><path class="cls-7" d="M89.81,33.36a4.47,4.47,0,0,0,2.36,1.48,2.1,2.1,0,0,0,2-.41c.31-.42-.1-.92-.91-1.12A8.21,8.21,0,0,0,89.81,33.36Z"/><path class="cls-7" d="M92,30.43a6.29,6.29,0,0,0,2.92,1.08c.88.08,1.68-.23,1.79-.68s-.5-.88-1.37-1A7.44,7.44,0,0,0,92,30.43Z"/><path class="cls-7" d="M92.76,27.14a8.88,8.88,0,0,0,3.42.36c.86-.12,1.4-.59,1.2-1s-1-.7-1.9-.58A5.08,5.08,0,0,0,92.76,27.14Z"/><path class="cls-7" d="M89.41,24.12a8.56,8.56,0,0,0,3.3-.64c.65-.34.74-.9.2-1.23a2.36,2.36,0,0,0-2.15,0A2.31,2.31,0,0,0,89.41,24.12Z"/><path class="cls-7" d="M66.54,38.7s-1.72.68-2.08,1.61c-.19.5.29,1,1.06,1.08a1.66,1.66,0,0,0,1.75-.72C67.66,39.65,66.54,38.7,66.54,38.7Z"/><path class="cls-7" d="M73,38.72s-1.29,1-1.12,1.9c.08.51.79.88,1.58.84s1.36-.49,1.28-1C74.55,39.42,73,38.72,73,38.72Z"/><path class="cls-7" d="M78.47,38s-1,1-.67,2a1.71,1.71,0,0,0,1.77.71c.77-.11,1.23-.6,1-1.09C80.18,38.61,78.47,38,78.47,38Z"/><path class="cls-7" d="M82.55,37.06a2,2,0,0,0,.54,2,2.25,2.25,0,0,0,2.08.32c.66-.25.81-.8.32-1.23A6.33,6.33,0,0,0,82.55,37.06Z"/><path class="cls-7" d="M51.91,15.18a8.42,8.42,0,0,1-3.26-.7c-.62-.36-.67-.92-.11-1.24a2.37,2.37,0,0,1,2.15.06A2.19,2.19,0,0,1,51.91,15.18Z"/><path class="cls-7" d="M55.32,13.44a5.59,5.59,0,0,1-2.56-1.35c-.34-.48,0-1,.7-1.18a2,2,0,0,1,1.95.53A1.76,1.76,0,0,1,55.32,13.44Z"/><path class="cls-7" d="M60.4,12.19s-1.64-.74-1.88-1.69c-.13-.51.4-1,1.19-1s1.52.29,1.65.79C61.62,11.3,60.4,12.19,60.4,12.19Z"/><path class="cls-7" d="M66.09,11.74s-1-1-.62-2a1.71,1.71,0,0,1,1.78-.7c.77.11,1.22.61,1,1.1C67.81,11.19,66.09,11.74,66.09,11.74Z"/><path class="cls-7" d="M71.33,13.68a2.33,2.33,0,0,1,1.1-1.91,2.38,2.38,0,0,1,2.14-.11c.58.31.57.87,0,1.24A7.27,7.27,0,0,1,71.33,13.68Z"/><path class="cls-7" d="M46.07,26.88a5.84,5.84,0,0,1-2.79,1.2c-.86.11-1.7-.16-1.87-.61s.39-.9,1.26-1A7.84,7.84,0,0,1,46.07,26.88Z"/><path class="cls-7" d="M46,23.16a8.16,8.16,0,0,1-3.29.65c-.88,0-1.54-.46-1.46-.92s.86-.78,1.74-.73A6,6,0,0,1,46,23.16Z"/><path class="cls-7" d="M47.21,20a8.81,8.81,0,0,1-3.41.38c-.86-.12-1.41-.58-1.23-1s1-.71,1.89-.59A5.1,5.1,0,0,1,47.21,20Z"/><path class="cls-7" d="M48.91,17.64a9.17,9.17,0,0,1-3.43-.31c-.74-.28-1-.82-.55-1.21a2.34,2.34,0,0,1,2.13-.18A3,3,0,0,1,48.91,17.64Z"/><path class="cls-11" d="M88.22,35.88c-.22.13,0,.46.45.73a1.6,1.6,0,0,0,1.25.26c.23-.13,0-.46-.44-.73A1.68,1.68,0,0,0,88.22,35.88Z"/><path class="cls-11" d="M91.49,33.57c-.12.17.27.42.89.57s1.2.14,1.33,0-.28-.42-.89-.57S91.61,33.4,91.49,33.57Z"/><path class="cls-11" d="M93.7,30.38c0,.18.45.38,1.11.43s1.23,0,1.27-.22-.45-.37-1.11-.43S93.75,30.21,93.7,30.38Z"/><path class="cls-11" d="M94.32,26.72c.07.18.66.25,1.3.15s1.11-.31,1-.49-.66-.24-1.31-.15S94.24,26.55,94.32,26.72Z"/><path class="cls-11" d="M90.42,23.32a1.65,1.65,0,0,0,1.27-.23c.49-.26.71-.58.5-.72a1.66,1.66,0,0,0-1.27.23C90.43,22.87,90.21,23.18,90.42,23.32Z"/><path class="cls-11" d="M66.5,39.69a.89.89,0,0,0-.82.61c-.14.38,0,.71.3.75a.87.87,0,0,0,.82-.61C66.94,40.07,66.81,39.73,66.5,39.69Z"/><path class="cls-11" d="M73.47,39.67a.57.57,0,0,0-.45.72.75.75,0,0,0,.69.66.57.57,0,0,0,.45-.72A.74.74,0,0,0,73.47,39.67Z"/><path class="cls-11" d="M79.17,38.94c-.3.05-.43.38-.27.76a.9.9,0,0,0,.83.6c.31,0,.43-.38.28-.76A.92.92,0,0,0,79.17,38.94Z"/><path class="cls-11" d="M83.75,37.77c-.26.1-.18.44.18.76a1.39,1.39,0,0,0,1.14.4c.26-.1.18-.44-.18-.76A1.39,1.39,0,0,0,83.75,37.77Z"/><path class="cls-11" d="M51,14.36a1.61,1.61,0,0,1-1.26-.25c-.47-.28-.67-.6-.44-.73a1.6,1.6,0,0,1,1.25.26C51,13.91,51.17,14.24,51,14.36Z"/><path class="cls-11" d="M55,12.48A1.14,1.14,0,0,1,54,12c-.25-.36-.23-.7.06-.77a1.12,1.12,0,0,1,1,.51C55.27,12.06,55.25,12.41,55,12.48Z"/><path class="cls-11" d="M60.47,11.2a.77.77,0,0,1-.73-.64c-.1-.38.08-.71.39-.73a.77.77,0,0,1,.73.64C61,10.85,60.78,11.17,60.47,11.2Z"/><path class="cls-11" d="M66.81,10.85c-.3,0-.42-.39-.25-.76a.9.9,0,0,1,.84-.59c.31,0,.42.38.26.75A.93.93,0,0,1,66.81,10.85Z"/><path class="cls-11" d="M72.71,13.09c-.23-.12,0-.45.4-.73a1.61,1.61,0,0,1,1.24-.29c.23.13.05.46-.4.74A1.55,1.55,0,0,1,72.71,13.09Z"/><path class="cls-11" d="M44.35,26.9c.07.18-.4.39-1.05.48s-1.23,0-1.3-.18.41-.39,1-.47S44.28,26.73,44.35,26.9Z"/><path class="cls-11" d="M44.39,22.88c0,.18-.59.3-1.25.26S42,22.92,42,22.74s.59-.29,1.25-.26S44.42,22.7,44.39,22.88Z"/><path class="cls-11" d="M45.65,19.59c-.07.18-.66.25-1.3.16s-1.11-.31-1-.48.65-.25,1.3-.16S45.72,19.41,45.65,19.59Z"/><path class="cls-11" d="M47.69,17a1.76,1.76,0,0,1-1.32-.11c-.56-.21-.87-.5-.7-.66a1.76,1.76,0,0,1,1.32.11C47.55,16.5,47.86,16.79,47.69,17Z"/><path class="cls-1" d="M13.13,60c11.75,6.18,23,8.94,35.85,5.64,11.29-2.9,14.17-8.42,17.74-10.49S79.85,51.42,84.88,44.9c5.72-7.42.94-13.92-9.77-20.7C59.49,14.31,39,16.08,30.6,18.55a64,64,0,0,0-15.48,6.8A44.24,44.24,0,0,0,3.34,34.29C-.93,39.11-4,51,13.13,60Z"/><path class="cls-12" d="M87.32,38.7a10.29,10.29,0,0,1-2.44,6.2c-5,6.52-14.59,8.18-18.16,10.24S60.27,62.73,49,65.63c-12.85,3.3-24.1.54-35.85-5.64C3.67,55,.37,49.17,0,44.12l0,.05v4.42c.21,5.12,3.44,11.13,13.12,16.22,11.75,6.19,23,9,35.85,5.64C60.27,67.55,63.15,62,66.72,60s13.13-3.73,18.16-10.25a10.32,10.32,0,0,0,2.44-6.1V38.7Z"/><path class="cls-13" d="M38.12,65.23c-7.61,0-15.28-2.17-24.15-6.84C7,54.74,2.89,50.21,2,45.29a11.85,11.85,0,0,1,2.7-9.8,41.29,41.29,0,0,1,10.79-8.27l.53-.31.52-.3a61.35,61.35,0,0,1,14.57-6.32,56.44,56.44,0,0,1,15-1.86c7.54,0,18.53,1.27,28.06,7.3,7,4.41,10.64,8.27,11.27,11.81.35,2-.29,4.07-2,6.25-3.27,4.25-8.94,6.34-13.08,7.86a32,32,0,0,0-4.55,1.93,20.49,20.49,0,0,0-3.42,2.69,29.14,29.14,0,0,1-13.87,7.61,41.27,41.27,0,0,1-10.41,1.35Z"/><path class="cls-14" d="M51.71,51.37c-1-.4-7.42-1.45-7,1.57a3.34,3.34,0,0,0-2.86-.2,3.48,3.48,0,0,0-2.16,2,3.7,3.7,0,0,0-2.67-1.42,4.08,4.08,0,0,0-2.62,1,2.3,2.3,0,0,0-1.75-1.63,5.09,5.09,0,0,0-3.12.48s.51-1.42-.69-1.95a3.59,3.59,0,0,0-2.71.3s.85-1.49,0-2a3.22,3.22,0,0,0-2.58-.33s1.32-.82.86-1.49-2.66-.88-2.66-.88,2-.82,1.52-1.6-2.48-1.41-2.48-1.41,2.22-.66,2.37-1.37c.33-1.59-2.2-2.09-2.2-2.09a8.43,8.43,0,0,0,3.9-1.06c1.39-1,1-2-.9-3.34s-6.7-3.2-9.89-1.43S8.67,40.72,11.81,48s13.66,13.2,28.7,12.47C54.06,59.77,58.79,54.2,51.71,51.37Z"/><path class="cls-15" d="M23.48,35.58a6.32,6.32,0,0,1,.54.36c1.91,1.38,2.29,2.34.9,3.34A8.43,8.43,0,0,1,21,40.34s2.53.5,2.2,2.09c-.15.71-2.37,1.37-2.37,1.37s2.06.63,2.48,1.41-1.52,1.6-1.52,1.6,2.2.21,2.66.88-.86,1.49-.86,1.49a3.22,3.22,0,0,1,2.58.33c.83.51,0,2,0,2a3.59,3.59,0,0,1,2.71-.3c1.2.53.69,1.95.69,1.95a5.09,5.09,0,0,1,3.12-.48,2.3,2.3,0,0,1,1.75,1.63,4.08,4.08,0,0,1,2.62-1,3.7,3.7,0,0,1,2.67,1.42,3.48,3.48,0,0,1,2.16-2,3.34,3.34,0,0,1,2.86.2c-.22-1.43,1.11-1.95,2.68-2a.41.41,0,0,1-.34.27c-3,.73,1.61,2.45,2.27,2.83,1,.59,1,1.51,0,2a3.94,3.94,0,0,1-3.48-.19c-1-.57-2-2-3.35-1.49s.5,1.7.5,2.68a1.68,1.68,0,0,1-1.63,1.79,3,3,0,0,1-2.9-1.13,3,3,0,0,1-.12-2.1c.19-.38.14-1.36-1.16-1.1s-.56,1.59-1.26,2.66a2.82,2.82,0,0,1-2.68,1.29c-1.28-.11-2.23-.87-1.94-1.68s1.93-2.31.5-2.35-1.35.92-2,1.67a3.35,3.35,0,0,1-3.16.86C25.53,56.63,25,55.76,25.58,55c.4-.48.75-1,.4-1.16s-1.17.45-1.17.45a3.91,3.91,0,0,1-3.49.11c-.91-.53-.82-1.43.19-2,.49-.28,1.09-.71.75-.93s-1.28.22-1.28.22a3.78,3.78,0,0,1-3.46-.3c-.7-.62-.24-1.44.89-1.94a10.12,10.12,0,0,1,2.82-.78c.52,0,.49-.51.17-.52a16.65,16.65,0,0,1-3.37.7c-1.43,0-2.77-.24-3.07-1s.58-1.5,2-1.66c1.67-.19,3.1-.24,4.22-.26s1-.35.88-.73c-.39-.83-3.85.05-5.59.19-1.42.12-2.69-.45-2.81-1.19s.94-1.36,2.36-1.49,2.94,0,3.11-.57-2-1-3.29-1.15-2.31-.91-2-1.63,1.62-1.13,3-1S24.69,38.27,23.48,35.58Z"/><path class="cls-16" d="M59.79,46.7c-.68-.56-2.5-4.28,2.73-4,0,0-1.37-.67-.35-1.65s3.44-1.25,3.44-1.25-2.48-.62-2.47-1.54,1.75-1.51,1.75-1.51-2.18-.15-2.82-1,.83-1.8.83-1.8-2.45.29-3.37-.4S60,32,60,32s-2.57.48-3.46,0-.93-.88-.57-1.48a4.44,4.44,0,0,1-2.59.49,2.28,2.28,0,0,1-1.52-1.53,4.13,4.13,0,0,1-2.77.88,5.19,5.19,0,0,1-2.45-1.44,4.28,4.28,0,0,1-2.37,1.37C41.56,30.44,40.7,29,40.7,29a2.93,2.93,0,0,1-1.84,2.25c-1.73.81-3.39.59-5.79-.52S27.53,26.85,30.6,25s10.75-3.15,23.29-1.33,22.87,7.88,21.6,16.57C74.34,48.06,64.7,50.79,59.79,46.7Z"/><path class="cls-17" d="M32.45,30.4a6,6,0,0,0,.62.31c2.4,1.11,4.06,1.33,5.79.52A2.93,2.93,0,0,0,40.7,29s.86,1.46,3.61,1.27a4.28,4.28,0,0,0,2.37-1.37,5.19,5.19,0,0,0,2.45,1.44,4.13,4.13,0,0,0,2.77-.88A2.28,2.28,0,0,0,53.42,31,4.44,4.44,0,0,0,56,30.48c-.36.6-.32,1,.57,1.48S60,32,60,32s-1.43.87-.51,1.56,3.37.4,3.37.4-1.48.94-.83,1.8,2.82,1,2.82,1-1.74.59-1.75,1.51,2.47,1.54,2.47,1.54-2.42.27-3.44,1.25.35,1.65.35,1.65c-2.48-.12-3.37.64-3.56,1.55a.59.59,0,0,0,.47-.2c1.27-1.71,4.25.94,4.91,1.31a3.78,3.78,0,0,0,3.49,0c.88-.54.69-1.42-.33-2S64,42.2,64.92,41.43s3,.29,4.65.29c1.43,0,2.77-.22,3.09-.94s-.6-1.4-2-1.68A15.53,15.53,0,0,0,67.07,39c-.66.11-2.36.09-1.91-.67s2.75-.32,4.61-.72c1.35-.3,2.42-.82,2.24-1.55S70.51,34.8,69.1,35s-4,1.11-4.07.29,1.58-.78,2.89-1.17,2-1.14,1.49-1.82a3.39,3.39,0,0,0-3.31-.66c-.82.23-1.81.44-2,.23s.79-.67.79-.67c1-.59,1.1-1.49.19-2a3.88,3.88,0,0,0-3.49.1c-.49.28-1.24.64-1.62.44s.39-.74.39-.74c.79-.7.56-1.59-.52-2a3.77,3.77,0,0,0-3.37.52,3.68,3.68,0,0,0-1.34,1.63c0,.29-.88.27-.91.09s1.22-1.08,1.22-1.94a1.7,1.7,0,0,0-1.67-1.78c-1.25-.17-2.59.34-2.87,1.15a9.37,9.37,0,0,0-.46,2.44c0,.65-.6.6-1.25.51-1.45-.23.09-2.23.33-3.23.2-.82-.79-1.55-2.07-1.63a2.41,2.41,0,0,0-2.57,1.37c-.24.84,0,1.7-1,1.8s-1.66-1.17-2-1.9A2.72,2.72,0,0,0,39,24.81c-1.26.16-1.95.93-1.72,1.75S37.1,31.1,32.45,30.4Z"/><path class="cls-6" d="M35.28,24.56s-4.54.29-4.15,2.4,5.51,4.16,5.51,4.16S31.27,26.87,35.28,24.56Z"/><path class="cls-7" d="M43,41.8c1.37.82,4.1,2.54,7.13,1.07s7.41,1.87,9.26,3.84a4.78,4.78,0,0,0,3.27,1.5,8,8,0,0,1-2.86-1.51c-.68-.56-2.5-4.28,2.73-4,0,0-1.37-.67-.35-1.65s3.44-1.25,3.44-1.25-2.48-.62-2.47-1.54,1.75-1.51,1.75-1.51-2.18-.15-2.82-1,.83-1.8.83-1.8-2.45.29-3.37-.4S60,32,60,32s-2.57.48-3.46,0-.93-.88-.57-1.48a4.44,4.44,0,0,1-2.59.49,2.28,2.28,0,0,1-1.52-1.53,4.13,4.13,0,0,1-2.77.88,5.19,5.19,0,0,1-2.45-1.44,4.28,4.28,0,0,1-2.37,1.37C41.56,30.44,40.7,29,40.7,29a2.93,2.93,0,0,1-1.84,2.25c-1.73.81-3.39.59-5.79-.52-1.73-.79-3.82-2.43-3.74-4-1.67,2.38,4.39,4.94,9.05,7.74C43.4,37.48,41.62,41,43,41.8Z"/><path class="cls-7" d="M60.64,31.35a2.44,2.44,0,0,1,1.22-1.88A2.4,2.4,0,0,1,64,29.4c.56.32.5.88-.12,1.24A7.48,7.48,0,0,1,60.64,31.35Z"/><path class="cls-7" d="M63.65,33.31A4.49,4.49,0,0,1,66,31.84a2.14,2.14,0,0,1,2,.4c.31.42-.1.93-.92,1.12A8.18,8.18,0,0,1,63.65,33.31Z"/><path class="cls-7" d="M65.82,36.24a6.48,6.48,0,0,1,2.93-1.08c.87-.07,1.67.23,1.79.69s-.5.88-1.38.95A7.44,7.44,0,0,1,65.82,36.24Z"/><path class="cls-7" d="M66.6,39.53A8.84,8.84,0,0,1,70,39.17c.85.13,1.39.59,1.2,1s-1,.71-1.91.58A4.94,4.94,0,0,1,66.6,39.53Z"/><path class="cls-7" d="M63.24,42.56a8.48,8.48,0,0,1,3.3.63c.65.35.74.9.2,1.24a2.39,2.39,0,0,1-2.15,0A2.32,2.32,0,0,1,63.24,42.56Z"/><path class="cls-7" d="M40.38,28s-1.73-.67-2.08-1.6c-.19-.5.28-1,1.06-1.09A1.67,1.67,0,0,1,41.1,26C41.49,27,40.38,28,40.38,28Z"/><path class="cls-7" d="M46.82,28S45.54,27,45.7,26.06c.09-.51.8-.89,1.59-.84s1.36.49,1.27,1C48.38,27.26,46.82,28,46.82,28Z"/><path class="cls-7" d="M52.3,28.63s-1-1-.66-2a1.69,1.69,0,0,1,1.77-.7c.77.1,1.23.59,1,1.09C54,28.06,52.3,28.63,52.3,28.63Z"/><path class="cls-7" d="M56.39,29.62a2,2,0,0,1,.54-2A2.23,2.23,0,0,1,59,27.32c.66.25.8.8.32,1.22A6.3,6.3,0,0,1,56.39,29.62Z"/><path class="cls-7" d="M25.74,51.49a8.24,8.24,0,0,0-3.25.71c-.63.36-.68.91-.12,1.24a2.4,2.4,0,0,0,2.15-.07A2.19,2.19,0,0,0,25.74,51.49Z"/><path class="cls-7" d="M29.15,53.23a5.65,5.65,0,0,0-2.56,1.36c-.34.47,0,1,.7,1.17a2,2,0,0,0,1.95-.52A1.77,1.77,0,0,0,29.15,53.23Z"/><path class="cls-7" d="M34.23,54.49s-1.64.74-1.88,1.69c-.13.5.41,1,1.19,1s1.53-.29,1.65-.8C35.45,55.38,34.23,54.49,34.23,54.49Z"/><path class="cls-7" d="M39.92,54.93s-1,1-.62,2a1.74,1.74,0,0,0,1.79.69c.77-.11,1.22-.6,1-1.1C41.65,55.49,39.92,54.93,39.92,54.93Z"/><path class="cls-7" d="M45.17,53a2.32,2.32,0,0,0,1.09,1.9A2.35,2.35,0,0,0,48.4,55c.58-.31.57-.87,0-1.25A7.32,7.32,0,0,0,45.17,53Z"/><path class="cls-7" d="M19.9,39.8a5.91,5.91,0,0,0-2.78-1.21c-.87-.11-1.71.17-1.88.62s.4.9,1.26,1A7.72,7.72,0,0,0,19.9,39.8Z"/><path class="cls-7" d="M19.87,43.52a7.92,7.92,0,0,0-3.29-.65c-.88.05-1.53.46-1.45.91s.85.79,1.73.74A6,6,0,0,0,19.87,43.52Z"/><path class="cls-7" d="M21.05,46.68a8.66,8.66,0,0,0-3.42-.38c-.86.11-1.41.57-1.22,1s1,.71,1.89.59A5.1,5.1,0,0,0,21.05,46.68Z"/><path class="cls-7" d="M22.75,49a9,9,0,0,0-3.44.31c-.74.28-1,.82-.55,1.2a2.34,2.34,0,0,0,2.13.19A3,3,0,0,0,22.75,49Z"/><path class="cls-11" d="M61.85,30.51c-.22-.13,0-.45.45-.72a1.6,1.6,0,0,1,1.25-.26c.23.13,0,.45-.44.72A1.62,1.62,0,0,1,61.85,30.51Z"/><path class="cls-11" d="M65.32,32.7c-.12-.17.28-.42.89-.57s1.21-.14,1.33,0-.28.42-.89.57S65.45,32.87,65.32,32.7Z"/><path class="cls-11" d="M67.53,36c0-.18.46-.37,1.11-.43s1.23,0,1.27.23-.45.37-1.1.42S67.58,36.13,67.53,36Z"/><path class="cls-11" d="M68.31,39.66c.08-.18.67-.25,1.31-.15s1.11.31,1,.49-.66.24-1.31.15S68.24,39.83,68.31,39.66Z"/><path class="cls-11" d="M64.75,43.15a1.62,1.62,0,0,1,1.27.23c.49.26.71.58.5.71a1.68,1.68,0,0,1-1.28-.23C64.76,43.6,64.53,43.28,64.75,43.15Z"/><path class="cls-11" d="M39.72,27a.86.86,0,0,1-.81-.61c-.15-.37,0-.71.29-.74a.87.87,0,0,1,.82.6C40.16,26.61,40,26.94,39.72,27Z"/><path class="cls-11" d="M46.88,27.06a.57.57,0,0,1-.45-.72.74.74,0,0,1,.69-.66c.31,0,.51.34.45.72A.74.74,0,0,1,46.88,27.06Z"/><path class="cls-11" d="M52.31,27.66c-.31,0-.43-.38-.28-.75a.91.91,0,0,1,.83-.6c.31,0,.43.38.28.75A.89.89,0,0,1,52.31,27.66Z"/><path class="cls-11" d="M57.3,28.55c-.26-.1-.18-.44.19-.76a1.36,1.36,0,0,1,1.13-.4c.27.1.19.44-.18.76A1.37,1.37,0,0,1,57.3,28.55Z"/><path class="cls-11" d="M24.78,51.93a1.6,1.6,0,0,0-1.25.26c-.47.27-.67.59-.45.72a1.63,1.63,0,0,0,1.26-.26C24.8,52.38,25,52.06,24.78,51.93Z"/><path class="cls-11" d="M28.79,53.82a1.11,1.11,0,0,0-1,.51c-.26.35-.23.69.06.77a1.12,1.12,0,0,0,1-.52C29.11,54.23,29.08,53.89,28.79,53.82Z"/><path class="cls-11" d="M34.31,55.09a.8.8,0,0,0-.74.64c-.09.38.08.71.39.74a.8.8,0,0,0,.74-.64C34.79,55.45,34.62,55.12,34.31,55.09Z"/><path class="cls-11" d="M40.65,55.45c-.31,0-.42.38-.26.75a.93.93,0,0,0,.85.6c.3,0,.42-.39.26-.76A.92.92,0,0,0,40.65,55.45Z"/><path class="cls-11" d="M46.55,53.2c-.23.12,0,.45.4.73a1.55,1.55,0,0,0,1.23.29c.23-.12.06-.45-.4-.73A1.59,1.59,0,0,0,46.55,53.2Z"/><path class="cls-11" d="M18.19,39.39c.06-.18-.41-.39-1.06-.47s-1.23,0-1.29.17.4.39,1.05.47S18.12,39.57,18.19,39.39Z"/><path class="cls-11" d="M18.23,43.41c0-.18-.59-.29-1.25-.26s-1.18.22-1.15.4.6.3,1.26.26S18.26,43.6,18.23,43.41Z"/><path class="cls-11" d="M19.48,46.71c-.07-.18-.65-.25-1.3-.16s-1.11.3-1,.48.66.25,1.31.16S19.56,46.88,19.48,46.71Z"/><path class="cls-11" d="M21.52,49.35a1.74,1.74,0,0,0-1.32.1c-.55.21-.86.51-.69.66A1.71,1.71,0,0,0,20.83,50C21.38,49.79,21.69,49.5,21.52,49.35Z"/><path class="cls-6" d="M13.36,37.22s.51-2.63,4.15-2.4S24.73,38,24.73,38,17.37,34.9,13.36,37.22Z"/><path class="cls-7" d="M43.22,41.67c1.42.79,4.4,2.36,1.86,4.12s3.24,4.27,6.65,5.34c2,.62,2.5,1.37,2.59,1.89a6.78,6.78,0,0,0-2.61-1.65c-1-.4-7.42-1.45-7,1.57a3.34,3.34,0,0,0-2.86-.2,3.48,3.48,0,0,0-2.16,2,3.7,3.7,0,0,0-2.67-1.42,4.08,4.08,0,0,0-2.62,1,2.3,2.3,0,0,0-1.75-1.63,5.09,5.09,0,0,0-3.12.48s.51-1.42-.69-1.95a3.59,3.59,0,0,0-2.71.3s.85-1.49,0-2a3.22,3.22,0,0,0-2.58-.33s1.32-.82.86-1.49-2.66-.88-2.66-.88,2-.82,1.52-1.6-2.48-1.41-2.48-1.41,2.22-.66,2.37-1.37c.33-1.59-2.2-2.09-2.2-2.09a8.43,8.43,0,0,0,3.9-1.06c1.39-1,1-2-.9-3.34a12.65,12.65,0,0,0-6.9-2.16c4.13-1,8.56,2.53,13.4,5.22C35.73,41.9,41.79,40.87,43.22,41.67Z"/><path class="cls-10" d="M29.17,33.83s7.64,5.23,6.71,6.28-7.81,1-7.81,1,5.12.7,6,2.66-5.71,2.67-5.71,2.67,5.07-.26,7.36-.55-2.29,4.21-2.29,4.21l5-2.89,1.45,2.36s-.24-1.37,3.28-2.93,9.45.7,11.45,1.93c-2.12-1.16-6-4.58-3.34-6.61A8.45,8.45,0,0,1,56.38,40L52.3,39.2l5-2.88S49.52,39,50,37.64a30.32,30.32,0,0,0,1-4.25s-1.23,3.83-4.63,3.29a6.19,6.19,0,0,1-4.61-3.49s.15,4-1.67,4.51S29.17,33.83,29.17,33.83Z"/><path class="cls-7" d="M65.82,53.58a27.19,27.19,0,0,1,4.06-1.74c-5-.81-12-2.05-14.11-2.66,0,0,4.64,3.37,6.31,7.38l.32-.29A20.49,20.49,0,0,1,65.82,53.58Z"/></g></g></svg>