<svg xmlns="http://www.w3.org/2000/svg" xmlns:xlink="http://www.w3.org/1999/xlink" viewBox="0 0 131.89 84.76"><defs><style>.cls-1{fill:#d9a363;}.cls-2{fill:url(#linear-gradient);}.cls-3{fill:#eac78f;}.cls-4{fill:#eccb96;}.cls-5{fill:#eece9d;}.cls-6{fill:#f0d2a4;}.cls-7{fill:#f2d6ab;}.cls-8{fill:#f4dab2;}.cls-9{fill:#f6ddb9;}.cls-10{fill:url(#radial-gradient);}.cls-11{opacity:0.3;}</style><linearGradient id="linear-gradient" y1="62.58" x2="131.87" y2="62.58" gradientUnits="userSpaceOnUse"><stop offset="0" stop-color="#ab5c00"/><stop offset="0.08" stop-color="#d9a363"/><stop offset="0.1" stop-color="#d28f41"/><stop offset="0.53" stop-color="#d18e3f"/><stop offset="0.62" stop-color="#d9a363"/><stop offset="1" stop-color="#d9a363"/></linearGradient><radialGradient id="radial-gradient" cx="65.92" cy="38.55" r="51.39" gradientUnits="userSpaceOnUse"><stop offset="0" stop-color="#fdebd3"/><stop offset="1" stop-color="#f8e1c0"/></radialGradient></defs><title>Asset 7</title><g id="Layer_2" data-name="Layer 2"><g id="Ñëîé_1" data-name="Ñëîé 1"><path class="cls-1" d="M129.5,41.56l-51.13-35s.86-3.45-4.4-5.9c-4-1.89-18,0-42.17,13.12S-1.28,38,.15,40.87c2.41,4.83,11.07,4.42,11.07,4.42l62.18,31a7.86,7.86,0,0,0,7.77-.36l48.62-28.08C132.07,46.5,133.17,44.71,129.5,41.56Z"/><path class="cls-2" d="M129.79,47.81,81.17,75.89a7.86,7.86,0,0,1-7.77.36l-62.18-31S2.56,45.7.15,40.87A1.43,1.43,0,0,1,0,40.4H0v7.54a1.31,1.31,0,0,0,.15.58C2.56,53.36,11.22,53,11.22,53l62.18,31a7.86,7.86,0,0,0,7.77-.36l48.62-28.08a3.56,3.56,0,0,0,2.08-2.39V45.42h0A3.58,3.58,0,0,1,129.79,47.81Z"/><path class="cls-3" d="M76.82,76.72a6.5,6.5,0,0,1-3.23-.8l-62.29-31h-.58c-1.91,0-8.28-.31-10.23-4.22-1.1-2.21,6.4-13,31.5-26.63C54.72,1.72,66.26.38,70.16.38A8.9,8.9,0,0,1,73.8,1C78.69,3.24,78,6.3,78,6.43l-.06.26.21.15,51.12,35c1.57,1.35,2.32,2.51,2.23,3.46-.07.76-.68,1.45-1.9,2.15L81,75.56A8.29,8.29,0,0,1,76.82,76.72Z"/><path class="cls-4" d="M32.14,14.36C54.81,2,66.28.71,70.16.71A11.11,11.11,0,0,1,72.89,1a4.71,4.71,0,0,1,.9.33,8.58,8.58,0,0,1,2.72,2,5.15,5.15,0,0,1,.82,1.48,5,5,0,0,1,.5,2l0,.24.21.15,51.05,35a9.91,9.91,0,0,1,1.42,1.46,2.27,2.27,0,0,1,.33.71,2,2,0,0,1,.1,1.13c-.06.66-.91,1.44-2,2L81,75.16a10.34,10.34,0,0,1-1.55.73,7.48,7.48,0,0,1-2.53.49,6.22,6.22,0,0,1-.87,0,5.93,5.93,0,0,1-2.25-.68l-.06,0L11.64,44.71h-.09s-.22,0-.48,0-1-.11-1.59-.16l-.69-.05-.39,0C5.71,44.16,2.16,43.22.81,40.6c-.43-1.08,1.15-4.22,6-8.81S19.55,21.2,32.14,14.36Z"/><path class="cls-5" d="M32.3,14.65C54.9,2.36,66.31,1,70.16,1a10,10,0,0,1,2.73.3,5.57,5.57,0,0,1,.88.34,7.77,7.77,0,0,1,2.62,2.08c.35.36.46,1.2.61,1.52a11,11,0,0,1,.67,1.8v.23l.21.14,51,34.94a9.35,9.35,0,0,1,1.39,1.44,1.35,1.35,0,0,1,.16.67c.16.32,0,.77-.07,1-.06.55-1.15,1.42-2,1.92L81,74.76a12.59,12.59,0,0,1-1.52.75,7.22,7.22,0,0,1-2.48.54,8.23,8.23,0,0,1-.86,0A5.5,5.5,0,0,1,74,75.38l-.07,0L12,44.52H11.9a3,3,0,0,0-.47,0c-.27,0-1.08-.21-1.56-.25l-.7,0-.38,0C6.06,43.91,2.48,43,1.13,40.49c-.31-1,1.26-4.11,6.05-8.63C11.79,27.49,19.72,21.48,32.3,14.65Z"/><path class="cls-6" d="M32.45,14.93C55,2.69,66.33,1.36,70.16,1.36a9.55,9.55,0,0,1,2.72.32,5.07,5.07,0,0,1,.87.36A6.63,6.63,0,0,1,76.26,4.2c.28.29.29,1.3.41,1.56.31.66.84,1.61.83,1.65l0,.21.21.14,50.91,34.88A9.13,9.13,0,0,1,130,44.08a.94.94,0,0,1,0,.62c.13.25-.24.73-.26.95,0,.43-1.39,1.4-2.09,1.8L81.07,74.37c-.3.17-1.18.64-1.48.75a6.87,6.87,0,0,1-2.43.59,6,6,0,0,1-.85,0,5.38,5.38,0,0,1-2.19-.62l-.06,0L12.34,44.32h-.09a2.24,2.24,0,0,0-.46-.09c-.22,0-1.16-.31-1.54-.34-.13,0-.55,0-.69,0l-.38,0c-2.78-.18-6.39-1.05-7.73-3.44-.19-1,1.37-4,6.13-8.48C12.06,27.71,19.88,21.77,32.45,14.93Z"/><path class="cls-7" d="M32.61,15.22C55.08,3,66.36,1.69,70.16,1.69A8.71,8.71,0,0,1,72.87,2a6.32,6.32,0,0,1,.86.38,5.45,5.45,0,0,1,2.4,2.25c.21.21.12,1.39.21,1.59a16.23,16.23,0,0,0,1,1.5l.09.19.21.14L128.47,42.9a7.68,7.68,0,0,1,1.33,1.42.89.89,0,0,1-.17.58c.1.19-.42.69-.44.85,0,.33-1.62,1.39-2.14,1.7L81.1,74c-.22.13-1.22.68-1.45.76a6.94,6.94,0,0,1-2.38.65,7.69,7.69,0,0,1-.83,0,5,5,0,0,1-2.16-.59l-.07,0L12.68,44.13l-.08,0a2.41,2.41,0,0,0-.46-.12c-.16,0-1.22-.41-1.51-.43H9.94l-.38,0c-2.81-.12-6.46-1-7.79-3.23C1.7,39.31,3.26,36.39,8,32,12.34,27.93,20,22.05,32.61,15.22Z"/><path class="cls-8" d="M32.77,15.51C55.17,3.33,66.38,2,70.16,2a8.22,8.22,0,0,1,2.7.34,6.14,6.14,0,0,1,.85.4A4.5,4.5,0,0,1,76,5.09c.14.14,0,1.5,0,1.63a12.53,12.53,0,0,0,1.16,1.34l.13.18.21.14,50.76,34.78a7.38,7.38,0,0,1,1.3,1.4,1.16,1.16,0,0,1-.33.54c.07.13-.61.65-.62.76a12.27,12.27,0,0,1-2.21,1.58L81.13,73.58c-.15.08-1.27.71-1.42.77a6.7,6.7,0,0,1-2.33.69,5.62,5.62,0,0,1-.82,0,4.86,4.86,0,0,1-2.13-.55l-.06,0L13,43.94l-.09,0a2.75,2.75,0,0,0-.44-.15c-.11,0-1.29-.51-1.48-.52s-.62,0-.69,0H10c-2.86-.08-6.54-.87-7.86-3,.05-1,1.6-3.8,6.31-8.14C12.62,28.16,20.2,22.33,32.77,15.51Z"/><path class="cls-9" d="M32.92,15.8C55.26,3.66,66.41,2.34,70.16,2.34a7.55,7.55,0,0,1,2.69.36,8.21,8.21,0,0,1,.84.42c2,1.11,2.11,2.17,2.19,2.41.07.07-.23,1.6-.2,1.67A16.25,16.25,0,0,0,77,8.39l.16.16.21.14,50.69,34.73a6.92,6.92,0,0,1,1.28,1.39,2.08,2.08,0,0,1-.5.49c0,.06-.81.61-.81.67a26.38,26.38,0,0,1-2.27,1.46L81.16,73.18c-.07,0-1.31.75-1.39.78a6.59,6.59,0,0,1-2.27.75,7.32,7.32,0,0,1-.81,0,4.41,4.41,0,0,1-2.1-.52l-.07,0L13.37,43.74l-.08,0a4,4,0,0,0-.44-.18s-1.35-.61-1.45-.62-.65,0-.69,0h-.38c-2.89,0-6.61-.78-7.92-2.83.17-.94,1.71-3.69,6.4-8C12.9,28.38,20.37,22.62,32.92,15.8Z"/><path class="cls-10" d="M76.82,74.43a4.32,4.32,0,0,1-2.08-.49l-.06,0L11.79,42.59l-.69,0h-.38c-2.94,0-6.69-.7-8-2.63.29-.92,1.82-3.59,6.49-7.81,4-3.58,11.31-9.29,23.86-16.11C55.35,4,66.43,2.67,70.16,2.67A6.91,6.91,0,0,1,72.84,3C75.73,4.39,75.76,5.78,75.75,6l-.4,1.7,1.49,1.05,51,35a6.55,6.55,0,0,1,1.25,1.37,4.12,4.12,0,0,1-.67.45L79.83,73.57A6,6,0,0,1,76.82,74.43Z"/><g class="cls-11"><path class="cls-3" d="M49.08,32.79c.72.42.72,1.08,0,1.49a2.8,2.8,0,0,1-2.58,0,.79.79,0,0,1,0-1.49A2.86,2.86,0,0,1,49.08,32.79Z"/><path class="cls-3" d="M41.7,36.76a.79.79,0,0,1,0,1.49,2.86,2.86,0,0,1-2.58,0,.79.79,0,0,1,0-1.49A2.86,2.86,0,0,1,41.7,36.76Z"/><path class="cls-3" d="M53,26.58a.79.79,0,0,1,0,1.49,2.86,2.86,0,0,1-2.58,0,.78.78,0,0,1,0-1.49A2.86,2.86,0,0,1,53,26.58Z"/><path class="cls-3" d="M64.12,37.18a.79.79,0,0,1,0,1.49,2.86,2.86,0,0,1-2.58,0,.78.78,0,0,1,0-1.49A2.86,2.86,0,0,1,64.12,37.18Z"/><path class="cls-3" d="M60.47,28.22a.78.78,0,0,1,0,1.48,2.86,2.86,0,0,1-2.58,0c-.72-.41-.72-1.07,0-1.48A2.8,2.8,0,0,1,60.47,28.22Z"/><path class="cls-3" d="M55.61,39.77c.72.41.72,1.07,0,1.49a2.86,2.86,0,0,1-2.58,0,.79.79,0,0,1,0-1.49A2.86,2.86,0,0,1,55.61,39.77Z"/><path class="cls-3" d="M87.39,19.22c.72.41.72,1.07,0,1.49a2.86,2.86,0,0,1-2.58,0,.79.79,0,0,1,0-1.49A2.8,2.8,0,0,1,87.39,19.22Z"/><path class="cls-3" d="M41.41,49.93a.79.79,0,0,1,0,1.49,2.86,2.86,0,0,1-2.58,0,.79.79,0,0,1,0-1.49A2.86,2.86,0,0,1,41.41,49.93Z"/><path class="cls-3" d="M43.31,30.17c.37.22.37.57,0,.78A1.46,1.46,0,0,1,42,31c-.38-.21-.38-.56,0-.78A1.53,1.53,0,0,1,43.31,30.17Z"/><path class="cls-3" d="M53.17,32.1c.38.21.38.56,0,.78a1.53,1.53,0,0,1-1.35,0c-.37-.22-.37-.57,0-.78A1.46,1.46,0,0,1,53.17,32.1Z"/><path class="cls-3" d="M53.56,36.06c.38.22.38.57,0,.78a1.44,1.44,0,0,1-1.34,0c-.38-.21-.38-.56,0-.78A1.5,1.5,0,0,1,53.56,36.06Z"/><path class="cls-3" d="M47.6,37.12c.37.21.37.56,0,.78a1.53,1.53,0,0,1-1.35,0c-.37-.22-.37-.57,0-.78A1.46,1.46,0,0,1,47.6,37.12Z"/><path class="cls-3" d="M47.6,30.17c.37.22.37.57,0,.78a1.46,1.46,0,0,1-1.35,0c-.37-.21-.37-.56,0-.78A1.53,1.53,0,0,1,47.6,30.17Z"/><path class="cls-3" d="M42.35,26.11c.37.22.37.57,0,.78a1.46,1.46,0,0,1-1.35,0c-.37-.21-.37-.56,0-.78A1.53,1.53,0,0,1,42.35,26.11Z"/><path class="cls-3" d="M38.3,32.1c.38.21.38.56,0,.78a1.5,1.5,0,0,1-1.34,0c-.38-.22-.38-.57,0-.78A1.46,1.46,0,0,1,38.3,32.1Z"/><path class="cls-3" d="M47.6,26.66c.37.22.37.57,0,.78a1.46,1.46,0,0,1-1.35,0c-.37-.21-.37-.56,0-.78A1.53,1.53,0,0,1,47.6,26.66Z"/><path class="cls-3" d="M59.22,35.26c.38.22.38.57,0,.78a1.46,1.46,0,0,1-1.35,0c-.37-.21-.37-.56,0-.78A1.53,1.53,0,0,1,59.22,35.26Z"/><ellipse class="cls-3" cx="56.64" cy="24.1" rx="0.95" ry="0.55"/><path class="cls-3" d="M49.91,24.81c.38.22.38.57,0,.78a1.46,1.46,0,0,1-1.35,0c-.37-.21-.37-.56,0-.78A1.53,1.53,0,0,1,49.91,24.81Z"/><path class="cls-3" d="M44.26,23.92c.37.22.37.57,0,.78a1.46,1.46,0,0,1-1.35,0c-.37-.21-.37-.56,0-.78A1.53,1.53,0,0,1,44.26,23.92Z"/><path class="cls-3" d="M37.35,28.07c.37.21.37.56,0,.78a1.53,1.53,0,0,1-1.35,0c-.37-.22-.37-.57,0-.78A1.46,1.46,0,0,1,37.35,28.07Z"/><path class="cls-3" d="M41.75,34.2c.37.22.37.57,0,.78a1.46,1.46,0,0,1-1.35,0c-.37-.21-.37-.56,0-.78A1.53,1.53,0,0,1,41.75,34.2Z"/><path class="cls-3" d="M46.64,42.93c.38.22.38.57,0,.78a1.46,1.46,0,0,1-1.35,0c-.37-.21-.37-.56,0-.78A1.53,1.53,0,0,1,46.64,42.93Z"/><path class="cls-3" d="M50.55,43.38c.37.21.37.56,0,.78a1.53,1.53,0,0,1-1.35,0c-.38-.22-.38-.57,0-.78A1.46,1.46,0,0,1,50.55,43.38Z"/><path class="cls-3" d="M40.09,41.93c.37.21.37.56,0,.78a1.53,1.53,0,0,1-1.35,0c-.37-.22-.37-.57,0-.78A1.46,1.46,0,0,1,40.09,41.93Z"/><path class="cls-3" d="M43.31,47.48c.37.21.37.56,0,.78a1.53,1.53,0,0,1-1.35,0c-.38-.22-.38-.57,0-.78A1.46,1.46,0,0,1,43.31,47.48Z"/><path class="cls-3" d="M58,32.65c.37.21.37.56,0,.78a1.53,1.53,0,0,1-1.35,0c-.38-.22-.38-.57,0-.78A1.46,1.46,0,0,1,58,32.65Z"/><path class="cls-3" d="M64.36,15.25a.79.79,0,0,1,0,1.49,2.86,2.86,0,0,1-2.58,0,.78.78,0,0,1,0-1.49A2.86,2.86,0,0,1,64.36,15.25Z"/><path class="cls-3" d="M57,19.22a.79.79,0,0,1,0,1.49,2.86,2.86,0,0,1-2.58,0,.79.79,0,0,1,0-1.49A2.8,2.8,0,0,1,57,19.22Z"/><path class="cls-3" d="M68.26,9a.79.79,0,0,1,0,1.49,2.83,2.83,0,0,1-2.58,0,.78.78,0,0,1,0-1.48A2.8,2.8,0,0,1,68.26,9Z"/><path class="cls-3" d="M79.39,19.64a.79.79,0,0,1,0,1.49,2.86,2.86,0,0,1-2.58,0,.79.79,0,0,1,0-1.49A2.86,2.86,0,0,1,79.39,19.64Z"/><path class="cls-3" d="M75.74,10.67a.79.79,0,0,1,0,1.49,2.86,2.86,0,0,1-2.58,0,.79.79,0,0,1,0-1.49A2.86,2.86,0,0,1,75.74,10.67Z"/><path class="cls-3" d="M70.89,22.22a.79.79,0,0,1,0,1.49,2.86,2.86,0,0,1-2.58,0,.79.79,0,0,1,0-1.49A2.86,2.86,0,0,1,70.89,22.22Z"/><path class="cls-3" d="M58.58,12.63c.37.21.37.56,0,.78a1.53,1.53,0,0,1-1.35,0c-.37-.22-.37-.57,0-.78A1.46,1.46,0,0,1,58.58,12.63Z"/><path class="cls-3" d="M68.45,14.55c.37.22.37.57,0,.78a1.46,1.46,0,0,1-1.35,0c-.37-.21-.37-.56,0-.78A1.53,1.53,0,0,1,68.45,14.55Z"/><path class="cls-3" d="M68.84,18.52c.37.21.37.56,0,.78a1.53,1.53,0,0,1-1.35,0c-.37-.22-.37-.57,0-.78A1.46,1.46,0,0,1,68.84,18.52Z"/><path class="cls-3" d="M62.87,19.57a.41.41,0,0,1,0,.78,1.46,1.46,0,0,1-1.35,0,.41.41,0,0,1,0-.78A1.53,1.53,0,0,1,62.87,19.57Z"/><path class="cls-3" d="M62.87,12.63c.37.21.37.56,0,.78a1.53,1.53,0,0,1-1.35,0c-.37-.22-.37-.57,0-.78A1.46,1.46,0,0,1,62.87,12.63Z"/><path class="cls-3" d="M57.62,8.57c.38.21.38.56,0,.78a1.5,1.5,0,0,1-1.34,0c-.38-.22-.38-.57,0-.78A1.44,1.44,0,0,1,57.62,8.57Z"/><path class="cls-3" d="M53.58,14.55c.37.22.37.57,0,.78a1.46,1.46,0,0,1-1.35,0c-.37-.21-.37-.56,0-.78A1.53,1.53,0,0,1,53.58,14.55Z"/><path class="cls-3" d="M62.87,9.12c.37.21.37.56,0,.78a1.53,1.53,0,0,1-1.35,0c-.37-.22-.37-.57,0-.78A1.46,1.46,0,0,1,62.87,9.12Z"/><path class="cls-3" d="M74.5,17.72c.37.21.37.56,0,.78a1.53,1.53,0,0,1-1.35,0c-.37-.22-.37-.57,0-.78A1.46,1.46,0,0,1,74.5,17.72Z"/><path class="cls-3" d="M70,7.34c.37.21.37.56,0,.78a1.53,1.53,0,0,1-1.35,0c-.37-.22-.37-.57,0-.78A1.46,1.46,0,0,1,70,7.34Z"/><path class="cls-3" d="M65.19,7.27c.37.21.37.56,0,.78a1.53,1.53,0,0,1-1.35,0c-.38-.22-.38-.57,0-.78A1.46,1.46,0,0,1,65.19,7.27Z"/><path class="cls-3" d="M59.53,6.38c.38.21.38.56,0,.78a1.53,1.53,0,0,1-1.35,0c-.37-.22-.37-.57,0-.78A1.46,1.46,0,0,1,59.53,6.38Z"/><path class="cls-3" d="M52.62,10.52c.38.22.38.57,0,.78a1.46,1.46,0,0,1-1.35,0c-.37-.21-.37-.56,0-.78A1.53,1.53,0,0,1,52.62,10.52Z"/><path class="cls-3" d="M57,16.66c.37.21.37.56,0,.78a1.53,1.53,0,0,1-1.35,0c-.37-.22-.37-.57,0-.78A1.46,1.46,0,0,1,57,16.66Z"/><path class="cls-3" d="M61.92,25.39a.41.41,0,0,1,0,.78,1.53,1.53,0,0,1-1.35,0c-.38-.22-.38-.56,0-.78A1.46,1.46,0,0,1,61.92,25.39Z"/><path class="cls-3" d="M73.3,15.1c.37.22.37.57,0,.78a1.46,1.46,0,0,1-1.35,0c-.37-.21-.37-.56,0-.78A1.53,1.53,0,0,1,73.3,15.1Z"/><path class="cls-3" d="M23.85,40.36a.79.79,0,0,1,0,1.49,2.86,2.86,0,0,1-2.58,0,.79.79,0,0,1,0-1.49A2.86,2.86,0,0,1,23.85,40.36Z"/><path class="cls-3" d="M27.75,34.14c.72.42.72,1.08,0,1.49a2.8,2.8,0,0,1-2.58,0,.79.79,0,0,1,0-1.49A2.86,2.86,0,0,1,27.75,34.14Z"/><path class="cls-3" d="M38.88,44.75a.79.79,0,0,1,0,1.49,2.86,2.86,0,0,1-2.58,0,.79.79,0,0,1,0-1.49A2.86,2.86,0,0,1,38.88,44.75Z"/><path class="cls-3" d="M47.26,53a.79.79,0,0,1,0,1.49,2.86,2.86,0,0,1-2.58,0,.79.79,0,0,1,0-1.49A2.86,2.86,0,0,1,47.26,53Z"/><path class="cls-3" d="M35.23,35.78a.78.78,0,0,1,0,1.49,2.86,2.86,0,0,1-2.58,0,.79.79,0,0,1,0-1.49A2.86,2.86,0,0,1,35.23,35.78Z"/><path class="cls-3" d="M30.38,47.33a.79.79,0,0,1,0,1.49,2.86,2.86,0,0,1-2.58,0,.79.79,0,0,1,0-1.49A2.86,2.86,0,0,1,30.38,47.33Z"/><path class="cls-3" d="M18.07,37.74c.37.21.37.56,0,.78a1.53,1.53,0,0,1-1.35,0c-.37-.22-.37-.57,0-.78A1.46,1.46,0,0,1,18.07,37.74Z"/><path class="cls-3" d="M27.94,39.66a.41.41,0,0,1,0,.78,1.53,1.53,0,0,1-1.35,0,.41.41,0,0,1,0-.78A1.53,1.53,0,0,1,27.94,39.66Z"/><path class="cls-3" d="M28.33,43.63c.37.21.37.56,0,.78a1.53,1.53,0,0,1-1.35,0c-.37-.22-.37-.57,0-.78A1.46,1.46,0,0,1,28.33,43.63Z"/><path class="cls-3" d="M22.36,44.68c.38.21.38.56,0,.78a1.53,1.53,0,0,1-1.35,0c-.37-.22-.37-.57,0-.78A1.46,1.46,0,0,1,22.36,44.68Z"/><path class="cls-3" d="M22.36,37.74c.38.21.38.56,0,.78a1.53,1.53,0,0,1-1.35,0c-.37-.22-.37-.57,0-.78A1.46,1.46,0,0,1,22.36,37.74Z"/><path class="cls-3" d="M17.12,33.68c.37.21.37.56,0,.78a1.53,1.53,0,0,1-1.35,0c-.38-.22-.38-.57,0-.78A1.46,1.46,0,0,1,17.12,33.68Z"/><path class="cls-3" d="M13.07,39.66a.41.41,0,0,1,0,.78,1.53,1.53,0,0,1-1.35,0,.41.41,0,0,1,0-.78A1.53,1.53,0,0,1,13.07,39.66Z"/><path class="cls-3" d="M22.36,34.23c.38.21.38.56,0,.78A1.53,1.53,0,0,1,21,35c-.37-.22-.37-.57,0-.78A1.46,1.46,0,0,1,22.36,34.23Z"/><path class="cls-3" d="M34,42.83c.37.21.37.56,0,.78a1.53,1.53,0,0,1-1.35,0c-.37-.22-.37-.57,0-.78A1.46,1.46,0,0,1,34,42.83Z"/><path class="cls-3" d="M32.08,31.28a.41.41,0,0,1,0,.77,1.46,1.46,0,0,1-1.35,0,.41.41,0,0,1,0-.77A1.46,1.46,0,0,1,32.08,31.28Z"/><path class="cls-3" d="M24.68,32.38c.37.21.37.56,0,.78a1.53,1.53,0,0,1-1.35,0c-.37-.22-.37-.57,0-.78A1.46,1.46,0,0,1,24.68,32.38Z"/><path class="cls-3" d="M19,31.49a.41.41,0,0,1,0,.77,1.46,1.46,0,0,1-1.35,0c-.38-.21-.38-.56,0-.77A1.46,1.46,0,0,1,19,31.49Z"/><path class="cls-3" d="M12.12,35.63a.41.41,0,0,1,0,.78,1.46,1.46,0,0,1-1.35,0c-.38-.22-.38-.56,0-.78A1.53,1.53,0,0,1,12.12,35.63Z"/><path class="cls-3" d="M16.52,41.77c.37.21.37.56,0,.78a1.53,1.53,0,0,1-1.35,0c-.38-.22-.38-.57,0-.78A1.46,1.46,0,0,1,16.52,41.77Z"/><path class="cls-3" d="M32.79,40.21c.38.22.38.57,0,.78a1.46,1.46,0,0,1-1.35,0c-.37-.21-.37-.56,0-.78A1.53,1.53,0,0,1,32.79,40.21Z"/><path class="cls-3" d="M41.41,18.54a.79.79,0,0,1,0,1.49,2.86,2.86,0,0,1-2.58,0,.79.79,0,0,1,0-1.49A2.86,2.86,0,0,1,41.41,18.54Z"/><path class="cls-3" d="M40.24,22.93a.79.79,0,0,1,0,1.49,2.86,2.86,0,0,1-2.58,0,.79.79,0,0,1,0-1.49A2.86,2.86,0,0,1,40.24,22.93Z"/><path class="cls-3" d="M49.17,20.1a.79.79,0,0,1,0,1.49,2.86,2.86,0,0,1-2.58,0,.78.78,0,0,1,0-1.49A2.86,2.86,0,0,1,49.17,20.1Z"/><path class="cls-3" d="M31.74,25.51a.79.79,0,0,1,0,1.49,2.86,2.86,0,0,1-2.58,0,.79.79,0,0,1,0-1.49A2.86,2.86,0,0,1,31.74,25.51Z"/><path class="cls-3" d="M29.3,17.84c.37.22.37.57,0,.78a1.46,1.46,0,0,1-1.35,0c-.37-.21-.37-.56,0-.78A1.53,1.53,0,0,1,29.3,17.84Z"/><path class="cls-3" d="M29.69,21.81c.37.21.37.56,0,.78a1.53,1.53,0,0,1-1.35,0c-.37-.22-.37-.57,0-.78A1.46,1.46,0,0,1,29.69,21.81Z"/><path class="cls-3" d="M25.31,25.36c.37.22.37.57,0,.78a1.46,1.46,0,0,1-1.35,0c-.37-.21-.37-.56,0-.78A1.53,1.53,0,0,1,25.31,25.36Z"/><path class="cls-3" d="M52.37,18c.37.21.37.56,0,.78a1.53,1.53,0,0,1-1.35,0c-.37-.22-.37-.57,0-.78A1.46,1.46,0,0,1,52.37,18Z"/><path class="cls-3" d="M48,13.73c.37.22.37.57,0,.78a1.46,1.46,0,0,1-1.35,0c-.38-.21-.38-.56,0-.78A1.53,1.53,0,0,1,48,13.73Z"/><path class="cls-3" d="M35.35,21c.37.21.37.56,0,.78a1.53,1.53,0,0,1-1.35,0c-.37-.22-.37-.57,0-.78A1.46,1.46,0,0,1,35.35,21Z"/><path class="cls-3" d="M46.64,16.47c.38.22.38.56,0,.78a1.53,1.53,0,0,1-1.35,0,.41.41,0,0,1,0-.78A1.53,1.53,0,0,1,46.64,16.47Z"/><path class="cls-3" d="M41.75,15.37c.37.21.37.56,0,.78a1.53,1.53,0,0,1-1.35,0c-.37-.22-.37-.57,0-.78A1.46,1.46,0,0,1,41.75,15.37Z"/><path class="cls-3" d="M22.77,28.68c.37.21.37.56,0,.78a1.53,1.53,0,0,1-1.35,0c-.37-.22-.37-.57,0-.78A1.46,1.46,0,0,1,22.77,28.68Z"/><path class="cls-3" d="M34.15,18.39c.37.22.37.57,0,.78a1.46,1.46,0,0,1-1.35,0c-.37-.21-.37-.56,0-.78A1.53,1.53,0,0,1,34.15,18.39Z"/><path class="cls-3" d="M87.39,52.15c.72.41.72,1.07,0,1.49a2.86,2.86,0,0,1-2.58,0,.79.79,0,0,1,0-1.49A2.8,2.8,0,0,1,87.39,52.15Z"/><path class="cls-3" d="M80,56.11a.79.79,0,0,1,0,1.49,2.86,2.86,0,0,1-2.58,0,.79.79,0,0,1,0-1.49A2.86,2.86,0,0,1,80,56.11Z"/><path class="cls-3" d="M91.3,45.93a.79.79,0,0,1,0,1.49,2.86,2.86,0,0,1-2.58,0,.78.78,0,0,1,0-1.49A2.86,2.86,0,0,1,91.3,45.93Z"/><path class="cls-3" d="M102.43,56.53a.79.79,0,0,1,0,1.49,2.86,2.86,0,0,1-2.58,0,.78.78,0,0,1,0-1.49A2.86,2.86,0,0,1,102.43,56.53Z"/><path class="cls-3" d="M121.35,45.11a.79.79,0,0,1,0,1.49,2.86,2.86,0,0,1-2.58,0,.79.79,0,0,1,0-1.49A2.86,2.86,0,0,1,121.35,45.11Z"/><path class="cls-3" d="M98.78,47.56a.79.79,0,0,1,0,1.49,2.8,2.8,0,0,1-2.58,0c-.72-.41-.72-1.07,0-1.49A2.86,2.86,0,0,1,98.78,47.56Z"/><path class="cls-3" d="M93.92,59.12a.78.78,0,0,1,0,1.49,2.86,2.86,0,0,1-2.58,0,.79.79,0,0,1,0-1.49A2.8,2.8,0,0,1,93.92,59.12Z"/><path class="cls-3" d="M81.62,49.52c.37.22.37.57,0,.78a1.46,1.46,0,0,1-1.35,0c-.38-.21-.38-.56,0-.78A1.53,1.53,0,0,1,81.62,49.52Z"/><path class="cls-3" d="M91.48,51.45c.38.21.38.56,0,.78a1.5,1.5,0,0,1-1.34,0c-.38-.22-.38-.57,0-.78A1.44,1.44,0,0,1,91.48,51.45Z"/><path class="cls-3" d="M91.87,55.41c.38.22.38.57,0,.78a1.46,1.46,0,0,1-1.35,0c-.37-.21-.37-.56,0-.78A1.53,1.53,0,0,1,91.87,55.41Z"/><path class="cls-3" d="M85.91,56.47a.41.41,0,0,1,0,.77,1.46,1.46,0,0,1-1.35,0,.41.41,0,0,1,0-.77A1.46,1.46,0,0,1,85.91,56.47Z"/><path class="cls-3" d="M85.91,49.52c.37.22.37.57,0,.78a1.46,1.46,0,0,1-1.35,0c-.37-.21-.37-.56,0-.78A1.53,1.53,0,0,1,85.91,49.52Z"/><path class="cls-3" d="M80.66,45.46c.37.22.37.57,0,.78a1.46,1.46,0,0,1-1.35,0c-.37-.21-.37-.56,0-.78A1.53,1.53,0,0,1,80.66,45.46Z"/><path class="cls-3" d="M76.62,51.45c.37.21.37.56,0,.78a1.53,1.53,0,0,1-1.35,0c-.38-.22-.38-.57,0-.78A1.46,1.46,0,0,1,76.62,51.45Z"/><path class="cls-3" d="M85.91,46c.37.22.37.57,0,.78a1.46,1.46,0,0,1-1.35,0c-.37-.21-.37-.56,0-.78A1.53,1.53,0,0,1,85.91,46Z"/><path class="cls-3" d="M97.53,54.61c.38.22.38.57,0,.78a1.44,1.44,0,0,1-1.34,0,.41.41,0,0,1,0-.78A1.53,1.53,0,0,1,97.53,54.61Z"/><path class="cls-3" d="M95.63,43.06c.37.22.37.57,0,.78a1.46,1.46,0,0,1-1.35,0c-.38-.21-.38-.56,0-.78A1.53,1.53,0,0,1,95.63,43.06Z"/><path class="cls-3" d="M88.22,44.16c.38.22.38.57,0,.78a1.44,1.44,0,0,1-1.34,0,.41.41,0,0,1,0-.78A1.53,1.53,0,0,1,88.22,44.16Z"/><path class="cls-3" d="M82.57,43.27c.37.22.37.57,0,.78a1.46,1.46,0,0,1-1.35,0c-.37-.21-.37-.56,0-.78A1.53,1.53,0,0,1,82.57,43.27Z"/><path class="cls-3" d="M75.66,47.42c.37.21.37.56,0,.78a1.53,1.53,0,0,1-1.35,0c-.37-.22-.37-.57,0-.78A1.46,1.46,0,0,1,75.66,47.42Z"/><path class="cls-3" d="M80.06,53.55c.37.22.37.57,0,.78a1.46,1.46,0,0,1-1.35,0c-.37-.21-.37-.56,0-.78A1.53,1.53,0,0,1,80.06,53.55Z"/><path class="cls-3" d="M85,62.28c.38.22.38.57,0,.78a1.46,1.46,0,0,1-1.35,0c-.37-.21-.37-.56,0-.78A1.53,1.53,0,0,1,85,62.28Z"/><path class="cls-3" d="M96.34,52c.37.21.37.56,0,.78a1.53,1.53,0,0,1-1.35,0c-.38-.22-.38-.57,0-.78A1.46,1.46,0,0,1,96.34,52Z"/><path class="cls-3" d="M102.67,34.6a.79.79,0,0,1,0,1.49,2.86,2.86,0,0,1-2.58,0,.78.78,0,0,1,0-1.49A2.86,2.86,0,0,1,102.67,34.6Z"/><path class="cls-3" d="M95.28,38.56a.79.79,0,0,1,0,1.49,2.8,2.8,0,0,1-2.58,0,.79.79,0,0,1,0-1.49A2.86,2.86,0,0,1,95.28,38.56Z"/><path class="cls-3" d="M74.87,28.66a.79.79,0,0,1,0,1.49,2.86,2.86,0,0,1-2.58,0,.79.79,0,0,1,0-1.49A2.86,2.86,0,0,1,74.87,28.66Z"/><ellipse class="cls-3" cx="116.41" cy="39.73" rx="1.82" ry="1.05"/><path class="cls-3" d="M111,49.93a.79.79,0,0,1,0,1.49,2.86,2.86,0,0,1-2.58,0,.79.79,0,0,1,0-1.49A2.86,2.86,0,0,1,111,49.93Z"/><path class="cls-3" d="M87.39,25.71a.78.78,0,0,1,0,1.49,2.86,2.86,0,0,1-2.58,0,.79.79,0,0,1,0-1.49A2.86,2.86,0,0,1,87.39,25.71Z"/><path class="cls-3" d="M109.2,41.57a.79.79,0,0,1,0,1.49,2.86,2.86,0,0,1-2.58,0,.78.78,0,0,1,0-1.49A2.86,2.86,0,0,1,109.2,41.57Z"/><path class="cls-3" d="M105.94,48.38a.79.79,0,0,1,0,1.49,2.86,2.86,0,0,1-2.58,0,.79.79,0,0,1,0-1.49A2.86,2.86,0,0,1,105.94,48.38Z"/><path class="cls-3" d="M96.89,32c.37.21.37.56,0,.78a1.53,1.53,0,0,1-1.35,0c-.37-.22-.37-.57,0-.78A1.46,1.46,0,0,1,96.89,32Z"/><path class="cls-3" d="M106.76,33.9c.37.22.37.57,0,.78a1.46,1.46,0,0,1-1.35,0c-.37-.21-.37-.56,0-.78A1.53,1.53,0,0,1,106.76,33.9Z"/><path class="cls-3" d="M107.15,37.87c.37.21.37.56,0,.78a1.53,1.53,0,0,1-1.35,0c-.37-.22-.37-.57,0-.78A1.46,1.46,0,0,1,107.15,37.87Z"/><path class="cls-3" d="M103.88,42.83c.37.21.37.56,0,.78a1.53,1.53,0,0,1-1.35,0c-.38-.22-.38-.57,0-.78A1.46,1.46,0,0,1,103.88,42.83Z"/><path class="cls-3" d="M81.22,29.87c.37.22.37.57,0,.78a1.46,1.46,0,0,1-1.35,0c-.37-.21-.37-.56,0-.78A1.53,1.53,0,0,1,81.22,29.87Z"/><path class="cls-3" d="M79.76,25c.37.22.37.57,0,.78a1.46,1.46,0,0,1-1.35,0c-.37-.21-.37-.56,0-.78A1.53,1.53,0,0,1,79.76,25Z"/><path class="cls-3" d="M80.66,17.21c.37.21.37.56,0,.78a1.53,1.53,0,0,1-1.35,0c-.37-.22-.37-.57,0-.78A1.46,1.46,0,0,1,80.66,17.21Z"/><path class="cls-3" d="M90.53,23.16c.37.22.37.57,0,.78a1.46,1.46,0,0,1-1.35,0c-.37-.21-.37-.56,0-.78A1.53,1.53,0,0,1,90.53,23.16Z"/><path class="cls-3" d="M85.36,29c.37.21.37.56,0,.78a1.53,1.53,0,0,1-1.35,0c-.37-.22-.37-.57,0-.78A1.46,1.46,0,0,1,85.36,29Z"/><path class="cls-3" d="M75.12,33.9c.38.22.38.57,0,.78a1.44,1.44,0,0,1-1.34,0c-.38-.21-.38-.56,0-.78A1.5,1.5,0,0,1,75.12,33.9Z"/><path class="cls-3" d="M71.51,34.5c.37.21.37.56,0,.78a1.53,1.53,0,0,1-1.35,0c-.37-.22-.37-.57,0-.78A1.46,1.46,0,0,1,71.51,34.5Z"/><path class="cls-3" d="M67.88,31.83c.38.21.38.56,0,.78a1.53,1.53,0,0,1-1.35,0c-.37-.22-.37-.57,0-.78A1.46,1.46,0,0,1,67.88,31.83Z"/><path class="cls-3" d="M67.88,29c.38.21.38.56,0,.78a1.53,1.53,0,0,1-1.35,0c-.37-.22-.37-.57,0-.78A1.46,1.46,0,0,1,67.88,29Z"/><path class="cls-3" d="M66.66,25.94a.41.41,0,0,1,0,.78,1.53,1.53,0,0,1-1.35,0c-.38-.22-.38-.56,0-.78A1.53,1.53,0,0,1,66.66,25.94Z"/><path class="cls-3" d="M63.5,32.38c.37.21.37.56,0,.78a1.53,1.53,0,0,1-1.35,0c-.37-.22-.37-.57,0-.78A1.46,1.46,0,0,1,63.5,32.38Z"/><path class="cls-3" d="M56.38,45.1a.41.41,0,0,1,0,.78,1.53,1.53,0,0,1-1.35,0,.41.41,0,0,1,0-.78A1.53,1.53,0,0,1,56.38,45.1Z"/><path class="cls-3" d="M49.47,47.69a.41.41,0,0,1,0,.77,1.46,1.46,0,0,1-1.35,0,.41.41,0,0,1,0-.77A1.46,1.46,0,0,1,49.47,47.69Z"/><path class="cls-3" d="M101.18,38.92a.41.41,0,0,1,0,.78,1.53,1.53,0,0,1-1.35,0,.41.41,0,0,1,0-.78A1.53,1.53,0,0,1,101.18,38.92Z"/><path class="cls-3" d="M101.18,32c.37.21.37.56,0,.78a1.53,1.53,0,0,1-1.35,0c-.37-.22-.37-.57,0-.78A1.46,1.46,0,0,1,101.18,32Z"/><path class="cls-3" d="M95.93,27.92c.38.21.38.56,0,.78a1.5,1.5,0,0,1-1.34,0c-.38-.22-.38-.57,0-.78A1.44,1.44,0,0,1,95.93,27.92Z"/><path class="cls-3" d="M91.89,33.9c.37.22.37.57,0,.78a1.46,1.46,0,0,1-1.35,0c-.37-.21-.37-.56,0-.78A1.53,1.53,0,0,1,91.89,33.9Z"/><path class="cls-3" d="M101.18,28.47c.37.21.37.56,0,.78a1.53,1.53,0,0,1-1.35,0c-.37-.22-.37-.57,0-.78A1.46,1.46,0,0,1,101.18,28.47Z"/><path class="cls-3" d="M112.81,37.07c.37.21.37.56,0,.78a1.53,1.53,0,0,1-1.35,0c-.37-.22-.37-.57,0-.78A1.46,1.46,0,0,1,112.81,37.07Z"/><path class="cls-3" d="M113.76,46.15c.38.22.38.57,0,.78a1.46,1.46,0,0,1-1.35,0c-.37-.21-.37-.56,0-.78A1.53,1.53,0,0,1,113.76,46.15Z"/><path class="cls-3" d="M106.76,55.53c.37.22.37.57,0,.78a1.46,1.46,0,0,1-1.35,0c-.37-.21-.37-.56,0-.78A1.53,1.53,0,0,1,106.76,55.53Z"/><path class="cls-3" d="M101.48,52.88a.26.26,0,0,1,0,.5,1,1,0,0,1-.88,0,.26.26,0,0,1,0-.5A1,1,0,0,1,101.48,52.88Z"/><path class="cls-3" d="M101.48,47.62c.24.13.24.36,0,.5a1,1,0,0,1-.88,0c-.24-.14-.24-.37,0-.5A1,1,0,0,1,101.48,47.62Z"/><path class="cls-3" d="M75.84,24.06a.26.26,0,0,1,0,.5,1,1,0,0,1-.87,0,.26.26,0,0,1,0-.5A1,1,0,0,1,75.84,24.06Z"/><path class="cls-3" d="M73.18,8.48c.24.13.24.36,0,.5a1,1,0,0,1-.87,0c-.24-.14-.24-.37,0-.5A1,1,0,0,1,73.18,8.48Z"/><path class="cls-3" d="M60.25,41.51a.27.27,0,0,1,0,.51,1,1,0,0,1-.87,0c-.24-.15-.24-.37,0-.51A1,1,0,0,1,60.25,41.51Z"/><path class="cls-3" d="M53.89,49.92c.24.14.24.37,0,.5a1,1,0,0,1-.87,0,.26.26,0,0,1,0-.5A1,1,0,0,1,53.89,49.92Z"/><path class="cls-3" d="M83.29,66.12c.24.14.24.37,0,.5a1,1,0,0,1-.88,0,.26.26,0,0,1,0-.5A1,1,0,0,1,83.29,66.12Z"/><path class="cls-3" d="M76.34,60.71a.26.26,0,0,1,0,.5,1,1,0,0,1-.88,0c-.24-.14-.23-.37,0-.51A.92.92,0,0,1,76.34,60.71Z"/><path class="cls-3" d="M87.65,64.59c.24.14.24.37,0,.5a1,1,0,0,1-.87,0c-.25-.14-.25-.36,0-.5A1,1,0,0,1,87.65,64.59Z"/><path class="cls-3" d="M40.85,54.27c.24.14.24.36,0,.5a1,1,0,0,1-.87,0,.27.27,0,0,1,0-.51A1,1,0,0,1,40.85,54.27Z"/><path class="cls-3" d="M115.26,42.93c.37.22.37.57,0,.78a1.46,1.46,0,0,1-1.35,0c-.37-.21-.37-.56,0-.78A1.53,1.53,0,0,1,115.26,42.93Z"/><path class="cls-3" d="M115.23,49.48c.39.2.41.54,0,.78a1.47,1.47,0,0,1-1.35.08c-.38-.19-.4-.54,0-.78A1.51,1.51,0,0,1,115.23,49.48Z"/><path class="cls-3" d="M97.84,25.73c.38.21.38.56,0,.78a1.53,1.53,0,0,1-1.35,0c-.37-.22-.37-.57,0-.78A1.46,1.46,0,0,1,97.84,25.73Z"/><path class="cls-3" d="M90.93,29.87c.38.22.38.57,0,.78a1.46,1.46,0,0,1-1.35,0c-.37-.21-.37-.56,0-.78A1.53,1.53,0,0,1,90.93,29.87Z"/><path class="cls-3" d="M95.33,36c.38.21.38.56,0,.78a1.53,1.53,0,0,1-1.35,0c-.37-.22-.37-.57,0-.78A1.46,1.46,0,0,1,95.33,36Z"/><path class="cls-3" d="M100.23,44.74c.37.21.37.56,0,.78a1.53,1.53,0,0,1-1.35,0c-.38-.22-.38-.57,0-.78A1.46,1.46,0,0,1,100.23,44.74Z"/><path class="cls-3" d="M111.61,34.45c.37.22.37.57,0,.78a1.46,1.46,0,0,1-1.35,0c-.37-.21-.37-.56,0-.78A1.53,1.53,0,0,1,111.61,34.45Z"/><path class="cls-3" d="M62.16,59.71a.79.79,0,0,1,0,1.49,2.86,2.86,0,0,1-2.58,0,.79.79,0,0,1,0-1.49A2.86,2.86,0,0,1,62.16,59.71Z"/><path class="cls-3" d="M66.06,53.49c.72.42.72,1.08,0,1.49a2.86,2.86,0,0,1-2.58,0,.79.79,0,0,1,0-1.49A2.86,2.86,0,0,1,66.06,53.49Z"/><path class="cls-3" d="M77.19,64.1a.79.79,0,0,1,0,1.49,2.86,2.86,0,0,1-2.58,0,.79.79,0,0,1,0-1.49A2.86,2.86,0,0,1,77.19,64.1Z"/><path class="cls-3" d="M82.79,69a.79.79,0,0,1,0,1.49,2.86,2.86,0,0,1-2.58,0,.79.79,0,0,1,0-1.49A2.86,2.86,0,0,1,82.79,69Z"/><path class="cls-3" d="M73.54,55.13a.78.78,0,0,1,0,1.49,2.86,2.86,0,0,1-2.58,0,.79.79,0,0,1,0-1.49A2.86,2.86,0,0,1,73.54,55.13Z"/><path class="cls-3" d="M68.69,66.68a.79.79,0,0,1,0,1.49,2.86,2.86,0,0,1-2.58,0,.79.79,0,0,1,0-1.49A2.86,2.86,0,0,1,68.69,66.68Z"/><path class="cls-3" d="M56.38,57.09c.37.21.37.56,0,.78a1.53,1.53,0,0,1-1.35,0c-.37-.22-.37-.57,0-.78A1.46,1.46,0,0,1,56.38,57.09Z"/><path class="cls-3" d="M66.25,59c.37.22.37.57,0,.78a1.46,1.46,0,0,1-1.35,0c-.37-.21-.37-.56,0-.78A1.53,1.53,0,0,1,66.25,59Z"/><path class="cls-3" d="M66.64,63c.37.21.37.56,0,.78a1.53,1.53,0,0,1-1.35,0c-.37-.22-.37-.57,0-.78A1.46,1.46,0,0,1,66.64,63Z"/><path class="cls-3" d="M60.67,64c.38.22.38.56,0,.78a1.53,1.53,0,0,1-1.35,0,.41.41,0,0,1,0-.78A1.53,1.53,0,0,1,60.67,64Z"/><path class="cls-3" d="M60.67,57.09c.38.21.38.56,0,.78a1.53,1.53,0,0,1-1.35,0c-.37-.22-.37-.57,0-.78A1.46,1.46,0,0,1,60.67,57.09Z"/><path class="cls-3" d="M55.43,53c.37.21.37.56,0,.78a1.53,1.53,0,0,1-1.35,0c-.38-.22-.38-.57,0-.78A1.46,1.46,0,0,1,55.43,53Z"/><path class="cls-3" d="M51.38,59c.37.22.37.57,0,.78a1.46,1.46,0,0,1-1.35,0c-.37-.21-.37-.56,0-.78A1.53,1.53,0,0,1,51.38,59Z"/><path class="cls-3" d="M60.67,53.58c.38.21.38.56,0,.78a1.53,1.53,0,0,1-1.35,0c-.37-.22-.37-.57,0-.78A1.46,1.46,0,0,1,60.67,53.58Z"/><path class="cls-3" d="M72.3,62.18c.37.21.37.56,0,.78A1.53,1.53,0,0,1,71,63c-.37-.22-.37-.57,0-.78A1.46,1.46,0,0,1,72.3,62.18Z"/><path class="cls-3" d="M70.39,50.63c.38.21.38.56,0,.78a1.53,1.53,0,0,1-1.35,0c-.37-.22-.37-.57,0-.78A1.46,1.46,0,0,1,70.39,50.63Z"/><path class="cls-3" d="M63,51.73c.37.21.37.56,0,.78a1.53,1.53,0,0,1-1.35,0c-.37-.22-.37-.57,0-.78A1.46,1.46,0,0,1,63,51.73Z"/><path class="cls-3" d="M57.34,50.83c.37.22.37.57,0,.78a1.46,1.46,0,0,1-1.35,0c-.38-.21-.38-.56,0-.78A1.53,1.53,0,0,1,57.34,50.83Z"/><path class="cls-3" d="M35.35,49.23c.37.22.37.57,0,.78A1.46,1.46,0,0,1,34,50c-.37-.21-.37-.56,0-.78A1.53,1.53,0,0,1,35.35,49.23Z"/><path class="cls-3" d="M76.08,69.85c.37.22.37.57,0,.78a1.46,1.46,0,0,1-1.35,0c-.37-.21-.37-.56,0-.78A1.53,1.53,0,0,1,76.08,69.85Z"/><path class="cls-3" d="M50.43,55c.37.22.37.57,0,.78a1.46,1.46,0,0,1-1.35,0c-.38-.21-.38-.56,0-.78A1.53,1.53,0,0,1,50.43,55Z"/><path class="cls-3" d="M54.83,61.12c.37.21.37.56,0,.78a1.53,1.53,0,0,1-1.35,0c-.38-.22-.38-.57,0-.78A1.46,1.46,0,0,1,54.83,61.12Z"/><path class="cls-3" d="M71.1,59.56c.38.22.38.57,0,.78a1.46,1.46,0,0,1-1.35,0c-.37-.21-.37-.56,0-.78A1.53,1.53,0,0,1,71.1,59.56Z"/><path class="cls-3" d="M79.72,37.89a.79.79,0,0,1,0,1.49,2.86,2.86,0,0,1-2.58,0,.79.79,0,0,1,0-1.49A2.86,2.86,0,0,1,79.72,37.89Z"/><path class="cls-3" d="M78.55,42.28a.79.79,0,0,1,0,1.49,2.86,2.86,0,0,1-2.58,0,.79.79,0,0,1,0-1.49A2.86,2.86,0,0,1,78.55,42.28Z"/><path class="cls-3" d="M87.48,39.45a.79.79,0,0,1,0,1.49,2.86,2.86,0,0,1-2.58,0,.78.78,0,0,1,0-1.49A2.86,2.86,0,0,1,87.48,39.45Z"/><path class="cls-3" d="M70.05,44.86a.79.79,0,0,1,0,1.49,2.86,2.86,0,0,1-2.58,0,.79.79,0,0,1,0-1.49A2.86,2.86,0,0,1,70.05,44.86Z"/><path class="cls-3" d="M67.61,37.19c.37.22.37.57,0,.78a1.46,1.46,0,0,1-1.35,0c-.37-.21-.37-.56,0-.78A1.53,1.53,0,0,1,67.61,37.19Z"/><ellipse class="cls-3" cx="67.33" cy="41.55" rx="0.95" ry="0.55"/><path class="cls-3" d="M63.62,44.71c.38.22.38.57,0,.78a1.46,1.46,0,0,1-1.35,0c-.37-.21-.37-.56,0-.78A1.53,1.53,0,0,1,63.62,44.71Z"/><path class="cls-3" d="M90.68,37.32a.41.41,0,0,1,0,.77,1.46,1.46,0,0,1-1.35,0,.41.41,0,0,1,0-.77A1.46,1.46,0,0,1,90.68,37.32Z"/><path class="cls-3" d="M86.32,33.08c.37.22.37.57,0,.78a1.46,1.46,0,0,1-1.35,0c-.38-.21-.38-.56,0-.78A1.53,1.53,0,0,1,86.32,33.08Z"/><path class="cls-3" d="M73.66,40.36a.41.41,0,0,1,0,.78,1.53,1.53,0,0,1-1.35,0,.41.41,0,0,1,0-.78A1.46,1.46,0,0,1,73.66,40.36Z"/><path class="cls-3" d="M85,35.82c.38.21.38.56,0,.78a1.46,1.46,0,0,1-1.35,0c-.37-.22-.37-.57,0-.78A1.46,1.46,0,0,1,85,35.82Z"/><path class="cls-3" d="M80.06,34.72c.37.21.37.56,0,.78a1.53,1.53,0,0,1-1.35,0c-.37-.22-.37-.57,0-.78A1.46,1.46,0,0,1,80.06,34.72Z"/><path class="cls-3" d="M61.08,48a.41.41,0,0,1,0,.78,1.53,1.53,0,0,1-1.35,0,.41.41,0,0,1,0-.78A1.46,1.46,0,0,1,61.08,48Z"/><path class="cls-3" d="M72.46,37.74c.38.22.38.57,0,.78a1.46,1.46,0,0,1-1.35,0c-.37-.21-.37-.56,0-.78A1.53,1.53,0,0,1,72.46,37.74Z"/></g></g></g></svg>