<svg xmlns="http://www.w3.org/2000/svg" xmlns:xlink="http://www.w3.org/1999/xlink" viewBox="0 0 115.24 71.31"><defs><style>.cls-1{fill:url(#radial-gradient);}.cls-2{fill:#fffef5;}.cls-3{fill:#f19101;}.cls-4{fill:url(#linear-gradient);}.cls-5{fill:#fff8be;}.cls-6{fill:#d96d00;opacity:0.74;}</style><radialGradient id="radial-gradient" cx="52.44" cy="29.52" r="66.49" gradientUnits="userSpaceOnUse"><stop offset="0" stop-color="#fffef5"/><stop offset="1" stop-color="#f2ebd6"/></radialGradient><linearGradient id="linear-gradient" x1="53.18" y1="18.2" x2="53.18" y2="46.2" gradientUnits="userSpaceOnUse"><stop offset="0" stop-color="#f5af43"/><stop offset="1" stop-color="#f19101"/></linearGradient></defs><title>Asset 11</title><g id="Layer_2" data-name="Layer 2"><g id="Ñëîé_1" data-name="Ñëîé 1"><path class="cls-1" d="M53.71.13c-12.16-.77-22,1.92-21.1,6.65S19.22,9.19,8.8,17.06s-5,11.55-1.09,14.12-16,12.55-3.54,19,20.18,5.9,29,7.43,10.69,7.12,21.21,11S81.06,73,83.85,65.29c3.32-9.15,8.13-15,15-15.79s24.51-11.41,12-19.43S76.27,17.66,73.46,10.25,69.61,1.15,53.71.13Z"/><path class="cls-2" d="M48.82,62.94s2.25,1,5.74,2.13a65.42,65.42,0,0,0,13.15,3.08,32.09,32.09,0,0,0,3.64.2,16.78,16.78,0,0,0,3.44-.43,14,14,0,0,0,5.48-2.71,15.1,15.1,0,0,0,3-3.22,10,10,0,0,0,.86-1.44,10.16,10.16,0,0,1-.73,1.55,14.47,14.47,0,0,1-2.82,3.55,13.67,13.67,0,0,1-5.62,3.13,15.29,15.29,0,0,1-3.62.56,25.79,25.79,0,0,1-3.72-.16,50,50,0,0,1-13.14-3.59A58.75,58.75,0,0,1,48.82,62.94Z"/><path class="cls-2" d="M105,45.59s.85-.53,2.07-1.43a28.54,28.54,0,0,0,4.14-3.66,10.78,10.78,0,0,0,1.67-2.37,5.46,5.46,0,0,0,.61-2.39,4.7,4.7,0,0,0-.35-1.74,4.76,4.76,0,0,0-.29-.63,5,5,0,0,1,.39.59,4.4,4.4,0,0,1,.59,1.79,5.3,5.3,0,0,1-.43,2.66A9.28,9.28,0,0,1,111.75,41a18.79,18.79,0,0,1-4.44,3.47A21.53,21.53,0,0,1,105,45.59Z"/><path class="cls-2" d="M2.64,45.59a9.65,9.65,0,0,0,1.83,1.79A27.08,27.08,0,0,0,9.34,50.3,70.08,70.08,0,0,0,17,53.41s-1.05-.17-2.57-.55A28.46,28.46,0,0,1,9,50.93a18.63,18.63,0,0,1-4.76-3.27A8.25,8.25,0,0,1,2.64,45.59Z"/><path class="cls-3" d="M70.07,21.51c9.33,6,9.33,15.81,0,21.84s-24.46,6-33.79,0-9.33-15.81,0-21.84S60.74,15.47,70.07,21.51Z"/><path class="cls-4" d="M69.47,21.69c9,5.82,9,15.25,0,21.06s-23.59,5.82-32.59,0-9-15.24,0-21.06S60.47,15.87,69.47,21.69Z"/><path class="cls-5" d="M52.22,22.43c1.88,1.21,1.88,3.18,0,4.4a6.82,6.82,0,0,1-6.8,0c-1.88-1.22-1.88-3.19,0-4.4A6.77,6.77,0,0,1,52.22,22.43Z"/><path class="cls-6" d="M70.42,23.41c4.84,5.32,3.73,12.28-3.33,16.85-8.39,5.42-22,5.42-30.37,0a18.33,18.33,0,0,1-2-1.52A17.06,17.06,0,0,0,38,41.52c8.39,5.42,22,5.42,30.37,0C76,36.58,76.71,28.85,70.42,23.41Z"/></g></g></svg>