<svg xmlns="http://www.w3.org/2000/svg" xmlns:xlink="http://www.w3.org/1999/xlink" viewBox="0 0 128.88 66.66"><defs><style>.cls-1{fill:url(#radial-gradient);}.cls-2{fill:#cc551c;}.cls-3{fill:url(#radial-gradient-2);}</style><radialGradient id="radial-gradient" cx="67.1" cy="36.44" r="144.71" gradientTransform="translate(-61.51 -128.51) rotate(6.51)" gradientUnits="userSpaceOnUse"><stop offset="0.81" stop-color="#dd8e66"/><stop offset="0.87" stop-color="#da9d7e"/><stop offset="0.94" stop-color="#cc551c"/><stop offset="1" stop-color="#a8410f"/></radialGradient><radialGradient id="radial-gradient-2" cx="20.39" cy="-75.67" r="144.72" gradientTransform="matrix(1, 0, 0, 1, 0, 0)" xlink:href="#radial-gradient"/></defs><title>Asset 18</title><g id="Layer_2" data-name="Layer 2"><g id="Ñëîé_1" data-name="Ñëîé 1"><path class="cls-1" d="M10.3,59.55a13.16,13.16,0,0,0,3.36.23C38.23,57,64.31,45.68,90.77,26.26c5.12-3.83,9.3-11.16,8.2-15.91C97.5,4,92.1,2.37,88.66,1.5c-2.34-.6-5.57.32-8.6,2.58C57.27,20.76,34.9,29.81,13.82,32.87,6.6,33.92,2.48,37.11.76,43a14.5,14.5,0,0,0-.57,6.73C1.41,54.61,4.18,57.93,10.3,59.55Z"/><path class="cls-2" d="M30.11,44.76S32.4,37.38,24,30.94c-.86.21-1.72.4-2.58.58A14.92,14.92,0,0,1,30.11,44.76Z"/><path class="cls-2" d="M81.93,20.34S83.37,13.11,75,7.63l-1.6,1.09A14.64,14.64,0,0,1,81.93,20.34Z"/><path class="cls-2" d="M70,27.31s1.35-7-6.51-12.37l-1.7,1A14.61,14.61,0,0,1,70,27.31Z"/><path class="cls-2" d="M57.34,35.14s2.19-7.39-6.24-13.72l-2,.91A14.79,14.79,0,0,1,57.34,35.14Z"/><path class="cls-2" d="M45,40.15S46.62,32.57,37.61,27q-1.23.43-2.46.84A14.93,14.93,0,0,1,45,40.15Z"/><path class="cls-3" d="M45.94,66.61a13.34,13.34,0,0,0,3.37-.15c24.09-5.53,48.72-19.75,72.81-42,4.66-4.39,8-12.14,6.35-16.74C126.28,1.52,120.74.53,117.22.05c-2.39-.32-5.5,1-8.26,3.54C88.21,22.74,67,34.28,46.41,39.71c-7,1.85-10.78,5.49-11.82,11.55a14.39,14.39,0,0,0,.2,6.75C36.55,62.71,39.67,65.69,45.94,66.61Z"/><path class="cls-2" d="M64,49.67s1.44-7.6-7.64-13l-2.5.86A14.92,14.92,0,0,1,64,49.67Z"/><path class="cls-2" d="M112.67,19.53s.61-7.34-8.29-11.84L102.91,9A14.66,14.66,0,0,1,112.67,19.53Z"/><path class="cls-2" d="M101.58,27.82s.55-7.08-7.87-11.56l-1.58,1.16A14.59,14.59,0,0,1,101.58,27.82Z"/><path class="cls-2" d="M89.91,37s1.34-7.58-7.75-12.91l-1.85,1.12A14.78,14.78,0,0,1,89.91,37Z"/><path class="cls-2" d="M78.26,43.4s.71-7.71-8.87-12.27L67,32.25A14.91,14.91,0,0,1,78.26,43.4Z"/></g></g></svg>